<svg xmlns="http://www.w3.org/2000/svg" width="85" height="86" viewBox="0 0 85 86" fill="none"><path d="M36.9124 0.977074C23.6211 2.71874 11.1436 11.9417 5.21486 24.3708C-2.53514 40.5604 0.409858 59.5604 12.6549 72.5437C29.0074 89.8813 56.0549 89.8813 72.4074 72.5437C81.3199 63.1229 85.5049 50.1792 83.7611 37.5125C80.5836 14.1979 59.7749 -2.03126 36.9124 0.977074ZM49.3511 2.32291C66.2074 5.33125 79.4986 18.9083 82.4436 36.1271C86.7449 61.1437 67.4861 84.4583 42.5311 84.4583C20.2886 84.4583 2.03736 65.8146 2.03736 43.0937C2.03736 23.2229 16.2586 5.88541 35.4786 2.32291C39.2761 1.61041 45.4374 1.61041 49.3511 2.32291Z" fill="#D8B56E"></path><path d="M16.7625 26.073V34.1876H22.7688C27.845 34.1876 28.775 34.1084 28.775 33.5938C28.775 33.0793 27.9225 33.0001 23.5438 33.0001H18.3125V26.2709V19.5022L21.7225 19.6209L25.0938 19.7397L25.2875 22.0751C25.5588 25.3605 26.3725 25.4792 26.5275 22.2334L26.6438 19.7397L29.4725 19.6209C32.2238 19.5022 32.2625 19.5022 32.2625 20.5313C32.2625 21.2438 32.4563 21.5209 33.0375 21.5209C33.6188 21.5209 33.8125 21.2438 33.8125 20.5313C33.8125 19.5813 33.89 19.5417 36.7188 19.5417H39.5863L39.7025 21.9959C39.78 23.9751 39.935 24.4897 40.5163 24.6084C41.0975 24.7272 41.175 24.4105 41.175 22.1542V19.5417H44.0813C46.91 19.5417 46.9875 19.5813 46.9875 20.5313C46.9875 21.2438 47.1813 21.5209 47.7625 21.5209C48.3438 21.5209 48.5375 21.2438 48.5375 20.5313C48.5375 19.6209 48.6925 19.5417 50.2813 19.5417C52.2963 19.5417 53.73 20.1751 55.125 21.7188C55.9 22.5501 56.0938 23.1834 56.0938 24.7668C56.0938 26.5084 55.9388 26.8647 54.66 28.0917L53.1875 29.4376H44.9725C36.0988 29.4376 34.51 29.6751 32.6113 31.298C30.5188 33.1188 30.325 34.1084 30.325 43.0938C30.325 50.6542 30.3638 51.248 31.0225 51.1292C31.6038 51.0105 31.6813 50.3772 31.7975 45.9438L31.9138 40.9167L33.425 41.7876C34.975 42.698 34.975 42.698 34.975 45.1522C34.975 47.3688 35.0525 47.6459 35.75 47.6459C36.4475 47.6459 36.525 47.3688 36.525 45.2709V42.8959H39.4313C42.26 42.8959 42.3375 42.9355 42.3375 43.8855C42.3375 44.598 42.5313 44.8751 43.1125 44.8751C43.6938 44.8751 43.8875 44.598 43.8875 43.8855C43.8875 42.9355 43.965 42.8959 46.7938 42.8959H49.7V45.2709C49.7 47.3688 49.7775 47.6459 50.475 47.6459C51.1725 47.6459 51.25 47.3688 51.25 45.2709V42.8959H54.1563C57.0238 42.8959 57.0625 42.8959 57.0625 43.9251C57.0625 45.2313 58.3413 45.1126 58.535 43.7667C58.6513 42.9751 58.8838 42.8959 61.325 42.8959H63.9988L64.115 45.1522C64.2313 47.1313 64.3475 47.448 65.0063 47.448C65.665 47.448 65.7813 47.1313 65.8975 45.3501C65.975 44.2417 66.2075 43.2917 66.44 43.2917C66.6338 43.2917 67.3313 43.8459 67.9513 44.5188C68.92 45.548 69.075 46.0626 69.075 47.8834C69.075 49.6647 68.8813 50.2188 67.9513 51.2876L66.8275 52.5938L40.71 52.7917L14.6313 52.9897L14.515 60.5897L14.4375 68.2292H42.5313H70.625V61.1042C70.625 54.2563 70.5863 53.9792 69.85 53.9792C69.1138 53.9792 69.075 54.2563 69.075 60.3126V66.6459H45.4375H21.8V65.4584C21.8 64.7063 21.9938 64.2709 22.3425 64.2709C23.1563 64.2709 24.9 61.9751 24.9 60.9063C24.9 59.4022 24.0863 57.9376 22.885 57.3042C22.0713 56.8688 21.8 56.4334 21.8 55.5626V54.3751H43.9263C65.7425 54.3751 66.0913 54.3751 67.525 53.5438C71.4 51.3272 71.71 45.4688 68.0675 42.6584L66.6338 41.5105L50.5913 41.3126L34.51 41.1147L33.1925 39.6501C32.1463 38.4626 31.875 37.8292 31.875 36.5626C31.875 34.8209 32.5725 33.0793 33.6575 32.1688C34.1613 31.7334 36.3313 31.5751 43.4613 31.4167C51.9863 31.2188 52.7225 31.1397 54.2725 30.3084C55.1638 29.8334 56.0163 29.4376 56.0938 29.4376C56.21 29.4376 56.2875 31.6542 56.2875 34.3855C56.2875 39.0563 56.3263 39.3334 57.0625 39.3334C57.7988 39.3334 57.8375 39.0563 57.8375 31.8918C57.8375 23.8563 57.5663 22.1938 56.0163 20.2938C54.0788 17.9584 54.1175 17.9584 34.5875 17.9584H16.7625V26.073Z" fill="#D8B56E"></path><path d="M27.2251 57.9376C27.2251 58.5313 27.4963 58.7292 28.1938 58.7292C28.8913 58.7292 29.1626 58.5313 29.1626 57.9376C29.1626 57.3438 28.8913 57.1459 28.1938 57.1459C27.4963 57.1459 27.2251 57.3438 27.2251 57.9376Z" fill="#D8B56E"></path><path d="M31.4873 57.9376C31.4873 58.5313 31.7586 58.7292 32.4561 58.7292C33.1536 58.7292 33.4248 58.5313 33.4248 57.9376C33.4248 57.3438 33.1536 57.1459 32.4561 57.1459C31.7586 57.1459 31.4873 57.3438 31.4873 57.9376Z" fill="#D8B56E"></path><path d="M35.75 57.9376C35.75 58.5313 36.0213 58.7292 36.7188 58.7292C37.4163 58.7292 37.6875 58.5313 37.6875 57.9376C37.6875 57.3438 37.4163 57.1459 36.7188 57.1459C36.0213 57.1459 35.75 57.3438 35.75 57.9376Z" fill="#D8B56E"></path><path d="M40.2063 57.5417C39.8188 58.1751 40.3613 58.7292 41.4076 58.7292C42.0663 58.7292 42.3376 58.5313 42.3376 57.9376C42.3376 57.3438 42.0663 57.1459 41.4076 57.1459C40.8651 57.1459 40.3226 57.3042 40.2063 57.5417Z" fill="#D8B56E"></path><path d="M44.4685 57.5417C44.081 58.1751 44.6235 58.7292 45.6698 58.7292C46.3285 58.7292 46.5998 58.5313 46.5998 57.9376C46.5998 57.3438 46.3285 57.1459 45.6698 57.1459C45.1273 57.1459 44.5848 57.3042 44.4685 57.5417Z" fill="#D8B56E"></path><path d="M48.9248 57.9376C48.9248 58.5313 49.1961 58.7292 49.8936 58.7292C50.591 58.7292 50.8623 58.5313 50.8623 57.9376C50.8623 57.3438 50.591 57.1459 49.8936 57.1459C49.1961 57.1459 48.9248 57.3438 48.9248 57.9376Z" fill="#D8B56E"></path><path d="M53.1875 57.9376C53.1875 58.5313 53.4587 58.7292 54.1562 58.7292C54.8537 58.7292 55.125 58.5313 55.125 57.9376C55.125 57.3438 54.8537 57.1459 54.1562 57.1459C53.4587 57.1459 53.1875 57.3438 53.1875 57.9376Z" fill="#D8B56E"></path><path d="M57.721 57.3834C57.0623 58.0563 57.5273 58.7292 58.651 58.7292C59.581 58.7292 59.8135 58.5709 59.6972 58.0167C59.581 57.3438 58.2248 56.8688 57.721 57.3834Z" fill="#D8B56E"></path><path d="M61.906 57.5417C61.5185 58.1751 62.061 58.7292 63.1073 58.7292C63.766 58.7292 64.0373 58.5313 64.0373 57.9376C64.0373 57.3438 63.766 57.1459 63.1073 57.1459C62.5648 57.1459 62.0223 57.3042 61.906 57.5417Z" fill="#D8B56E"></path></svg>