<svg xmlns="http://www.w3.org/2000/svg" width="138" height="133" viewBox="0 0 138 133" fill="none"><path d="M49.4498 109.62C49.3526 109.621 49.2562 109.603 49.1666 109.565C49.0771 109.527 48.9965 109.471 48.9298 109.4C48.8206 109.272 48.7606 109.109 48.7606 108.94C48.7606 108.771 48.8206 108.608 48.9298 108.48C55.7498 99.76 57.8498 92.01 58.3298 89.86C50.5252 87.2205 43.6026 82.4739 38.3276 76.1453C33.0525 69.8166 29.6304 62.1523 28.4398 54C27.6217 48.2277 27.9485 42.3509 29.4016 36.7049C30.8546 31.0589 33.4056 25.7545 36.9086 21.0944C43.9835 11.6829 54.5072 5.46728 66.1648 3.81498C77.8224 2.16268 89.6589 5.20902 99.0704 12.2838C108.482 19.3586 114.698 29.8824 116.35 41.54C116.927 45.9744 116.883 50.4676 116.22 54.89C115.774 57.2808 115.104 59.6244 114.22 61.89C114.06 62.32 113.79 62.89 113.55 63.44L113.3 63.99L112 63.42L112.25 62.85C112.47 62.36 112.73 61.79 112.89 61.38C113.73 59.1934 114.366 56.9337 114.79 54.63C115.443 50.3559 115.514 46.013 115 41.72C113.401 30.4271 107.381 20.232 98.2646 13.3775C89.1484 6.52307 77.6827 3.57073 66.3898 5.16998C55.0969 6.76924 44.9018 12.7891 38.0473 21.9052C31.1929 31.0214 28.2405 42.4871 29.8398 53.78C31.0028 61.7768 34.3829 69.2879 39.5969 75.4617C44.811 81.6355 51.6504 86.225 59.3398 88.71C59.5002 88.7606 59.6369 88.8674 59.7251 89.0106C59.8132 89.1538 59.8468 89.324 59.8198 89.49C59.8198 89.83 58.5898 96.86 52.6198 105.76C57.1798 102.34 64.8098 96.11 67.4898 90.91C67.554 90.783 67.6554 90.6786 67.7805 90.6107C67.9055 90.5428 68.0483 90.5147 68.1898 90.53C69.8742 90.6983 71.5675 90.7618 73.2598 90.72C75.6529 90.6693 78.0391 90.4454 80.3998 90.05L80.6598 91.44C78.2232 91.8506 75.7601 92.0845 73.2898 92.14C71.6984 92.1834 70.1059 92.1367 68.5198 92C64.1798 99.79 50.4398 109.11 49.8498 109.51C49.7301 109.585 49.591 109.623 49.4498 109.62V109.62Z" fill="#D8B56E"></path><path d="M36.44 129.53C36.3326 129.531 36.2266 129.507 36.13 129.46C35.9 129.34 30.59 126.75 28.39 124.1C24.9752 124.832 21.4175 124.487 18.2067 123.114C14.9958 121.74 12.2897 119.405 10.4609 116.43C8.63213 113.455 7.77056 109.986 7.99483 106.5C8.2191 103.015 9.51819 99.6854 11.7132 96.9691C13.9083 94.2529 16.8914 92.2838 20.2518 91.333C23.6122 90.3823 27.1847 90.4966 30.4775 91.6601C33.7703 92.8237 36.6214 94.9794 38.6384 97.8305C40.6553 100.681 41.7389 104.088 41.74 107.58C41.7255 110.647 40.8813 113.654 39.2968 116.281C37.7124 118.907 35.4467 121.056 32.74 122.5C33.7279 124.693 35.142 126.668 36.9 128.31C37.0223 128.427 37.0987 128.585 37.1152 128.753C37.1317 128.922 37.0873 129.091 36.99 129.23C36.9279 129.319 36.8459 129.393 36.7504 129.445C36.6549 129.497 36.5486 129.526 36.44 129.53V129.53ZM28.68 122.6C28.7933 122.601 28.9047 122.629 29.0054 122.681C29.1061 122.734 29.1932 122.808 29.26 122.9C30.3925 124.231 31.7456 125.358 33.26 126.23C32.383 125.053 31.6854 123.752 31.19 122.37C31.1417 122.207 31.1523 122.033 31.22 121.877C31.2877 121.722 31.4081 121.595 31.56 121.52C35.1143 119.8 37.8733 116.782 39.2684 113.088C40.6634 109.393 40.5881 105.305 39.058 101.665C37.5279 98.0246 34.6596 95.1101 31.0443 93.522C27.429 91.9339 23.3423 91.7932 19.6264 93.129C15.9105 94.4648 12.8486 97.1752 11.0719 100.702C9.29511 104.228 8.93891 108.302 10.0767 112.083C11.2144 115.864 13.7594 119.065 17.1871 121.025C20.6148 122.986 24.6639 123.556 28.5 122.62L28.68 122.6Z" fill="#D8B56E"></path><path d="M24.0002 113.27C23.7565 113.02 23.6201 112.684 23.6201 112.335C23.6201 111.986 23.7565 111.65 24.0002 111.4C24.1219 111.274 24.2681 111.175 24.4298 111.108C24.5915 111.041 24.7652 111.007 24.9402 111.01C25.1145 111.007 25.2876 111.038 25.4491 111.104C25.6107 111.169 25.7573 111.266 25.8802 111.39C26.0125 111.519 26.115 111.675 26.1807 111.848C26.2463 112.021 26.2735 112.206 26.2602 112.39C26.2646 112.564 26.2322 112.737 26.1649 112.897C26.0977 113.057 25.9973 113.201 25.8702 113.32C25.62 113.564 25.2845 113.7 24.9352 113.7C24.5859 113.7 24.2504 113.564 24.0002 113.32V113.27ZM23.7002 103.27H26.1702V109.84H23.6702L23.7002 103.27Z" fill="#D8B56E"></path><path d="M72.7002 67.1701H72.3602C72.355 67.1547 72.3458 67.141 72.3335 67.1305C72.3211 67.1199 72.3062 67.1129 72.2902 67.1101C72.268 67.11 72.2465 67.1181 72.2299 67.1328C72.2132 67.1476 72.2027 67.168 72.2002 67.1901C72.2002 67.2019 72.2025 67.2136 72.207 67.2246C72.2116 67.2355 72.2182 67.2454 72.2266 67.2537C72.2349 67.2621 72.2448 67.2687 72.2558 67.2733C72.2667 67.2778 72.2784 67.2801 72.2902 67.2801C72.3062 67.2773 72.3211 67.2703 72.3335 67.2598C72.3458 67.2492 72.355 67.2355 72.3602 67.2201H72.7002V67.1701Z" fill="#D8B56E"></path><path d="M72.2899 67.3701C72.2662 67.3701 72.2428 67.3654 72.221 67.3564C72.1991 67.3473 72.1793 67.3341 72.1626 67.3174C72.1459 67.3006 72.1326 67.2808 72.1236 67.259C72.1145 67.2371 72.1099 67.2137 72.1099 67.1901C72.1124 67.1441 72.1325 67.1008 72.166 67.0692C72.1995 67.0376 72.2438 67.02 72.2899 67.0201C72.3321 67.0063 72.3776 67.0063 72.4199 67.0201H72.6999C72.7156 67.0201 72.7312 67.0232 72.7458 67.0292C72.7603 67.0352 72.7736 67.0441 72.7847 67.0552C72.7959 67.0664 72.8047 67.0796 72.8107 67.0942C72.8168 67.1087 72.8199 67.1243 72.8199 67.1401C72.8212 67.1567 72.8192 67.1733 72.8138 67.1891C72.8084 67.2048 72.7997 67.2192 72.7885 67.2315C72.7772 67.2437 72.7635 67.2534 72.7482 67.2601C72.733 67.2667 72.7165 67.2701 72.6999 67.2701H72.4199C72.406 67.2946 72.3874 67.3161 72.365 67.3333C72.3427 67.3505 72.3171 67.363 72.2899 67.3701V67.3701Z" fill="#D8B56E"></path><path d="M72.2898 67.41C72.4113 67.41 72.5098 67.3115 72.5098 67.19C72.5098 67.0685 72.4113 66.97 72.2898 66.97C72.1683 66.97 72.0698 67.0685 72.0698 67.19C72.0698 67.3115 72.1683 67.41 72.2898 67.41Z" fill="#D8B56E"></path><path d="M72.2899 67.51C72.2439 67.5182 72.1966 67.5163 72.1513 67.5043C72.1061 67.4922 72.0641 67.4704 72.0282 67.4404C71.9923 67.4104 71.9634 67.3728 71.9436 67.3304C71.9238 67.288 71.9136 67.2418 71.9136 67.195C71.9136 67.1482 71.9238 67.102 71.9436 67.0596C71.9634 67.0172 71.9923 66.9796 72.0282 66.9496C72.0641 66.9196 72.1061 66.8978 72.1513 66.8858C72.1966 66.8737 72.2439 66.8718 72.2899 66.88C72.3638 66.8932 72.4308 66.932 72.479 66.9896C72.5272 67.0472 72.5536 67.1199 72.5536 67.195C72.5536 67.2701 72.5272 67.3428 72.479 67.4004C72.4308 67.458 72.3638 67.4968 72.2899 67.51V67.51ZM72.2899 67.07C72.2571 67.0699 72.2255 67.0822 72.2014 67.1045C72.1773 67.1267 72.1625 67.1573 72.1599 67.19C72.1599 67.2245 72.1736 67.2575 72.198 67.2819C72.2224 67.3063 72.2554 67.32 72.2899 67.32C72.3226 67.3175 72.3532 67.3027 72.3755 67.2786C72.3977 67.2545 72.41 67.2228 72.4099 67.19C72.4076 67.1589 72.3942 67.1297 72.3722 67.1077C72.3502 67.0857 72.321 67.0723 72.2899 67.07V67.07Z" fill="#D8B56E"></path><path d="M72.7002 67.79H72.3602C72.355 67.7746 72.3458 67.7609 72.3335 67.7503C72.3211 67.7398 72.3062 67.7327 72.2902 67.73C72.268 67.7298 72.2465 67.7379 72.2299 67.7527C72.2132 67.7675 72.2027 67.7879 72.2002 67.81C72.2002 67.8218 72.2025 67.8335 72.207 67.8444C72.2116 67.8553 72.2182 67.8653 72.2266 67.8736C72.2349 67.882 72.2448 67.8886 72.2558 67.8931C72.2667 67.8977 72.2784 67.9 72.2902 67.9C72.3062 67.8972 72.3211 67.8902 72.3335 67.8796C72.3458 67.8691 72.355 67.8554 72.3602 67.84H72.7002V67.79Z" fill="#D8B56E"></path><path d="M72.2899 68C72.2662 68 72.2428 67.9953 72.221 67.9863C72.1991 67.9772 72.1793 67.964 72.1626 67.9472C72.1459 67.9305 72.1326 67.9107 72.1236 67.8888C72.1145 67.867 72.1099 67.8436 72.1099 67.82C72.1124 67.774 72.1325 67.7307 72.166 67.6991C72.1995 67.6675 72.2438 67.6499 72.2899 67.65C72.3321 67.6362 72.3776 67.6362 72.4199 67.65H72.6999C72.7156 67.65 72.7312 67.6531 72.7458 67.6591C72.7603 67.6651 72.7736 67.674 72.7847 67.6851C72.7959 67.6963 72.8047 67.7095 72.8107 67.724C72.8168 67.7386 72.8199 67.7542 72.8199 67.77C72.8212 67.7865 72.8192 67.8032 72.8138 67.819C72.8084 67.8347 72.7997 67.8491 72.7885 67.8614C72.7772 67.8736 72.7635 67.8833 72.7482 67.89C72.733 67.8966 72.7165 67.9 72.6999 67.9H72.4199C72.406 67.9245 72.3874 67.946 72.365 67.9632C72.3427 67.9804 72.3171 67.9929 72.2899 68V68Z" fill="#D8B56E"></path><path d="M72.2898 68.0301C72.4113 68.0301 72.5098 67.9316 72.5098 67.8101C72.5098 67.6886 72.4113 67.5901 72.2898 67.5901C72.1683 67.5901 72.0698 67.6886 72.0698 67.8101C72.0698 67.9316 72.1683 68.0301 72.2898 68.0301Z" fill="#D8B56E"></path><path d="M72.2899 68.1301C72.2439 68.1384 72.1966 68.1364 72.1513 68.1244C72.1061 68.1123 72.0641 68.0905 72.0282 68.0605C71.9923 68.0305 71.9634 67.9929 71.9436 67.9505C71.9238 67.9081 71.9136 67.8619 71.9136 67.8151C71.9136 67.7683 71.9238 67.7221 71.9436 67.6797C71.9634 67.6373 71.9923 67.5998 72.0282 67.5697C72.0641 67.5397 72.1061 67.5179 72.1513 67.5059C72.1966 67.4938 72.2439 67.4919 72.2899 67.5001C72.3638 67.5133 72.4308 67.5521 72.479 67.6097C72.5272 67.6673 72.5536 67.74 72.5536 67.8151C72.5536 67.8902 72.5272 67.9629 72.479 68.0205C72.4308 68.0781 72.3638 68.1169 72.2899 68.1301V68.1301ZM72.2899 67.6901C72.2571 67.69 72.2255 67.7023 72.2014 67.7246C72.1773 67.7468 72.1625 67.7774 72.1599 67.8101C72.1599 67.8446 72.1736 67.8777 72.198 67.902C72.2224 67.9264 72.2554 67.9401 72.2899 67.9401C72.3226 67.9376 72.3532 67.9228 72.3755 67.8987C72.3977 67.8746 72.41 67.8429 72.4099 67.8101C72.4076 67.7791 72.3942 67.7499 72.3722 67.7278C72.3502 67.7058 72.321 67.6924 72.2899 67.6901V67.6901Z" fill="#D8B56E"></path><path d="M72.7002 68.4101H72.3602C72.355 68.3947 72.3458 68.381 72.3335 68.3705C72.3211 68.3599 72.3062 68.3529 72.2902 68.3501C72.268 68.35 72.2465 68.3581 72.2299 68.3728C72.2132 68.3876 72.2027 68.408 72.2002 68.4301C72.2002 68.4419 72.2025 68.4536 72.207 68.4645C72.2116 68.4755 72.2182 68.4854 72.2266 68.4937C72.2349 68.5021 72.2448 68.5087 72.2558 68.5132C72.2667 68.5178 72.2784 68.5201 72.2902 68.5201C72.3062 68.5173 72.3211 68.5103 72.3335 68.4997C72.3458 68.4892 72.355 68.4755 72.3602 68.4601H72.7002V68.4101Z" fill="#D8B56E"></path><path d="M72.2899 68.6101C72.2662 68.6101 72.2428 68.6054 72.221 68.5964C72.1991 68.5873 72.1793 68.5741 72.1626 68.5573C72.1459 68.5406 72.1326 68.5208 72.1236 68.499C72.1145 68.4771 72.1099 68.4537 72.1099 68.4301C72.1124 68.3841 72.1325 68.3408 72.166 68.3092C72.1995 68.2776 72.2438 68.26 72.2899 68.2601C72.3321 68.2463 72.3776 68.2463 72.4199 68.2601H72.6999C72.7156 68.2601 72.7312 68.2632 72.7458 68.2692C72.7603 68.2752 72.7736 68.2841 72.7847 68.2952C72.7959 68.3064 72.8047 68.3196 72.8107 68.3341C72.8168 68.3487 72.8199 68.3643 72.8199 68.3801C72.8212 68.3966 72.8192 68.4133 72.8138 68.4291C72.8084 68.4448 72.7997 68.4592 72.7885 68.4715C72.7772 68.4837 72.7635 68.4934 72.7482 68.5001C72.733 68.5067 72.7165 68.5101 72.6999 68.5101H72.4199C72.406 68.5346 72.3874 68.5561 72.365 68.5733C72.3427 68.5905 72.3171 68.603 72.2899 68.6101V68.6101Z" fill="#D8B56E"></path><path d="M72.2898 68.65C72.4113 68.65 72.5098 68.5515 72.5098 68.43C72.5098 68.3085 72.4113 68.21 72.2898 68.21C72.1683 68.21 72.0698 68.3085 72.0698 68.43C72.0698 68.5515 72.1683 68.65 72.2898 68.65Z" fill="#D8B56E"></path><path d="M72.2899 68.75C72.2439 68.7582 72.1966 68.7563 72.1513 68.7442C72.1061 68.7322 72.0641 68.7104 72.0282 68.6804C71.9923 68.6503 71.9634 68.6128 71.9436 68.5704C71.9238 68.528 71.9136 68.4818 71.9136 68.435C71.9136 68.3882 71.9238 68.342 71.9436 68.2996C71.9634 68.2572 71.9923 68.2196 72.0282 68.1896C72.0641 68.1596 72.1061 68.1378 72.1513 68.1257C72.1966 68.1137 72.2439 68.1118 72.2899 68.12C72.3638 68.1332 72.4308 68.172 72.479 68.2296C72.5272 68.2872 72.5536 68.3599 72.5536 68.435C72.5536 68.5101 72.5272 68.5828 72.479 68.6404C72.4308 68.698 72.3638 68.7368 72.2899 68.75V68.75ZM72.2899 68.31C72.2571 68.3099 72.2255 68.3222 72.2014 68.3445C72.1773 68.3667 72.1625 68.3973 72.1599 68.43C72.1599 68.4645 72.1736 68.4975 72.198 68.5219C72.2224 68.5463 72.2554 68.56 72.2899 68.56C72.3226 68.5575 72.3532 68.5427 72.3755 68.5186C72.3977 68.4944 72.41 68.4628 72.4099 68.43C72.4076 68.3989 72.3942 68.3697 72.3722 68.3477C72.3502 68.3257 72.321 68.3123 72.2899 68.31V68.31Z" fill="#D8B56E"></path><path d="M72.7002 68.9999H72.3602C72.355 68.9846 72.3458 68.9709 72.3335 68.9603C72.3211 68.9497 72.3062 68.9427 72.2902 68.9399C72.268 68.9398 72.2465 68.9479 72.2299 68.9627C72.2132 68.9774 72.2027 68.9978 72.2002 69.0199C72.2002 69.0318 72.2025 69.0435 72.207 69.0544C72.2116 69.0653 72.2182 69.0752 72.2266 69.0836C72.2349 69.0919 72.2448 69.0986 72.2558 69.1031C72.2667 69.1076 72.2784 69.1099 72.2902 69.1099C72.3062 69.1072 72.3211 69.1001 72.3335 69.0896C72.3458 69.079 72.355 69.0653 72.3602 69.0499H72.7002V68.9999Z" fill="#D8B56E"></path><path d="M72.2899 69.2299C72.2662 69.2299 72.2428 69.2252 72.221 69.2162C72.1991 69.2071 72.1793 69.1939 72.1626 69.1772C72.1459 69.1604 72.1326 69.1406 72.1236 69.1188C72.1145 69.0969 72.1099 69.0735 72.1099 69.0499C72.1124 69.0039 72.1325 68.9606 72.166 68.929C72.1995 68.8974 72.2438 68.8798 72.2899 68.8799C72.3376 68.8813 72.3835 68.8989 72.4199 68.9299H72.6999C72.7156 68.9299 72.7312 68.933 72.7458 68.939C72.7603 68.945 72.7736 68.9539 72.7847 68.965C72.7959 68.9762 72.8047 68.9894 72.8107 69.004C72.8168 69.0185 72.8199 69.0341 72.8199 69.0499C72.8212 69.0665 72.8192 69.0832 72.8138 69.0989C72.8084 69.1146 72.7997 69.1291 72.7885 69.1413C72.7772 69.1535 72.7635 69.1633 72.7482 69.1699C72.733 69.1765 72.7165 69.1799 72.6999 69.1799H72.4199C72.3835 69.2109 72.3376 69.2285 72.2899 69.2299V69.2299Z" fill="#D8B56E"></path><path d="M72.2898 69.2701C72.4113 69.2701 72.5098 69.1716 72.5098 69.0501C72.5098 68.9286 72.4113 68.8301 72.2898 68.8301C72.1683 68.8301 72.0698 68.9286 72.0698 69.0501C72.0698 69.1716 72.1683 69.2701 72.2898 69.2701Z" fill="#D8B56E"></path><path d="M72.2899 69.3701C72.2439 69.3784 72.1966 69.3764 72.1513 69.3644C72.1061 69.3523 72.0641 69.3305 72.0282 69.3005C71.9923 69.2705 71.9634 69.2329 71.9436 69.1905C71.9238 69.1481 71.9136 69.1019 71.9136 69.0551C71.9136 69.0083 71.9238 68.9621 71.9436 68.9197C71.9634 68.8773 71.9923 68.8398 72.0282 68.8097C72.0641 68.7797 72.1061 68.7579 72.1513 68.7459C72.1966 68.7338 72.2439 68.7319 72.2899 68.7401C72.3638 68.7533 72.4308 68.7921 72.479 68.8497C72.5272 68.9073 72.5536 68.98 72.5536 69.0551C72.5536 69.1302 72.5272 69.2029 72.479 69.2605C72.4308 69.3181 72.3638 69.3569 72.2899 69.3701ZM72.2899 68.9301C72.2571 68.93 72.2255 68.9423 72.2014 68.9646C72.1773 68.9868 72.1625 69.0174 72.1599 69.0501C72.1599 69.0846 72.1736 69.1177 72.198 69.142C72.2224 69.1664 72.2554 69.1801 72.2899 69.1801C72.3226 69.1776 72.3532 69.1628 72.3755 69.1387C72.3977 69.1146 72.41 69.0829 72.4099 69.0501C72.4076 69.0191 72.3942 68.9899 72.3722 68.9678C72.3502 68.9458 72.321 68.9324 72.2899 68.9301V68.9301Z" fill="#D8B56E"></path><path d="M52.3701 67.1701H52.7101C52.7153 67.1547 52.7245 67.141 52.7369 67.1305C52.7492 67.1199 52.7641 67.1129 52.7801 67.1101C52.8024 67.11 52.8239 67.1181 52.8405 67.1328C52.8571 67.1476 52.8676 67.168 52.8701 67.1901C52.8701 67.214 52.8606 67.2369 52.8438 67.2537C52.8269 67.2706 52.804 67.2801 52.7801 67.2801C52.7641 67.2773 52.7492 67.2703 52.7369 67.2598C52.7245 67.2492 52.7153 67.2355 52.7101 67.2201H52.3701V67.1701Z" fill="#D8B56E"></path><path d="M52.78 67.3699C52.7322 67.3685 52.6864 67.3509 52.65 67.3199H52.37C52.3373 67.3174 52.3067 67.3026 52.2845 67.2784C52.2622 67.2543 52.2499 67.2227 52.25 67.1899C52.2523 67.1588 52.2657 67.1296 52.2877 67.1076C52.3097 67.0856 52.3389 67.0722 52.37 67.0699H52.65C52.6922 67.0561 52.7378 67.0561 52.78 67.0699C52.8261 67.0698 52.8704 67.0874 52.9039 67.119C52.9374 67.1506 52.9574 67.1939 52.96 67.2399C52.9489 67.2786 52.9251 67.3124 52.8924 67.3359C52.8598 67.3595 52.8202 67.3715 52.78 67.3699V67.3699Z" fill="#D8B56E"></path><path d="M52.7801 67.41C52.9016 67.41 53.0001 67.3115 53.0001 67.19C53.0001 67.0685 52.9016 66.97 52.7801 66.97C52.6586 66.97 52.5601 67.0685 52.5601 67.19C52.5601 67.3115 52.6586 67.41 52.7801 67.41Z" fill="#D8B56E"></path><path d="M52.78 67.5101C52.7167 67.5101 52.6548 67.4913 52.6022 67.4562C52.5496 67.421 52.5085 67.371 52.4843 67.3126C52.4601 67.2541 52.4538 67.1898 52.4661 67.1277C52.4785 67.0656 52.5089 67.0086 52.5537 66.9638C52.5984 66.9191 52.6555 66.8886 52.7175 66.8763C52.7796 66.8639 52.8439 66.8703 52.9024 66.8945C52.9609 66.9187 53.0109 66.9597 53.046 67.0123C53.0812 67.065 53.1 67.1268 53.1 67.1901C53.1014 67.2325 53.094 67.2747 53.0784 67.3142C53.0628 67.3537 53.0393 67.3895 53.0093 67.4195C52.9793 67.4495 52.9435 67.473 52.904 67.4886C52.8646 67.5042 52.8224 67.5115 52.78 67.5101V67.5101ZM52.78 67.0701C52.7489 67.0724 52.7197 67.0858 52.6977 67.1078C52.6757 67.1299 52.6623 67.1591 52.66 67.1901C52.6599 67.2229 52.6722 67.2546 52.6944 67.2787C52.7167 67.3028 52.7472 67.3176 52.78 67.3201C52.8144 67.3201 52.8475 67.3064 52.8719 67.282C52.8963 67.2577 52.91 67.2246 52.91 67.1901C52.9074 67.1574 52.8926 67.1268 52.8685 67.1046C52.8444 67.0823 52.8128 67.07 52.78 67.0701V67.0701Z" fill="#D8B56E"></path><path d="M52.3701 67.79H52.7101C52.7153 67.7746 52.7245 67.7609 52.7369 67.7503C52.7492 67.7398 52.7641 67.7327 52.7801 67.73C52.8024 67.7298 52.8239 67.7379 52.8405 67.7527C52.8571 67.7675 52.8676 67.7879 52.8701 67.81C52.8701 67.8338 52.8606 67.8567 52.8438 67.8736C52.8269 67.8905 52.804 67.9 52.7801 67.9C52.7641 67.8972 52.7492 67.8902 52.7369 67.8796C52.7245 67.8691 52.7153 67.8554 52.7101 67.84H52.3701V67.79Z" fill="#D8B56E"></path><path d="M52.78 68.0001C52.7378 68.0138 52.6922 68.0138 52.65 68.0001H52.37C52.3373 67.9975 52.3067 67.9827 52.2845 67.9586C52.2622 67.9345 52.2499 67.9029 52.25 67.8701C52.2523 67.839 52.2657 67.8098 52.2877 67.7878C52.3097 67.7658 52.3389 67.7524 52.37 67.7501H52.65C52.6922 67.7363 52.7378 67.7363 52.78 67.7501C52.8261 67.75 52.8704 67.7676 52.9039 67.7992C52.9374 67.8308 52.9574 67.8741 52.96 67.9201C52.941 67.9494 52.9139 67.9727 52.8819 67.9869C52.8499 68.0011 52.8145 68.0057 52.78 68.0001Z" fill="#D8B56E"></path><path d="M52.7801 68.0301C52.9016 68.0301 53.0001 67.9316 53.0001 67.8101C53.0001 67.6886 52.9016 67.5901 52.7801 67.5901C52.6586 67.5901 52.5601 67.6886 52.5601 67.8101C52.5601 67.9316 52.6586 68.0301 52.7801 68.0301Z" fill="#D8B56E"></path><path d="M52.78 68.13C52.7167 68.13 52.6548 68.1112 52.6022 68.0761C52.5496 68.0409 52.5085 67.9909 52.4843 67.9324C52.4601 67.874 52.4538 67.8096 52.4661 67.7476C52.4785 67.6855 52.5089 67.6285 52.5537 67.5837C52.5984 67.539 52.6555 67.5085 52.7175 67.4961C52.7796 67.4838 52.8439 67.4901 52.9024 67.5144C52.9609 67.5386 53.0109 67.5796 53.046 67.6322C53.0812 67.6848 53.1 67.7467 53.1 67.81C53.1014 67.8524 53.094 67.8946 53.0784 67.9341C53.0628 67.9735 53.0393 68.0094 53.0093 68.0394C52.9793 68.0694 52.9435 68.0929 52.904 68.1085C52.8646 68.1241 52.8224 68.1314 52.78 68.13V68.13ZM52.78 67.69C52.7489 67.6923 52.7197 67.7057 52.6977 67.7277C52.6757 67.7497 52.6623 67.7789 52.66 67.81C52.6599 67.8428 52.6722 67.8744 52.6944 67.8986C52.7167 67.9227 52.7472 67.9375 52.78 67.94C52.8144 67.94 52.8475 67.9263 52.8719 67.9019C52.8963 67.8775 52.91 67.8445 52.91 67.81C52.9074 67.7773 52.8926 67.7467 52.8685 67.7245C52.8444 67.7022 52.8128 67.6899 52.78 67.69V67.69Z" fill="#D8B56E"></path><path d="M52.3701 68.4101H52.7101C52.7153 68.3947 52.7245 68.381 52.7369 68.3705C52.7492 68.3599 52.7641 68.3529 52.7801 68.3501C52.8024 68.35 52.8239 68.3581 52.8405 68.3728C52.8571 68.3876 52.8676 68.408 52.8701 68.4301C52.8701 68.454 52.8606 68.4769 52.8438 68.4937C52.8269 68.5106 52.804 68.5201 52.7801 68.5201C52.7641 68.5173 52.7492 68.5103 52.7369 68.4997C52.7245 68.4892 52.7153 68.4755 52.7101 68.4601H52.3701V68.4101Z" fill="#D8B56E"></path><path d="M52.78 68.6099C52.7378 68.6237 52.6922 68.6237 52.65 68.6099H52.37C52.3373 68.6074 52.3067 68.5926 52.2845 68.5685C52.2622 68.5444 52.2499 68.5127 52.25 68.4799C52.2523 68.4489 52.2657 68.4197 52.2877 68.3976C52.3097 68.3756 52.3389 68.3622 52.37 68.3599H52.65C52.6922 68.3462 52.7378 68.3462 52.78 68.3599C52.8261 68.3599 52.8704 68.3774 52.9039 68.4091C52.9374 68.4407 52.9574 68.4839 52.96 68.5299C52.941 68.5593 52.9139 68.5825 52.8819 68.5967C52.8499 68.6109 52.8145 68.6155 52.78 68.6099Z" fill="#D8B56E"></path><path d="M52.7801 68.65C52.9016 68.65 53.0001 68.5515 53.0001 68.43C53.0001 68.3085 52.9016 68.21 52.7801 68.21C52.6586 68.21 52.5601 68.3085 52.5601 68.43C52.5601 68.5515 52.6586 68.65 52.7801 68.65Z" fill="#D8B56E"></path><path d="M52.78 68.7501C52.7167 68.7501 52.6548 68.7313 52.6022 68.6962C52.5496 68.661 52.5085 68.611 52.4843 68.5526C52.4601 68.4941 52.4538 68.4297 52.4661 68.3677C52.4785 68.3056 52.5089 68.2486 52.5537 68.2038C52.5984 68.1591 52.6555 68.1286 52.7175 68.1163C52.7796 68.1039 52.8439 68.1102 52.9024 68.1345C52.9609 68.1587 53.0109 68.1997 53.046 68.2523C53.0812 68.3049 53.1 68.3668 53.1 68.4301C53.1014 68.4725 53.094 68.5147 53.0784 68.5542C53.0628 68.5936 53.0393 68.6295 53.0093 68.6595C52.9793 68.6895 52.9435 68.713 52.904 68.7286C52.8646 68.7442 52.8224 68.7515 52.78 68.7501V68.7501ZM52.78 68.3101C52.7489 68.3124 52.7197 68.3258 52.6977 68.3478C52.6757 68.3698 52.6623 68.399 52.66 68.4301C52.6599 68.4629 52.6722 68.4946 52.6944 68.5187C52.7167 68.5428 52.7472 68.5576 52.78 68.5601C52.8144 68.5601 52.8475 68.5464 52.8719 68.522C52.8963 68.4977 52.91 68.4646 52.91 68.4301C52.9074 68.3974 52.8926 68.3668 52.8685 68.3446C52.8444 68.3223 52.8128 68.31 52.78 68.3101V68.3101Z" fill="#D8B56E"></path><path d="M52.3701 68.9999H52.7101C52.7153 68.9846 52.7245 68.9709 52.7369 68.9603C52.7492 68.9497 52.7641 68.9427 52.7801 68.9399C52.8024 68.9398 52.8239 68.9479 52.8405 68.9627C52.8571 68.9774 52.8676 68.9978 52.8701 69.0199C52.8701 69.0438 52.8606 69.0667 52.8438 69.0836C52.8269 69.1005 52.804 69.1099 52.7801 69.1099C52.7641 69.1072 52.7492 69.1001 52.7369 69.0896C52.7245 69.079 52.7153 69.0653 52.7101 69.0499H52.3701V68.9999Z" fill="#D8B56E"></path><path d="M52.78 69.2299C52.7378 69.2437 52.6922 69.2437 52.65 69.2299H52.37C52.3373 69.2274 52.3067 69.2126 52.2845 69.1885C52.2622 69.1644 52.2499 69.1327 52.25 69.0999C52.2523 69.0689 52.2657 69.0397 52.2877 69.0176C52.3097 68.9956 52.3389 68.9822 52.37 68.9799H52.65C52.6864 68.949 52.7322 68.9313 52.78 68.9299C52.8261 68.9299 52.8704 68.9474 52.9039 68.9791C52.9374 69.0107 52.9574 69.0539 52.96 69.0999C52.9489 69.1386 52.9251 69.1724 52.8924 69.196C52.8598 69.2196 52.8202 69.2315 52.78 69.2299V69.2299Z" fill="#D8B56E"></path><path d="M52.7801 69.2701C52.9016 69.2701 53.0001 69.1716 53.0001 69.0501C53.0001 68.9286 52.9016 68.8301 52.7801 68.8301C52.6586 68.8301 52.5601 68.9286 52.5601 69.0501C52.5601 69.1716 52.6586 69.2701 52.7801 69.2701Z" fill="#D8B56E"></path><path d="M52.78 69.37C52.7167 69.37 52.6548 69.3512 52.6022 69.3161C52.5496 69.2809 52.5085 69.2309 52.4843 69.1724C52.4601 69.114 52.4538 69.0496 52.4661 68.9876C52.4785 68.9255 52.5089 68.8685 52.5537 68.8237C52.5984 68.779 52.6555 68.7485 52.7175 68.7361C52.7796 68.7238 52.8439 68.7301 52.9024 68.7543C52.9609 68.7786 53.0109 68.8196 53.046 68.8722C53.0812 68.9248 53.1 68.9867 53.1 69.05C53.1014 69.0924 53.094 69.1346 53.0784 69.1741C53.0628 69.2135 53.0393 69.2494 53.0093 69.2794C52.9793 69.3094 52.9435 69.3329 52.904 69.3485C52.8646 69.3641 52.8224 69.3714 52.78 69.37V69.37ZM52.78 68.93C52.7489 68.9323 52.7197 68.9457 52.6977 68.9677C52.6757 68.9897 52.6623 69.0189 52.66 69.05C52.6599 69.0828 52.6722 69.1144 52.6944 69.1385C52.7167 69.1627 52.7472 69.1775 52.78 69.18C52.8144 69.18 52.8475 69.1663 52.8719 69.1419C52.8963 69.1175 52.91 69.0845 52.91 69.05C52.9074 69.0173 52.8926 68.9867 52.8685 68.9645C52.8444 68.9422 52.8128 68.9299 52.78 68.93V68.93Z" fill="#D8B56E"></path><path d="M65.0002 41.6199C64.2794 41.078 63.402 40.7849 62.5002 40.7849C61.5984 40.7849 60.721 41.078 60.0002 41.6199C59.1702 42.4499 59.2902 42.7999 59.2902 42.7999L59.6402 43.0399C59.877 42.8214 60.161 42.6605 60.4702 42.5699C61.7847 42.2533 63.1557 42.2533 64.4702 42.5699C64.7772 42.6588 65.0584 42.82 65.2902 43.0399L65.6502 42.7999C65.6502 42.7999 65.8402 42.4499 65.0002 41.6199Z" fill="#D8B56E"></path><path d="M65.3602 43.2299C65.3182 43.2452 65.2722 43.2452 65.2302 43.2299C65.0195 43.0322 64.7664 42.8851 64.4902 42.7999C63.1981 42.4933 61.8523 42.4933 60.5602 42.7999C60.2852 42.8809 60.0344 43.0286 59.8302 43.2299C59.794 43.2567 59.7502 43.2712 59.7052 43.2712C59.6602 43.2712 59.6164 43.2567 59.5802 43.2299L59.2302 42.9999C59.1938 42.9757 59.1658 42.9408 59.1502 42.8999C59.1502 42.7999 59.0602 42.3699 59.9102 41.5299C60.2657 41.2147 60.6806 40.9736 61.1305 40.8208C61.5804 40.6679 62.0562 40.6065 62.5302 40.6399C63.0027 40.6055 63.4773 40.6666 63.9257 40.8195C64.3741 40.9724 64.7871 41.214 65.1402 41.5299C65.9902 42.3699 65.9302 42.7999 65.9002 42.8999C65.8958 42.9218 65.8862 42.9422 65.8723 42.9596C65.8584 42.977 65.8405 42.9908 65.8202 42.9999L65.4702 43.2399C65.4333 43.247 65.3952 43.2435 65.3602 43.2299V43.2299ZM62.5302 42.1399C63.2033 42.1524 63.8733 42.2328 64.5302 42.3799C64.8241 42.4605 65.097 42.6038 65.3302 42.7999L65.4802 42.6999C65.3514 42.3316 65.1229 42.0062 64.8202 41.7599C64.138 41.2662 63.3173 41.0004 62.4752 41.0004C61.6331 41.0004 60.8124 41.2662 60.1302 41.7599C59.8267 42.0034 59.6008 42.33 59.4802 42.6999L59.6202 42.7999C59.8548 42.6058 60.1272 42.4628 60.4202 42.3799C61.1131 42.2256 61.8204 42.1452 62.5302 42.1399V42.1399Z" fill="#D8B56E"></path><path d="M53.3001 70.4101C52.8528 70.4215 52.4086 70.3326 52.0001 70.1501C51.9725 70.1392 51.948 70.1216 51.9288 70.0989C51.9096 70.0763 51.8963 70.0492 51.8901 70.0201C51.5201 68.0201 51.8901 56.5901 52.1301 53.0701C52.365 50.1968 52.7993 47.3432 53.4301 44.5301C53.4451 44.4808 53.477 44.4383 53.5201 44.4101C53.5717 44.391 53.6285 44.391 53.6801 44.4101C53.8601 44.4101 54.0701 44.4801 54.9701 46.0401C56.2701 48.1901 55.9701 53.4801 55.9701 53.7101L55.0001 69.7601C54.9982 69.7905 54.9891 69.82 54.9734 69.8461C54.9577 69.8722 54.936 69.8942 54.9101 69.9101C54.4151 70.1893 53.8662 70.3597 53.3001 70.4101V70.4101ZM52.3001 69.8501C52.6204 69.9681 52.9588 70.029 53.3001 70.0301C53.7757 69.9896 54.2383 69.8535 54.6601 69.6301L55.5901 53.6301C55.5901 53.6301 55.9201 48.2401 54.6801 46.1801C54.4301 45.7041 54.1319 45.2551 53.7901 44.8401C53.1836 47.5508 52.7692 50.301 52.5501 53.0701C52.3101 57.0001 52.0001 67.7501 52.2901 69.8501H52.3001Z" fill="#D8B56E"></path><path d="M55.8202 55.1099V53.6799C55.8202 53.6799 56.1702 48.2499 54.8802 46.1199C53.9402 44.4899 53.8002 44.6199 53.7002 44.5899L59.9702 42.3799C59.1702 42.9299 63.1502 57.7099 63.1502 58.1699V63.7299C63.1502 65.8499 62.6602 72.2899 59.2302 72.1799C58.2346 72.1394 57.2664 71.8419 56.42 71.3161C55.5736 70.7904 54.8777 70.0544 54.4002 69.1799C54.4002 69.1799 55.0402 65.1799 55.9802 59.2899C56.0744 57.8948 56.0207 56.4937 55.8202 55.1099V55.1099Z" fill="#D8B56E"></path><path d="M59.2698 72.3701H59.1698C58.1413 72.3272 57.1411 72.0204 56.2655 71.4793C55.3898 70.9381 54.6681 70.1808 54.1698 69.2801C54.1624 69.2627 54.1585 69.244 54.1585 69.2251C54.1585 69.2062 54.1624 69.1875 54.1698 69.1701C54.1698 69.1701 54.8098 65.1701 55.7498 59.2801C55.8648 58.0647 55.8413 56.8402 55.6798 55.6301V55.1301L55.6298 53.7001C55.6298 53.6301 55.9598 48.2901 54.7198 46.2301C54.0098 45.0101 53.7798 44.8001 53.7198 44.7901H53.6598C53.622 44.7775 53.5891 44.7533 53.5658 44.721C53.5424 44.6887 53.5298 44.6499 53.5298 44.6101C53.5297 44.5703 53.541 44.5313 53.5622 44.4977C53.5835 44.464 53.6138 44.4371 53.6498 44.4201L59.9298 42.2201C59.9724 42.2029 60.0199 42.2027 60.0627 42.2194C60.1054 42.2361 60.1402 42.2686 60.1598 42.3101C60.1824 42.3502 60.1887 42.3974 60.1776 42.442C60.1664 42.4867 60.1386 42.5253 60.0998 42.5501C59.6998 43.2001 61.8098 51.7501 62.7098 55.4001C63.1998 57.4001 63.3598 58.0601 63.3598 58.1901V63.7501C63.3598 64.3401 63.2998 69.5901 61.2098 71.6101C60.9559 71.8632 60.6527 72.0613 60.3189 72.1921C59.9851 72.3228 59.628 72.3834 59.2698 72.3701ZM54.5498 69.1601C55.0188 69.9882 55.6908 70.6833 56.5025 71.1801C57.3142 71.677 58.239 71.9591 59.1898 72.0001C59.5024 72.0109 59.814 71.9569 60.1048 71.8416C60.3956 71.7263 60.6595 71.5522 60.8798 71.3301C62.4798 69.7801 62.8798 65.8301 62.8798 63.7501V58.1701C62.8798 58.0401 62.5798 56.8501 62.2398 55.4701C60.2398 47.5401 59.5198 43.8901 59.6198 42.6801L54.0498 44.6801C54.4081 45.0886 54.7262 45.5306 54.9998 46.0001C56.2998 48.1501 55.9998 53.4401 55.9998 53.6701V55.0701V55.5701C56.1616 56.8103 56.1851 58.0647 56.0698 59.3101C55.2498 64.8501 54.6298 68.6401 54.5498 69.1601V69.1601Z" fill="#D8B56E"></path><path d="M57.9102 44.46L58.5402 45.19L60.0602 44.5C59.8702 43.17 59.8902 41.92 60.4702 41.3C59.3932 42.1507 58.5188 43.23 57.9102 44.46V44.46Z" fill="#D8B56E"></path><path d="M58.5401 45.3799C58.5123 45.3809 58.4846 45.376 58.4588 45.3657C58.4329 45.3554 58.4095 45.3398 58.3901 45.3199L57.7701 44.5799C57.7503 44.5503 57.7397 44.5155 57.7397 44.4799C57.7397 44.4443 57.7503 44.4095 57.7701 44.3799C58.3301 43.1099 60.1701 41.0199 60.5401 41.0999C60.5857 41.1151 60.6251 41.1449 60.6521 41.1846C60.6792 41.2244 60.6926 41.2719 60.6901 41.3199C60.6994 41.356 60.6994 41.3938 60.6901 41.4299C60.2301 41.9199 60.1101 42.9499 60.3301 44.4299C60.3337 44.4717 60.3253 44.5138 60.3058 44.551C60.2863 44.5882 60.2566 44.619 60.2201 44.6399L58.7001 45.3299L58.5401 45.3799ZM58.1401 44.3799L58.5901 44.9099L59.8501 44.3399C59.7056 43.5666 59.7056 42.7732 59.8501 41.9999C59.1641 42.7217 58.5879 43.5405 58.1401 44.4299V44.3799Z" fill="#D8B56E"></path><path d="M63.1101 58.83C62.9101 57.73 59.6201 50.45 57.5601 45.64L58.6901 45.13L60.0601 44.5C60.6301 47.84 61.8101 52.85 63.0601 58.17L63.1101 58.83Z" fill="#D8B56E"></path><path d="M63.11 58.9999C63.0644 59.0005 63.0201 58.9846 62.9852 58.9553C62.9503 58.9259 62.9272 58.8849 62.92 58.8399C62.79 58.0799 61.04 54.0799 59.35 50.2199C58.66 48.6399 57.97 47.0699 57.35 45.6999C57.3401 45.6769 57.3348 45.6522 57.3345 45.6272C57.3342 45.6022 57.3388 45.5774 57.3481 45.5541C57.3574 45.5309 57.3711 45.5097 57.3886 45.4919C57.4061 45.474 57.427 45.4597 57.45 45.4499L60 44.3299C60.0258 44.315 60.0551 44.3071 60.085 44.3071C60.1148 44.3071 60.1441 44.315 60.17 44.3299C60.1956 44.3449 60.2178 44.3651 60.235 44.3892C60.2522 44.4133 60.2642 44.4408 60.27 44.4699C60.85 47.8699 62.08 53.0399 63.27 58.1199V58.8299C63.2703 58.877 63.253 58.9225 63.2216 58.9576C63.1902 58.9928 63.1468 59.0149 63.1 59.0199L63.11 58.9999ZM57.81 45.7199C58.38 47.0499 59.04 48.5599 59.7 50.0599C60.82 52.6399 61.91 55.1199 62.59 56.7999C61.5 52.3199 60.46 47.8599 59.91 44.7999L57.81 45.7199Z" fill="#D8B56E"></path><path d="M71.74 70.41C71.1667 70.3643 70.6103 70.1937 70.11 69.91C70.0841 69.8941 70.0623 69.8721 70.0467 69.846C70.031 69.8199 70.0219 69.7904 70.02 69.76L69.02 53.69C69.02 53.46 68.68 48.17 70.02 46.01C70.92 44.46 71.13 44.42 71.31 44.4C71.3331 44.3878 71.3588 44.3813 71.385 44.3813C71.4111 44.3813 71.4369 44.3878 71.46 44.4C71.4827 44.4124 71.5025 44.4295 71.5181 44.4502C71.5336 44.4709 71.5445 44.4947 71.55 44.52C72.192 47.3314 72.6298 50.1855 72.86 53.06C73.08 56.58 73.47 68.01 73.09 70.01C73.0856 70.0384 73.0742 70.0651 73.0567 70.0879C73.0392 70.1106 73.0163 70.1285 72.99 70.14C72.5976 70.3188 72.1712 70.4109 71.74 70.41V70.41ZM70.39 69.63C70.8081 69.8537 71.2675 69.9898 71.74 70.03C72.0814 70.03 72.42 69.969 72.74 69.85C73.06 67.74 72.74 56.98 72.49 53.1C72.2709 50.3309 71.8565 47.5807 71.25 44.87C70.9045 45.2822 70.6059 45.7317 70.36 46.21C69.11 48.27 69.44 53.61 69.44 53.66L70.39 69.63Z" fill="#D8B56E"></path><path d="M69.2199 55.1099V53.6799C69.2199 53.6799 68.8699 48.2499 70.1699 46.1199C71.1099 44.4899 71.2399 44.6199 71.3499 44.5899L65.0699 42.3799C65.8699 42.9299 61.8999 57.7099 61.8999 58.1699V63.7299C61.8999 65.8499 62.3899 72.2899 65.8199 72.1799C66.815 72.1375 67.7824 71.8391 68.6285 71.3136C69.4746 70.7881 70.1709 70.0531 70.6499 69.1799C70.6499 69.1799 70.0099 65.1799 69.0599 59.2899C68.9658 57.8948 69.0194 56.4937 69.2199 55.1099V55.1099Z" fill="#D8B56E"></path><path d="M65.7702 72.3701C65.4221 72.3724 65.0771 72.3045 64.7558 72.1705C64.4345 72.0365 64.1435 71.8391 63.9002 71.5901C61.8102 69.5901 61.7402 64.3201 61.7402 63.7301V58.1701C61.7402 58.0401 61.9002 57.3801 62.4002 55.3801C63.3002 51.7301 65.4002 43.1801 64.9902 42.5201C64.9532 42.4938 64.9268 42.4552 64.9158 42.4112C64.9048 42.3672 64.9099 42.3206 64.9302 42.2801C64.9578 42.2416 64.997 42.2131 65.042 42.1987C65.087 42.1843 65.1355 42.1848 65.1802 42.2001L71.4502 44.4001C71.488 44.4156 71.5205 44.4419 71.5436 44.4757C71.5667 44.5094 71.5794 44.5492 71.5802 44.5901C71.5802 44.6299 71.5676 44.6687 71.5443 44.701C71.5209 44.7333 71.488 44.7575 71.4502 44.7701H71.3902C71.3102 44.7701 71.0702 44.9901 70.3902 46.2101C69.1402 48.2701 69.4702 53.6101 69.4702 53.6601V55.1101V55.6101C69.3057 56.8198 69.2789 58.0443 69.3902 59.2601C70.3402 65.2001 70.9802 69.1501 70.9802 69.1501C70.9905 69.186 70.9905 69.2241 70.9802 69.2601C70.4819 70.1608 69.7602 70.9181 68.8845 71.4593C68.0089 72.0004 67.0087 72.3072 65.9802 72.3501L65.7702 72.3701ZM65.3902 42.6801C65.4902 43.8901 64.7302 47.5401 62.7702 55.4701C62.4302 56.8501 62.1402 58.0401 62.1302 58.1801V63.7301C62.1302 65.8101 62.5602 69.7301 64.1302 71.3101C64.3491 71.5342 64.6127 71.7097 64.9039 71.8251C65.195 71.9405 65.5073 71.9933 65.8202 71.9801C66.7691 71.9412 67.6926 71.662 68.5041 71.1688C69.3157 70.6756 69.9887 69.9844 70.4602 69.1601C70.3702 68.6401 69.7602 64.8501 68.8902 59.3401C68.783 58.0933 68.8199 56.8384 69.0002 55.6001V55.1001V53.6801C69.0002 53.4701 68.6602 48.1801 70.0002 46.0201C70.2835 45.5258 70.6187 45.0631 71.0002 44.6401L65.3902 42.6801Z" fill="#D8B56E"></path><path d="M57.3299 63.3601C56.632 63.2789 55.9544 63.0723 55.3299 62.7501L55.1899 62.6901L55.5799 60.8301L58.4599 61.7101V61.8601C58.4599 61.8601 58.3799 63.0301 57.6799 63.3101C57.5665 63.3445 57.4485 63.3614 57.3299 63.3601V63.3601ZM55.6299 62.4701C56.2086 62.7979 56.865 62.9638 57.5299 62.9501C57.8599 62.8201 57.9999 62.3001 58.0499 61.9501L55.8699 61.2801L55.6299 62.4701Z" fill="#D8B56E"></path><path d="M67.1298 44.46L66.5098 45.19L64.9998 44.5C65.1898 43.17 65.1698 41.92 64.5898 41.3C65.6619 42.1504 66.5298 43.2302 67.1298 44.46V44.46Z" fill="#D8B56E"></path><path d="M66.5099 45.38H66.4299L64.9099 44.69C64.8716 44.6713 64.8402 44.6409 64.8205 44.6031C64.8007 44.5653 64.7935 44.5222 64.7999 44.48C65.0199 42.96 64.8999 41.93 64.4399 41.48C64.4269 41.4445 64.4269 41.4055 64.4399 41.37C64.4374 41.322 64.4508 41.2745 64.4779 41.2348C64.5049 41.195 64.5443 41.1653 64.5899 41.15C64.9499 41.06 66.7999 43.15 67.3599 44.43C67.3797 44.4596 67.3903 44.4944 67.3903 44.53C67.3903 44.5656 67.3797 44.6004 67.3599 44.63L66.7299 45.37C66.6995 45.3958 66.6614 45.4108 66.6216 45.4126C66.5818 45.4144 66.5425 45.403 66.5099 45.38ZM65.1999 44.38L66.4599 44.95L66.9099 44.42C66.4488 43.5437 65.8589 42.7415 65.1599 42.04C65.3196 42.814 65.3332 43.611 65.1999 44.39V44.38Z" fill="#D8B56E"></path><path d="M67.71 63.3601C67.5973 63.3776 67.4826 63.3776 67.37 63.3601C66.66 63.0701 66.65 61.9301 66.65 61.8801C66.6489 61.8386 66.6623 61.7979 66.6878 61.7651C66.7133 61.7323 66.7494 61.7093 66.79 61.7001L69.32 60.9201C69.3448 60.9078 69.3722 60.9014 69.4 60.9014C69.4277 60.9014 69.4551 60.9078 69.48 60.9201C69.503 60.9345 69.5229 60.9535 69.5383 60.9758C69.5538 60.9982 69.5646 61.0235 69.57 61.0501L69.81 62.5801C69.8183 62.6199 69.8129 62.6612 69.7948 62.6975C69.7766 62.7338 69.7467 62.7629 69.71 62.7801C69.0822 63.0885 68.4053 63.2848 67.71 63.3601V63.3601ZM67 62.0001C67 62.3101 67.14 62.8501 67.47 63.0001C68.1348 63.0128 68.7909 62.8471 69.37 62.5201L69.19 61.3501L67 62.0001Z" fill="#D8B56E"></path><path d="M63.3698 58.9H62.8098C62.8002 58.8678 62.7793 58.8401 62.751 58.822C62.7226 58.8039 62.6887 58.7967 62.6554 58.8015C62.6222 58.8064 62.5917 58.823 62.5697 58.8485C62.5477 58.8739 62.5356 58.9064 62.5356 58.94C62.5356 58.9737 62.5477 59.0062 62.5697 59.0316C62.5917 59.0571 62.6222 59.0737 62.6554 59.0786C62.6887 59.0834 62.7226 59.0762 62.751 59.0581C62.7793 59.04 62.8002 59.0123 62.8098 58.98H63.3698V58.9Z" fill="#D8B56E"></path><path d="M62.6801 59.2701C62.5926 59.2701 62.5086 59.2353 62.4468 59.1734C62.3849 59.1115 62.3501 59.0276 62.3501 58.9401C62.3501 58.8525 62.3849 58.7686 62.4468 58.7067C62.5086 58.6448 62.5926 58.6101 62.6801 58.6101C62.7235 58.6085 62.7667 58.6166 62.8065 58.6339C62.8463 58.6512 62.8817 58.6772 62.9101 58.7101H63.3701C63.4011 58.7087 63.4321 58.7137 63.4612 58.7246C63.4903 58.7356 63.5168 58.7523 63.5392 58.7738C63.5617 58.7953 63.5795 58.8211 63.5917 58.8497C63.6039 58.8782 63.6101 58.909 63.6101 58.9401C63.6101 59.0037 63.5848 59.0648 63.5398 59.1098C63.4948 59.1548 63.4338 59.1801 63.3701 59.1801H62.9101C62.8796 59.2096 62.8436 59.2327 62.8041 59.2481C62.7646 59.2636 62.7225 59.271 62.6801 59.2701V59.2701Z" fill="#D8B56E"></path><path d="M63.3698 62.3901H62.8098C62.7997 62.3638 62.7819 62.3411 62.7587 62.325C62.7355 62.3089 62.708 62.3003 62.6798 62.3001C62.6537 62.2993 62.6278 62.3059 62.6053 62.319C62.5827 62.3322 62.5642 62.3514 62.552 62.3745C62.5397 62.3976 62.5342 62.4236 62.536 62.4497C62.5378 62.4758 62.5468 62.5008 62.5622 62.522C62.5775 62.5432 62.5984 62.5597 62.6226 62.5696C62.6468 62.5795 62.6732 62.5824 62.699 62.5781C62.7248 62.5737 62.7488 62.5622 62.7684 62.5449C62.788 62.5276 62.8023 62.5052 62.8098 62.4801H63.3698H63.4198L63.3698 62.3901Z" fill="#D8B56E"></path><path d="M62.6798 62.77C62.5914 62.7701 62.5064 62.7356 62.4429 62.674C62.3794 62.6124 62.3424 62.5284 62.3398 62.44C62.3398 62.3958 62.3487 62.3521 62.3659 62.3114C62.3831 62.2707 62.4083 62.2338 62.44 62.2031C62.4717 62.1723 62.5093 62.1482 62.5505 62.1322C62.5917 62.1162 62.6357 62.1087 62.6798 62.11C62.7222 62.109 62.7644 62.1165 62.8039 62.1319C62.8434 62.1474 62.8794 62.1705 62.9098 62.2H63.3698C63.4335 62.2 63.4945 62.2253 63.5396 62.2703C63.5846 62.3153 63.6098 62.3764 63.6098 62.44C63.6099 62.4711 63.6036 62.5018 63.5914 62.5304C63.5793 62.559 63.5614 62.5848 63.539 62.6063C63.5166 62.6278 63.49 62.6445 63.4609 62.6555C63.4319 62.6664 63.4009 62.6714 63.3698 62.67H62.9098C62.8493 62.7323 62.7667 62.7682 62.6798 62.77V62.77Z" fill="#D8B56E"></path><path d="M62.6801 59.3101C62.8844 59.3101 63.0501 59.1444 63.0501 58.9401C63.0501 58.7357 62.8844 58.5701 62.6801 58.5701C62.4757 58.5701 62.3101 58.7357 62.3101 58.9401C62.3101 59.1444 62.4757 59.3101 62.6801 59.3101Z" fill="#D8B56E"></path><path d="M62.68 59.4C62.6187 59.4013 62.5578 59.3904 62.5009 59.3679C62.4439 59.3453 62.392 59.3117 62.3482 59.2688C62.3044 59.226 62.2696 59.1748 62.2459 59.1183C62.2222 59.0619 62.2099 59.0012 62.21 58.94C62.2264 58.8283 62.2824 58.7264 62.3677 58.6526C62.4531 58.5789 62.5622 58.5383 62.675 58.5383C62.7878 58.5383 62.8968 58.5789 62.9822 58.6526C63.0675 58.7264 63.1236 58.8283 63.14 58.94C63.14 59.062 63.0915 59.179 63.0052 59.2652C62.919 59.3515 62.802 59.4 62.68 59.4ZM62.68 58.67C62.6266 58.67 62.5744 58.6858 62.53 58.7155C62.4856 58.7451 62.451 58.7873 62.4305 58.8366C62.4101 58.886 62.4047 58.9403 62.4151 58.9926C62.4256 59.045 62.4513 59.0931 62.489 59.1309C62.5268 59.1686 62.5749 59.1943 62.6273 59.2048C62.6797 59.2152 62.734 59.2098 62.7833 59.1894C62.8326 59.169 62.8748 59.1344 62.9045 59.09C62.9341 59.0456 62.95 58.9934 62.95 58.94C62.95 58.8683 62.9215 58.7997 62.8709 58.749C62.8202 58.6984 62.7516 58.67 62.68 58.67Z" fill="#D8B56E"></path><path d="M65.48 50.8099C65.4297 50.8099 65.3813 50.7899 65.3457 50.7542C65.3101 50.7186 65.29 50.6703 65.29 50.6199V49.6699C65.29 49.6195 65.3101 49.5712 65.3457 49.5355C65.3813 49.4999 65.4297 49.4799 65.48 49.4799C66.513 49.4962 67.5441 49.3853 68.55 49.1499C68.567 49.124 68.5891 49.1018 68.6148 49.0846C68.6406 49.0674 68.6696 49.0556 68.7 49.0499C68.7488 49.047 68.7969 49.0631 68.8341 49.0948C68.8714 49.1265 68.895 49.1713 68.9 49.2199V49.2199V50.0799C68.9138 50.1221 68.9138 50.1676 68.9 50.2099C68.44 50.6999 66.22 50.8099 65.48 50.8099ZM65.67 49.8099V50.3799C66.635 50.4221 67.5998 50.2934 68.52 49.9999V49.5399C67.584 49.7468 66.6287 49.854 65.67 49.8599V49.8099Z" fill="#D8B56E"></path><path d="M61.9399 58.83C62.1299 57.73 65.4299 50.45 67.4899 45.64L66.3599 45.13L64.9999 44.5C64.4299 47.84 63.2399 52.85 61.9999 58.17L61.9399 58.83Z" fill="#D8B56E"></path><path d="M61.9398 58.9999C61.8911 58.9973 61.8453 58.9762 61.8118 58.9408C61.7783 58.9055 61.7597 58.8586 61.7598 58.8099V58.1399C62.9998 52.9999 64.2198 47.8599 64.7998 44.4699C64.8056 44.4408 64.8175 44.4133 64.8348 44.3892C64.852 44.3651 64.8742 44.3449 64.8998 44.3299C64.9256 44.315 64.9549 44.3071 64.9848 44.3071C65.0146 44.3071 65.0439 44.315 65.0698 44.3299L67.5698 45.4699C67.6146 45.4916 67.6496 45.5293 67.6681 45.5756C67.6866 45.6218 67.6872 45.6733 67.6698 45.7199C67.0798 47.0899 66.3898 48.6599 65.6698 50.2399C63.9998 54.0999 62.2598 58.0999 62.1198 58.8599C62.1105 58.9004 62.0876 58.9365 62.0548 58.962C62.022 58.9876 61.9813 59.0009 61.9398 58.9999V58.9999ZM65.1298 44.8099C64.5798 47.8899 63.5498 52.3299 62.4598 56.8099C63.1398 55.1299 64.2198 52.6599 65.3398 50.0899C65.9998 48.5899 66.6598 47.0899 67.2298 45.7499L65.1298 44.8099Z" fill="#D8B56E"></path><path d="M101.92 86C101.905 85.6059 101.976 85.2133 102.13 84.85C102.252 84.5829 102.437 84.3495 102.67 84.17C102.922 83.9923 103.189 83.8384 103.47 83.71C103.744 83.582 104 83.4171 104.23 83.22C104.317 83.1324 104.384 83.0274 104.427 82.9119C104.47 82.7964 104.488 82.673 104.48 82.55C104.482 82.3961 104.446 82.244 104.374 82.1077C104.303 81.9715 104.198 81.8553 104.07 81.77C103.773 81.5758 103.425 81.4749 103.07 81.48C102.864 81.4835 102.662 81.5318 102.477 81.6216C102.292 81.7115 102.129 81.8406 102 82C101.728 82.3315 101.589 82.752 101.61 83.18H99.3498C99.3375 82.5133 99.4995 81.8549 99.8198 81.27C100.121 80.7199 100.572 80.2659 101.12 79.96C101.713 79.6433 102.378 79.4849 103.05 79.5C103.686 79.4944 104.316 79.6347 104.89 79.91C105.417 80.1529 105.872 80.5285 106.21 81C106.473 81.3949 106.636 81.8481 106.685 82.3204C106.734 82.7926 106.667 83.2696 106.49 83.71C106.372 83.9801 106.195 84.2197 105.97 84.41C105.724 84.6022 105.467 84.7792 105.2 84.94C104.925 85.0917 104.67 85.2764 104.44 85.49C104.27 85.6826 104.18 85.9332 104.19 86.19V86.67H101.92V86ZM102.13 89.94C101.875 89.6817 101.731 89.3332 101.731 88.97C101.731 88.6069 101.875 88.2583 102.13 88C102.388 87.7448 102.737 87.6016 103.1 87.6016C103.463 87.6016 103.811 87.7448 104.07 88C104.199 88.1319 104.3 88.2884 104.367 88.4602C104.434 88.6321 104.465 88.8157 104.46 89C104.462 89.178 104.429 89.3548 104.363 89.5198C104.296 89.6848 104.196 89.8347 104.07 89.9606C103.944 90.0865 103.795 90.1859 103.63 90.2527C103.465 90.3196 103.288 90.3527 103.11 90.35C102.75 90.3668 102.398 90.241 102.13 90V89.94Z" fill="#D8B56E"></path><path d="M89.6698 38.78C89.6327 38.78 89.597 38.7653 89.5708 38.739C89.5445 38.7128 89.5298 38.6772 89.5298 38.64V38.44C89.5298 38.4029 89.5445 38.3673 89.5708 38.3411C89.597 38.3148 89.6327 38.3 89.6698 38.3C89.7069 38.3 89.7425 38.3148 89.7688 38.3411C89.795 38.3673 89.8098 38.4029 89.8098 38.44V38.64C89.8098 38.6772 89.795 38.7128 89.7688 38.739C89.7425 38.7653 89.7069 38.78 89.6698 38.78Z" fill="#D8B56E"></path><path d="M89.6698 41.7C89.6327 41.7 89.597 41.6853 89.5708 41.659C89.5445 41.6327 89.5298 41.5971 89.5298 41.56V41.14C89.5298 41.1029 89.5445 41.0673 89.5708 41.041C89.597 41.0147 89.6327 41 89.6698 41C89.7069 41 89.7425 41.0147 89.7688 41.041C89.795 41.0673 89.8098 41.1029 89.8098 41.14V41.56C89.8098 41.5971 89.795 41.6327 89.7688 41.659C89.7425 41.6853 89.7069 41.7 89.6698 41.7ZM89.6698 40.7C89.6327 40.7 89.597 40.6853 89.5708 40.659C89.5445 40.6327 89.5298 40.5971 89.5298 40.56V40.13C89.5298 40.0929 89.5445 40.0573 89.5708 40.031C89.597 40.0048 89.6327 39.99 89.6698 39.99C89.7069 39.99 89.7425 40.0048 89.7688 40.031C89.795 40.0573 89.8098 40.0929 89.8098 40.13V40.56C89.8127 40.58 89.8112 40.6004 89.8055 40.6197C89.7997 40.6391 89.7899 40.657 89.7766 40.6722C89.7633 40.6874 89.7469 40.6995 89.7284 40.7078C89.71 40.716 89.69 40.7202 89.6698 40.72V40.7ZM89.6698 39.7C89.6327 39.7 89.597 39.6853 89.5708 39.659C89.5445 39.6327 89.5298 39.5971 89.5298 39.56V39.14C89.5298 39.1029 89.5445 39.0673 89.5708 39.041C89.597 39.0147 89.6327 39 89.6698 39C89.7069 39 89.7425 39.0147 89.7688 39.041C89.795 39.0673 89.8098 39.1029 89.8098 39.14V39.56C89.8143 39.5807 89.8141 39.6022 89.8092 39.6228C89.8042 39.6434 89.7946 39.6627 89.7811 39.679C89.7676 39.6954 89.7506 39.7085 89.7313 39.7173C89.712 39.7262 89.691 39.7305 89.6698 39.73V39.7Z" fill="#D8B56E"></path><path d="M89.6402 42.41C89.6216 42.4065 89.6039 42.3992 89.5882 42.3887C89.5725 42.3781 89.5591 42.3645 89.5488 42.3486C89.5385 42.3327 89.5316 42.3149 89.5284 42.2962C89.5252 42.2776 89.5258 42.2585 89.5302 42.24C89.5383 42.1803 89.5383 42.1198 89.5302 42.06V41.93C89.5302 41.8929 89.5449 41.8573 89.5712 41.831C89.5974 41.8048 89.6331 41.79 89.6702 41.79C89.7073 41.79 89.7429 41.8048 89.7692 41.831C89.7954 41.8573 89.8102 41.8929 89.8102 41.93V42.13V42.3C89.8007 42.3363 89.778 42.3677 89.7465 42.3881C89.7151 42.4084 89.6771 42.4163 89.6402 42.41V42.41Z" fill="#D8B56E"></path><path d="M89.0599 43.35C89.033 43.3453 89.008 43.3329 88.9881 43.3142C88.9681 43.2955 88.9541 43.2713 88.9477 43.2448C88.9413 43.2182 88.9429 43.1903 88.9522 43.1646C88.9614 43.1388 88.978 43.1164 88.9999 43.1C89.1174 43.0073 89.2188 42.8958 89.2999 42.77L89.5399 42.92C89.442 43.0657 89.3242 43.197 89.1899 43.31C89.1725 43.3258 89.1519 43.3376 89.1294 43.3445C89.1069 43.3514 89.0832 43.3533 89.0599 43.35V43.35Z" fill="#D8B56E"></path><path d="M88.3398 43.6801C88.3078 43.6791 88.2769 43.6679 88.2517 43.6481C88.2266 43.6283 88.2084 43.6009 88.1998 43.5701C88.1936 43.5331 88.2015 43.4952 88.2218 43.4637C88.2422 43.4322 88.2736 43.4095 88.3098 43.4001H88.4798C88.4974 43.3922 88.5165 43.3883 88.5358 43.3887C88.555 43.3891 88.5739 43.3938 88.5912 43.4024C88.6084 43.411 88.6235 43.4233 88.6354 43.4385C88.6472 43.4537 88.6556 43.4713 88.6598 43.4901C88.6661 43.5078 88.6687 43.5265 88.6675 43.5453C88.6663 43.564 88.6614 43.5823 88.653 43.5991C88.6446 43.6159 88.6329 43.6309 88.6186 43.643C88.6043 43.6552 88.5877 43.6644 88.5698 43.67H88.3698L88.3398 43.6801Z" fill="#D8B56E"></path><path d="M89.33 37.7699H89.19C89.0051 37.7505 88.8235 37.7068 88.65 37.6399C88.6439 37.6293 88.6406 37.6172 88.6406 37.6049C88.6406 37.5926 88.6439 37.5806 88.65 37.5699V37.4999C88.8368 37.4552 89.028 37.4317 89.22 37.4299H89.31C89.5021 37.4308 89.6934 37.4543 89.88 37.4999C89.8879 37.4999 89.8957 37.5015 89.903 37.5045C89.9102 37.5075 89.9169 37.5119 89.9224 37.5175C89.928 37.5231 89.9324 37.5297 89.9354 37.537C89.9384 37.5443 89.94 37.5521 89.94 37.5599C89.9455 37.5725 89.9483 37.5862 89.9483 37.5999C89.9483 37.6137 89.9455 37.6273 89.94 37.6399C89.763 37.7065 89.5781 37.7502 89.39 37.7699H89.33ZM89 37.5799H89.3H89.59H89.3H89Z" fill="#D8B56E"></path><path d="M95.8702 43.24C95.8261 43.242 95.7825 43.2293 95.7464 43.204C95.7102 43.1787 95.6834 43.1421 95.6702 43.1C95.2802 41.94 95.0502 41.18 94.8302 40.45C94.6102 39.72 94.3702 39 94.0002 37.83C93.9909 37.8031 93.9872 37.7746 93.9893 37.7462C93.9914 37.7179 93.9993 37.6902 94.0123 37.665C94.0254 37.6397 94.0435 37.6174 94.0655 37.5993C94.0875 37.5813 94.1129 37.5679 94.1402 37.56C94.1658 37.5506 94.193 37.5466 94.2201 37.5482C94.2473 37.5497 94.2739 37.5568 94.2982 37.569C94.3225 37.5811 94.3441 37.5981 94.3617 37.6189C94.3792 37.6398 94.3923 37.6639 94.4002 37.69C94.7902 38.85 95.0202 39.59 95.2402 40.33C95.4602 41.07 95.7002 41.81 96.0802 42.96C96.0897 42.9862 96.0938 43.0141 96.0923 43.0419C96.0909 43.0698 96.0839 43.0971 96.0718 43.1222C96.0597 43.1474 96.0427 43.1698 96.0219 43.1883C96.001 43.2068 95.9766 43.221 95.9502 43.23L95.8702 43.24Z" fill="#D8B56E"></path><path d="M80.9999 43.27C80.9734 43.261 80.9491 43.2469 80.9282 43.2284C80.9073 43.2099 80.8903 43.1874 80.8782 43.1623C80.8661 43.1371 80.8591 43.1099 80.8577 43.082C80.8563 43.0541 80.8604 43.0263 80.8699 43C81.2499 41.85 81.4798 41.11 81.6998 40.37C81.9198 39.63 82.1599 38.88 82.5499 37.73C82.5584 37.7037 82.572 37.6794 82.5899 37.6584C82.6079 37.6374 82.6298 37.6202 82.6544 37.6076C82.679 37.5951 82.7058 37.5875 82.7334 37.5854C82.7609 37.5832 82.7886 37.5865 82.8149 37.595C82.8411 37.6036 82.8654 37.6172 82.8864 37.6351C82.9074 37.653 82.9247 37.6749 82.9372 37.6996C82.9498 37.7242 82.9573 37.751 82.9595 37.7785C82.9617 37.8061 82.9584 37.8338 82.9498 37.86C82.5598 39.01 82.3399 39.75 82.1099 40.49C81.8799 41.23 81.6598 41.98 81.2698 43.13C81.2619 43.1573 81.2485 43.1827 81.2305 43.2047C81.2124 43.2267 81.1901 43.2448 81.1649 43.2579C81.1396 43.271 81.112 43.2788 81.0836 43.2809C81.0552 43.283 81.0267 43.2793 80.9999 43.27V43.27Z" fill="#D8B56E"></path><path d="M88.2702 45.2599C88.2136 45.2573 88.1602 45.233 88.1211 45.1921C88.0819 45.1511 88.0601 45.0966 88.0602 45.0399V36.6299C88.0592 36.6021 88.064 36.5744 88.0744 36.5486C88.0847 36.5228 88.1003 36.4994 88.1202 36.4799C88.1638 36.4401 88.2211 36.4186 88.2802 36.4199C89.0202 36.4199 89.7702 36.4199 90.5102 36.3399C90.6902 36.3399 91.1302 36.2799 91.7602 36.1899C91.7878 36.1857 91.816 36.187 91.8431 36.1938C91.8702 36.2006 91.8957 36.2127 91.918 36.2295C91.9404 36.2463 91.9591 36.2673 91.9732 36.2914C91.9874 36.3155 91.9965 36.3422 92.0002 36.3699C92.0039 36.4248 91.9877 36.4793 91.9547 36.5233C91.9217 36.5674 91.8739 36.5981 91.8202 36.6099C91.1802 36.6999 90.7302 36.7499 90.5502 36.7599C89.8702 36.8199 89.1802 36.8399 88.4902 36.8499V44.9999C88.4961 45.032 88.4949 45.0649 88.4865 45.0964C88.4781 45.1279 88.4629 45.1572 88.4418 45.1821C88.4208 45.2069 88.3944 45.2268 88.3648 45.2403C88.3351 45.2538 88.3028 45.2605 88.2702 45.2599Z" fill="#D8B56E"></path><path d="M91.7898 36.61C91.7384 36.6128 91.6878 36.5956 91.6487 36.5621C91.6096 36.5286 91.5849 36.4812 91.5798 36.43C91.5711 36.3757 91.584 36.3201 91.6158 36.2752C91.6476 36.2304 91.6957 36.1997 91.7498 36.19L92.1898 36.12C92.6598 36.04 93.1198 35.95 93.6098 35.84C94.0998 35.73 94.6098 35.6 95.0798 35.47C95.106 35.4608 95.1339 35.4572 95.1616 35.4594C95.1893 35.4615 95.2162 35.4695 95.2407 35.4826C95.2651 35.4958 95.2866 35.5139 95.3037 35.5359C95.3207 35.5578 95.333 35.583 95.3398 35.61C95.3554 35.663 95.3494 35.72 95.3232 35.7687C95.297 35.8174 95.2527 35.8538 95.1998 35.87C94.7498 36.01 94.3398 36.12 93.7098 36.26C93.0798 36.4 92.7098 36.46 92.2598 36.54L91.8198 36.61H91.7898Z" fill="#D8B56E"></path><path d="M92.4502 38.34C92.3945 38.34 92.3411 38.3178 92.3017 38.2785C92.2624 38.2391 92.2402 38.1857 92.2402 38.13C92.2402 38.0743 92.2624 38.0209 92.3017 37.9815C92.3411 37.9421 92.3945 37.92 92.4502 37.92C93.4269 37.7501 94.3921 37.5196 95.3402 37.23C95.3665 37.2208 95.3943 37.2172 95.422 37.2194C95.4497 37.2216 95.4766 37.2295 95.5011 37.2427C95.5256 37.2558 95.547 37.2739 95.5641 37.2959C95.5811 37.3178 95.5935 37.343 95.6002 37.37C95.6094 37.3962 95.613 37.424 95.6108 37.4517C95.6086 37.4794 95.6007 37.5064 95.5875 37.5308C95.5744 37.5553 95.5563 37.5767 95.5343 37.5938C95.5124 37.6109 95.4872 37.6232 95.4602 37.63C94.4984 37.9362 93.5159 38.1735 92.5202 38.34H92.4502Z" fill="#D8B56E"></path><path d="M88.2701 38.69C87.1762 38.6945 86.0835 38.621 85.0001 38.47C84.9718 38.4677 84.9443 38.4595 84.9195 38.4458C84.8946 38.4321 84.8729 38.4133 84.8559 38.3906C84.8389 38.3679 84.8269 38.3418 84.8207 38.3142C84.8145 38.2865 84.8143 38.2578 84.8201 38.23C84.8299 38.1752 84.8601 38.1261 84.9047 38.0927C84.9492 38.0593 85.0047 38.0441 85.0601 38.05C86.1208 38.1922 87.1899 38.2624 88.2601 38.26C89.5114 38.265 90.7615 38.1781 92.0001 38C92.0277 37.9957 92.0559 37.9971 92.083 38.0039C92.1101 38.0107 92.1356 38.0228 92.1579 38.0396C92.1803 38.0563 92.199 38.0774 92.2131 38.1015C92.2273 38.1256 92.2364 38.1523 92.2401 38.18C92.2443 38.2076 92.243 38.2358 92.2362 38.2629C92.2294 38.29 92.2173 38.3155 92.2005 38.3378C92.1838 38.3602 92.1627 38.3789 92.1386 38.393C92.1145 38.4072 92.0878 38.4163 92.0601 38.42C90.8049 38.6009 89.5383 38.6912 88.2701 38.69Z" fill="#D8B56E"></path><path d="M84.5901 38.4099H84.4501C83.9325 38.3035 83.4216 38.1666 82.9201 37.9999C82.5501 37.8899 82.1601 37.7799 81.6601 37.6699H81.4801C81.4523 37.6651 81.4257 37.6548 81.402 37.6395C81.3783 37.6242 81.3579 37.6043 81.342 37.581C81.3261 37.5577 81.3151 37.5314 81.3097 37.5037C81.3042 37.476 81.3043 37.4475 81.3101 37.4199C81.3222 37.365 81.3548 37.3168 81.4013 37.2851C81.4478 37.2535 81.5046 37.2409 81.5601 37.2499H81.7101C82.2701 37.3699 82.7101 37.4799 83.0401 37.5899C83.5271 37.7319 84.0211 37.8488 84.5201 37.9399H84.6201V38.1599L84.5901 38.4099Z" fill="#D8B56E"></path><path d="M88.2298 37.0001C87.5398 37.0001 86.8798 36.8901 86.2298 36.8101L85.2898 36.6901L84.8598 36.6301C84.4198 36.6301 83.9798 36.5001 83.5498 36.4101H83.3698C82.8101 36.3047 82.2561 36.1712 81.7098 36.0101C81.6829 36.0033 81.6576 35.991 81.6357 35.9739C81.6138 35.9568 81.5957 35.9354 81.5825 35.9109C81.5693 35.8865 81.5614 35.8595 81.5592 35.8318C81.557 35.8041 81.5606 35.7763 81.5698 35.7501C81.5777 35.7228 81.5911 35.6973 81.6092 35.6754C81.6272 35.6534 81.6496 35.6353 81.6748 35.6222C81.7001 35.6091 81.7277 35.6013 81.7561 35.5992C81.7844 35.5971 81.8129 35.6008 81.8398 35.6101C82.3696 35.7644 82.9069 35.8912 83.4498 35.9901H83.6298C84.0498 36.0801 84.4798 36.1501 84.9098 36.2001L85.3498 36.2601L86.2798 36.3801C86.9298 36.4601 87.5798 36.5201 88.2798 36.5701C88.3355 36.5701 88.3889 36.5922 88.4283 36.6316C88.4677 36.671 88.4898 36.7244 88.4898 36.7801C88.4898 36.8358 88.4677 36.8892 88.4283 36.9286C88.3889 36.9679 88.3355 36.9901 88.2798 36.9901L88.2298 37.0001Z" fill="#D8B56E"></path><path d="M84.9399 38.57H84.6299C84.6299 38.57 84.6299 38.57 84.6299 38.51L84.8899 36.51C84.8923 36.4958 84.8996 36.483 84.9106 36.4739C84.9216 36.4647 84.9356 36.4598 84.9499 36.46L85.2599 36.52C85.2652 36.5291 85.2679 36.5394 85.2679 36.55C85.2679 36.5605 85.2652 36.5708 85.2599 36.58L84.9899 38.58L84.9399 38.57Z" fill="#D8B56E"></path><path d="M85.0001 38.7099L84.6901 38.6599C84.665 38.6563 84.6409 38.6477 84.6192 38.6346C84.5975 38.6215 84.5786 38.6041 84.5637 38.5836C84.5488 38.5631 84.5381 38.5399 84.5323 38.5152C84.5266 38.4905 84.5258 38.4649 84.5301 38.4399L84.7901 36.4399C84.793 36.4137 84.8018 36.3885 84.8156 36.366C84.8294 36.3436 84.848 36.3244 84.8701 36.3099C84.8932 36.2977 84.9189 36.2913 84.9451 36.2913C84.9712 36.2913 84.997 36.2977 85.0201 36.3099H85.3201C85.3703 36.3196 85.4154 36.3472 85.4467 36.3878C85.478 36.4283 85.4934 36.4788 85.4901 36.5299L85.2201 38.5299C85.2189 38.5555 85.212 38.5804 85.1999 38.6029C85.1878 38.6254 85.1707 38.6449 85.1501 38.6599C85.1075 38.6938 85.0544 38.7115 85.0001 38.7099V38.7099ZM84.7801 38.4299H84.9201L85.1501 36.6099H85.0201L84.7801 38.4299Z" fill="#D8B56E"></path><path d="M92.13 38.5199L92.44 38.4599C92.4453 38.4508 92.4481 38.4404 92.4481 38.4299C92.4481 38.4194 92.4453 38.409 92.44 38.3999L92.17 36.3999C92.1609 36.3946 92.1506 36.3918 92.14 36.3918C92.1295 36.3918 92.1192 36.3946 92.11 36.3999L91.8 36.4599C91.7948 36.469 91.792 36.4794 91.792 36.4899C91.792 36.5004 91.7948 36.5108 91.8 36.5199L92.07 38.5199C92.07 38.5199 92.1 38.5199 92.13 38.5199Z" fill="#D8B56E"></path><path d="M92.1202 38.6601C92.0813 38.6731 92.0392 38.6731 92.0002 38.6601C91.9797 38.6472 91.9627 38.6296 91.9505 38.6087C91.9383 38.5878 91.9314 38.5643 91.9302 38.5401L91.6602 36.5401C91.656 36.5144 91.6571 36.488 91.6635 36.4627C91.6699 36.4375 91.6814 36.4138 91.6974 36.3931C91.7133 36.3725 91.7333 36.3553 91.7562 36.3428C91.7791 36.3302 91.8043 36.3225 91.8302 36.3201L92.1302 36.2601C92.1553 36.2485 92.1826 36.2424 92.2102 36.2424C92.2379 36.2424 92.2652 36.2485 92.2902 36.2601C92.3109 36.2751 92.328 36.2946 92.3401 36.3171C92.3522 36.3396 92.3591 36.3646 92.3602 36.3901L92.6302 38.3901C92.6362 38.4402 92.6231 38.4907 92.5934 38.5315C92.5637 38.5723 92.5197 38.6004 92.4702 38.6101L92.1502 38.6701L92.1202 38.6601ZM91.9502 36.5201L92.1902 38.3601H92.3202L92.0802 36.5201H91.9502Z" fill="#D8B56E"></path><path d="M81.7398 35.9999C81.6874 36.0002 81.6369 35.9808 81.598 35.9457C81.5591 35.9105 81.5348 35.8621 81.5298 35.8099C81.5271 35.7823 81.5298 35.7545 81.5379 35.7279C81.546 35.7014 81.5592 35.6767 81.5769 35.6553C81.5946 35.634 81.6163 35.6163 81.6408 35.6033C81.6654 35.5904 81.6922 35.5824 81.7198 35.5799C83.8798 35.3499 86.3499 35.2099 88.6599 35.1899C91.1399 35.1899 93.2499 35.3199 95.1599 35.4899C95.2155 35.4899 95.269 35.5121 95.3083 35.5514C95.3477 35.5908 95.3699 35.6442 95.3699 35.6999C95.3699 35.7556 95.3477 35.8091 95.3083 35.8484C95.269 35.8878 95.2155 35.9099 95.1599 35.9099C93.0129 35.7016 90.8568 35.6014 88.6998 35.6099C86.3998 35.6099 83.9499 35.7699 81.7999 35.9999H81.7398Z" fill="#D8B56E"></path><path d="M80.9999 58.43C80.9442 58.43 80.8908 58.4079 80.8514 58.3685C80.812 58.3291 80.7899 58.2757 80.7899 58.22C80.7199 52.03 80.6499 45.33 80.6499 45.22C80.6499 44.94 81.0099 39.28 81.5199 35.72C81.5236 35.6923 81.5327 35.6656 81.5468 35.6415C81.5609 35.6174 81.5797 35.5964 81.6021 35.5796C81.6244 35.5628 81.6499 35.5507 81.677 35.5439C81.7041 35.5371 81.7323 35.5358 81.7599 35.54C81.7876 35.5437 81.8143 35.5529 81.8384 35.567C81.8625 35.5811 81.8836 35.5999 81.9003 35.6222C81.9171 35.6446 81.9292 35.67 81.936 35.6971C81.9428 35.7242 81.9441 35.7524 81.9399 35.78C81.4099 39.49 81.0699 45.06 81.0699 45.22C81.0699 45.38 81.1299 50.77 81.2099 58.22C81.2113 58.2484 81.2068 58.2768 81.1969 58.3035C81.1869 58.3301 81.1717 58.3545 81.152 58.375C81.1324 58.3956 81.1088 58.412 81.0826 58.4231C81.0565 58.4343 81.0283 58.4401 80.9999 58.44V58.43Z" fill="#D8B56E"></path><path d="M81.2601 77.56C81.209 77.5505 81.1628 77.5233 81.1298 77.483C81.0969 77.4427 81.0793 77.392 81.0801 77.34V76.72C81.0801 74.81 81.0801 72.11 80.9801 68.99C80.9801 66.44 80.8901 63.62 80.8601 60.76C80.8587 60.732 80.8631 60.7041 80.8732 60.678C80.8832 60.6518 80.8986 60.6281 80.9184 60.6083C80.9382 60.5885 80.962 60.5731 80.9881 60.5631C81.0142 60.553 81.0422 60.5486 81.0701 60.55V60.55C81.0977 60.55 81.125 60.5554 81.1505 60.566C81.176 60.5765 81.1991 60.592 81.2186 60.6115C81.2381 60.631 81.2536 60.6542 81.2641 60.6796C81.2747 60.7051 81.2801 60.7324 81.2801 60.76C81.2801 63.62 81.3601 66.43 81.4101 68.98C81.4101 71.77 81.5001 74.21 81.5101 76.07C82.1155 74.5925 82.8483 73.1705 83.7001 71.82C84.5056 70.614 85.4339 69.4947 86.4701 68.48C86.5401 65.6 86.5901 62.48 86.5901 60.31V57.61C86.5846 57.587 86.5846 57.563 86.5901 57.54C86.6606 57.3647 86.7175 57.1841 86.7601 57C86.7601 56.88 86.9101 55.33 87.0001 54.33L87.5301 49C87.5301 48.63 87.6601 48 87.6601 47.9C87.6601 47.8 87.7401 45.82 87.7801 45.63C87.848 45.3919 87.9526 45.1659 88.0901 44.96C88.1053 44.9357 88.1253 44.9147 88.1488 44.8984C88.1724 44.8821 88.1991 44.8708 88.2272 44.8652C88.2553 44.8595 88.2842 44.8597 88.3122 44.8657C88.3403 44.8717 88.3668 44.8834 88.3901 44.9C88.4364 44.9306 88.4687 44.9783 88.4799 45.0326C88.4912 45.087 88.4805 45.1435 88.4501 45.19C88.3316 45.3441 88.2464 45.5212 88.2001 45.71C88.2001 45.87 88.0901 47.71 88.0901 47.9C88.0901 48.09 88.0001 48.92 88.0001 49L87.4501 54.35C87.4501 54.6 87.2401 56.87 87.2101 57.05C87.1633 57.2472 87.1032 57.441 87.0301 57.63V60.29C87.0301 62.44 87.0301 65.62 86.9201 68.54C86.9187 68.5908 86.9012 68.6398 86.8701 68.68C85.7973 69.6806 84.8351 70.7937 84.0001 72C82.951 73.6963 82.086 75.4999 81.4201 77.38C81.4151 77.4228 81.3971 77.463 81.3685 77.4952C81.3399 77.5274 81.302 77.55 81.2601 77.56V77.56Z" fill="#D8B56E"></path><path d="M89.8999 66.2501C89.8442 66.2501 89.7908 66.228 89.7514 66.1886C89.712 66.1492 89.6899 66.0958 89.6899 66.0401C89.6299 64.2101 89.5699 62.0401 89.5599 60.3101C89.5599 59.1501 89.5599 58.2001 89.5599 57.6501C89.486 57.4623 89.4291 57.2682 89.3899 57.0701C89.3899 56.8901 89.1699 54.6201 89.1399 54.3701L88.5899 49.0001C88.5899 48.9101 88.4599 48.0801 88.4599 47.8601C88.4599 47.6401 88.3699 45.8601 88.3499 45.6701C88.2913 45.4841 88.2036 45.3086 88.0899 45.1501C88.0753 45.1265 88.0656 45.1003 88.0612 45.0729C88.0568 45.0455 88.0579 45.0175 88.0645 44.9905C88.071 44.9636 88.0827 44.9382 88.0991 44.9158C88.1155 44.8934 88.1362 44.8745 88.1599 44.8601C88.1824 44.8437 88.2082 44.8322 88.2354 44.8263C88.2627 44.8204 88.2909 44.8203 88.3182 44.8259C88.3455 44.8316 88.3713 44.8429 88.394 44.8591C88.4167 44.8753 88.4357 44.8961 88.4499 44.9201C88.597 45.1255 88.7054 45.3559 88.7699 45.6001C88.7699 45.7801 88.8799 47.6901 88.8799 47.8601C88.8799 48.0301 88.9999 48.6001 88.9999 49.0001L89.5499 54.3701C89.6299 55.3701 89.7699 56.9201 89.7899 57.0401C89.8335 57.2229 89.8869 57.4031 89.9499 57.5801C89.9542 57.6033 89.9542 57.627 89.9499 57.6501C89.9499 58.2001 89.9499 59.1601 89.9499 60.3501C89.9499 62.0601 90.0099 64.2401 90.0699 66.0701C90.068 66.1245 90.0469 66.1765 90.0102 66.2168C89.9736 66.2571 89.9239 66.2831 89.8699 66.2901L89.8999 66.2501Z" fill="#D8B56E"></path><path d="M81.0002 61.0001C80.9445 61.0001 80.8911 60.9779 80.8517 60.9386C80.8124 60.8992 80.7902 60.8458 80.7902 60.7901C80.7902 60.6201 80.7902 60.5101 80.7902 60.4701C80.7503 60.124 80.8203 59.7742 80.9902 59.4701C80.9902 59.4701 80.9902 59.2501 80.9302 59.1901C80.9122 59.1283 80.9021 59.0644 80.9002 59.0001C80.9035 58.9601 80.9035 58.92 80.9002 58.8801C80.857 58.6658 80.8303 58.4485 80.8202 58.2301C80.8202 58.2301 80.8202 58.0501 80.8202 57.7901C80.8189 57.7617 80.8233 57.7333 80.8333 57.7066C80.8432 57.68 80.8584 57.6556 80.8781 57.6351C80.8977 57.6145 80.9213 57.5981 80.9475 57.587C80.9736 57.5758 81.0018 57.57 81.0302 57.5701C81.0855 57.5743 81.1376 57.5975 81.1777 57.6358C81.2178 57.6741 81.2435 57.725 81.2502 57.7801V58.2301C81.2607 58.4187 81.2875 58.6061 81.3302 58.7901C81.3302 58.8601 81.3302 58.9101 81.3302 58.9401C81.3334 58.9666 81.3334 58.9935 81.3302 59.0201C81.3917 59.1265 81.424 59.2472 81.424 59.3701C81.424 59.4929 81.3917 59.6137 81.3302 59.7201C81.2254 59.9447 81.1839 60.1936 81.2102 60.4401C81.2102 60.4401 81.2102 60.5901 81.2102 60.7501C81.2162 60.7808 81.2152 60.8125 81.2074 60.8428C81.1995 60.8731 81.185 60.9012 81.1649 60.9252C81.1447 60.9491 81.1195 60.9683 81.091 60.9813C81.0625 60.9942 81.0315 61.0006 81.0002 61.0001V61.0001Z" fill="#D8B56E"></path><path d="M89.9402 66.0499C89.9031 66.0491 89.867 66.0385 89.8354 66.0191C89.8037 65.9998 89.7778 65.9725 89.7602 65.9399C89.746 65.9157 89.7369 65.8889 89.7332 65.8611C89.7296 65.8333 89.7316 65.8051 89.739 65.778C89.7465 65.751 89.7593 65.7257 89.7766 65.7037C89.794 65.6817 89.8156 65.6634 89.8402 65.6499L95.5902 62.6499V60.1099C95.5902 60.0542 95.6123 60.0008 95.6517 59.9614C95.6911 59.922 95.7445 59.8999 95.8002 59.8999V59.8999C95.8559 59.8999 95.9093 59.922 95.9487 59.9614C95.9881 60.0008 96.0102 60.0542 96.0102 60.1099V62.7799C96.0094 62.8169 95.9987 62.8531 95.9794 62.8847C95.9601 62.9163 95.9328 62.9423 95.9002 62.9599L90.0502 65.9999L89.9402 66.0499Z" fill="#D8B56E"></path><path d="M95.8599 58.3399C95.8315 58.3399 95.8033 58.3342 95.7772 58.323C95.751 58.3119 95.7274 58.2955 95.7078 58.2749C95.6881 58.2543 95.6729 58.23 95.6629 58.2034C95.653 58.1767 95.6486 58.1483 95.6499 58.1199C95.7199 51.4399 95.7899 45.2399 95.7899 45.1199C95.7899 44.9999 95.4499 39.3899 94.9199 35.6699C94.9157 35.6423 94.917 35.6141 94.9238 35.587C94.9306 35.5599 94.9427 35.5344 94.9595 35.5121C94.9762 35.4897 94.9973 35.471 95.0214 35.4569C95.0455 35.4427 95.0722 35.4336 95.0999 35.4299C95.1275 35.4257 95.1557 35.427 95.1828 35.4338C95.2099 35.4406 95.2354 35.4527 95.2577 35.4695C95.2801 35.4863 95.2989 35.5073 95.313 35.5314C95.3271 35.5555 95.3362 35.5822 95.3399 35.6099C95.8799 39.3799 96.2099 44.9499 96.2099 45.1199C96.2099 45.2899 96.2099 50.3699 96.0699 58.1199C96.0713 58.1483 96.0668 58.1767 96.0569 58.2034C96.0469 58.23 96.0317 58.2543 96.0121 58.2749C95.9924 58.2955 95.9688 58.3119 95.9426 58.323C95.9165 58.3342 95.8883 58.3399 95.8599 58.3399V58.3399Z" fill="#D8B56E"></path><path d="M95.8298 60.86C95.8035 60.8613 95.7773 60.8575 95.7525 60.8486C95.7277 60.8398 95.7049 60.8262 95.6854 60.8085C95.6659 60.7909 95.65 60.7696 95.6388 60.7458C95.6275 60.722 95.6211 60.6963 95.6198 60.67V60.35C95.6468 60.1045 95.6089 59.8562 95.5098 59.63C95.4484 59.5236 95.416 59.4029 95.416 59.28C95.416 59.1571 95.4484 59.0364 95.5098 58.93C95.5166 58.9037 95.5166 58.8762 95.5098 58.85C95.5129 58.8034 95.5129 58.7566 95.5098 58.71C95.5525 58.5226 95.5793 58.3319 95.5898 58.14V57.69C95.5828 57.6579 95.5832 57.6246 95.5907 57.5927C95.5983 57.5607 95.6129 57.5308 95.6335 57.5052C95.6542 57.4797 95.6802 57.459 95.7099 57.4449C95.7395 57.4307 95.772 57.4233 95.8048 57.4233C95.8377 57.4233 95.8701 57.4307 95.8997 57.4449C95.9294 57.459 95.9554 57.4797 95.9761 57.5052C95.9967 57.5308 96.0113 57.5607 96.0189 57.5927C96.0265 57.6246 96.0268 57.6579 96.0198 57.69C96.0198 57.95 96.0198 58.11 96.0198 58.13C96.0104 58.3484 95.9837 58.5658 95.9398 58.78C95.9374 58.8199 95.9374 58.86 95.9398 58.9C95.9228 58.9609 95.9028 59.021 95.8798 59.08C95.8798 59.14 95.7798 59.32 95.8098 59.37C95.9916 59.6697 96.0656 60.0225 96.0198 60.37C96.0198 60.37 96.0198 60.51 96.0198 60.65C96.0179 60.7018 95.9978 60.7512 95.9631 60.7896C95.9283 60.828 95.8811 60.8529 95.8298 60.86V60.86Z" fill="#D8B56E"></path><path d="M89.1699 37.87C89.3411 37.87 89.4799 37.7312 89.4799 37.56C89.4799 37.3888 89.3411 37.25 89.1699 37.25C88.9987 37.25 88.8599 37.3888 88.8599 37.56C88.8599 37.7312 88.9987 37.87 89.1699 37.87Z" fill="#D8B56E"></path><path d="M86.47 116.35C86.328 116.354 86.188 116.315 86.0687 116.238C85.9495 116.161 85.8565 116.049 85.8022 115.918C85.748 115.786 85.7349 115.642 85.7649 115.503C85.7949 115.364 85.8664 115.237 85.97 115.14C88.611 112.678 90.7179 109.7 92.16 106.39C86.7641 103.601 82.632 98.8623 80.603 93.137C78.5739 87.4117 78.7999 81.1288 81.2352 75.5641C83.6704 69.9994 88.1323 65.5702 93.7148 63.1759C99.2972 60.7816 105.582 60.6017 111.292 62.6727C117.002 64.7438 121.71 68.9106 124.46 74.3268C127.209 79.7431 127.794 86.0029 126.096 91.8349C124.398 97.6668 120.543 102.634 115.316 105.727C110.088 108.821 103.879 109.808 97.95 108.49C94.95 112.3 87.12 116.12 86.78 116.28C86.6834 116.327 86.5774 116.351 86.47 116.35V116.35ZM103.18 62.4C98.0543 62.3965 93.0793 64.1339 89.0701 67.3277C85.061 70.5215 82.2555 74.9822 81.1131 79.979C79.9708 84.9759 80.5595 90.2126 82.7827 94.8311C85.0059 99.4496 88.7319 103.176 93.35 105.4C93.5019 105.475 93.6223 105.602 93.69 105.758C93.7577 105.913 93.7683 106.087 93.72 106.25C92.818 108.711 91.4987 110.997 89.82 113.01C92.4 111.49 95.64 109.33 97.08 107.29C97.1624 107.173 97.278 107.084 97.4118 107.034C97.5456 106.984 97.6914 106.976 97.83 107.01C100.94 107.772 104.177 107.865 107.326 107.283C110.475 106.702 113.464 105.458 116.097 103.636C118.73 101.813 120.945 99.4519 122.598 96.7091C124.251 93.9664 125.302 90.9041 125.684 87.7247C126.065 84.5453 125.767 81.3211 124.81 78.2654C123.853 75.2096 122.258 72.3918 120.131 69.9981C118.004 67.6044 115.393 65.6894 112.471 64.3796C109.549 63.0698 106.382 62.3951 103.18 62.4V62.4Z" fill="#D8B56E"></path><path d="M62.0001 37.2002V35.7302C61.905 35.5768 61.8532 35.4006 61.8501 35.2202C61.8501 34.3102 61.8501 32.2802 61.8501 30.6502C61.8501 30.0102 61.8501 29.4502 61.8501 29.0702C61.8501 27.5502 63.2601 20.8902 63.8501 20.1902C64.1301 19.8402 65.4701 19.2502 67.8501 18.4302L67.9901 18.8302C64.8101 19.9402 64.2901 20.3602 64.2101 20.4602C63.2578 23.2487 62.6303 26.1378 62.3401 29.0702C62.3401 29.4502 62.3401 30.0102 62.3401 30.6602C62.3401 32.2802 62.3401 34.3002 62.3401 35.2102C62.332 35.3163 62.3602 35.4221 62.4201 35.5102V35.5702V35.6502V37.2002H62.0001Z" fill="#D8B56E"></path><path d="M70.2302 39.3402C69.2878 39.3496 68.3477 39.2455 67.4302 39.0302C66.458 38.481 65.5607 37.8088 64.7602 37.0302L64.6902 36.9602L65.0002 32.4902C64.9202 33.3502 64.8402 34.2402 64.8102 34.9402C64.8089 35.1578 64.7612 35.3725 64.6702 35.5702V37.2002H64.2402V35.4402C64.3147 35.2949 64.3525 35.1335 64.3502 34.9702C64.3502 34.0802 64.5002 32.8902 64.6002 31.8402C64.6502 31.3402 64.7002 30.8402 64.7302 30.4702C64.802 29.6312 64.9188 28.7967 65.0802 27.9702L65.4802 25.9702V27.9702C65.4802 27.9702 65.4802 30.2102 65.4202 31.6302L65.1102 36.7702C65.8363 37.4998 66.6569 38.1288 67.5502 38.6402C69.2972 39.0135 71.1033 39.0135 72.8502 38.6402C73.7435 38.1288 74.5642 37.4998 75.2902 36.7702L75.0002 31.6202C74.9102 30.2002 74.9402 27.9802 74.9402 27.9602V25.9602L75.3402 27.9602C75.5058 28.786 75.6227 29.6207 75.6902 30.4602C75.6902 30.8702 75.7702 31.3502 75.8202 31.8602C75.9202 32.8602 76.0302 34.0702 76.0702 34.9602C76.0718 35.1274 76.1129 35.2919 76.1902 35.4402V35.4902V35.5502V37.2402H75.7602V35.6102C75.6693 35.4125 75.6216 35.1978 75.6202 34.9802C75.6202 34.2602 75.5002 33.3402 75.4202 32.4602L75.7002 36.9802L75.6302 37.0502C74.8392 37.8084 73.9556 38.4636 73.0002 39.0002C72.0937 39.2233 71.1638 39.3374 70.2302 39.3402V39.3402Z" fill="#D8B56E"></path><path d="M78.4203 37.2102H78.0003V35.5802L78.0603 35.5202C78.1181 35.4312 78.1462 35.3262 78.1403 35.2202C78.1403 34.3102 78.1403 32.2902 78.1403 30.6702C78.1403 30.0202 78.1403 29.4602 78.1403 29.0802C77.8501 26.1479 77.2226 23.2588 76.2703 20.4702C76.1903 20.3702 75.6803 19.9602 72.5703 18.8702L72.7103 18.4702C75.0103 19.2702 76.3203 19.8502 76.6003 20.2002C77.1603 20.9002 78.6003 27.5602 78.6003 29.0802V30.6602C78.6003 32.2902 78.6003 34.3202 78.6003 35.2402C78.5955 35.4172 78.5437 35.5898 78.4503 35.7402L78.4203 37.2102Z" fill="#D8B56E"></path><path d="M72.0001 17.6301C71.4259 17.3401 70.779 17.2253 70.1401 17.3001C68.7501 17.3001 68.4501 17.6101 68.4401 17.6101L68.1001 17.3501C68.1601 17.2701 68.5201 16.8701 70.1001 16.8701C71.6801 16.8701 72.2001 17.2701 72.2501 17.3201L71.9601 17.6301H72.0001Z" fill="#D8B56E"></path><path d="M71.6102 18.63C71.1461 18.4582 70.6551 18.3702 70.1602 18.37C69.7201 18.3708 69.2835 18.4486 68.8702 18.6L68.7202 18.2C69.1849 18.0502 69.6722 17.9825 70.1602 18C70.706 17.9971 71.2479 18.0919 71.7602 18.28L71.6102 18.63Z" fill="#D8B56E"></path><path d="M68.8603 20.5702C68.8267 20.5707 68.7935 20.5627 68.7638 20.5469C68.734 20.5312 68.7088 20.5082 68.6903 20.4802C68.5803 20.3202 68.4703 20.1902 68.3703 20.0602C68.0191 19.6659 67.7686 19.1924 67.6403 18.6802C67.6349 18.6471 67.6349 18.6133 67.6403 18.5802C67.7226 18.1216 67.9072 17.6875 68.1803 17.3102C68.2145 17.2878 68.2544 17.2759 68.2953 17.2759C68.3361 17.2759 68.3761 17.2878 68.4103 17.3102C68.4468 17.3283 68.477 17.3572 68.4966 17.3929C68.5163 17.4287 68.5245 17.4696 68.5203 17.5102C68.5042 17.6558 68.5318 17.8029 68.5994 17.9329C68.6671 18.0628 68.7718 18.1698 68.9003 18.2402C69.2476 18.4194 69.623 18.5378 70.0103 18.5902C70.0596 18.6017 70.1035 18.6298 70.1344 18.6699C70.1654 18.71 70.1816 18.7595 70.1803 18.8102C70.1781 18.8582 70.1587 18.9038 70.1257 18.9387C70.0926 18.9736 70.0481 18.9954 70.0003 19.0002C69.7303 19.0002 69.3403 19.8602 69.1303 20.2902L69.0403 20.4602C69.0248 20.4932 69.001 20.5217 68.9712 20.5427C68.9414 20.5637 68.9066 20.5767 68.8703 20.5802L68.8603 20.5702ZM68.0703 18.6402C68.1843 19.0709 68.4043 19.4662 68.7103 19.7902L68.8303 19.9502C68.9945 19.5716 69.2062 19.2154 69.4603 18.8902C69.187 18.8239 68.9245 18.7195 68.6803 18.5802C68.494 18.4629 68.3394 18.3014 68.2303 18.1102C68.1703 18.2702 68.1203 18.4502 68.0703 18.6402Z" fill="#D8B56E"></path><path d="M71.6699 20.5701C71.6336 20.5666 71.5988 20.5537 71.569 20.5326C71.5392 20.5116 71.5154 20.4832 71.4999 20.4501L71.4199 20.2901C71.1999 19.8501 70.8099 19.0301 70.5399 18.9901C70.4904 18.9851 70.4446 18.9619 70.4113 18.9249C70.378 18.8879 70.3597 18.8399 70.3599 18.7901C70.3586 18.7395 70.3748 18.6899 70.4058 18.6499C70.4368 18.6098 70.4806 18.5816 70.5299 18.5701C71.3699 18.4101 72.0599 18.2101 72.0199 17.4901C72.0158 17.4532 72.0221 17.4159 72.038 17.3823C72.0539 17.3488 72.0788 17.3203 72.1099 17.3001C72.1422 17.2826 72.1783 17.2734 72.2149 17.2734C72.2516 17.2734 72.2877 17.2826 72.3199 17.3001C72.6199 17.4501 72.8199 18.1801 72.8999 18.6101C72.91 18.6358 72.91 18.6644 72.8999 18.6901C72.7815 19.2069 72.5338 19.6852 72.1799 20.0801C72.0799 20.2101 71.9699 20.3401 71.8599 20.5001C71.8374 20.5276 71.8079 20.5486 71.7745 20.5609C71.7411 20.5732 71.705 20.5764 71.6699 20.5701V20.5701ZM71.0699 18.8901C71.3308 19.2306 71.546 19.6037 71.7099 20.0001C71.7522 19.9509 71.7891 19.8972 71.8199 19.8401C72.128 19.5139 72.3483 19.1147 72.4599 18.6801C72.4599 18.4901 72.3599 18.3001 72.3099 18.1401C72.1661 18.3438 71.9817 18.5156 71.7683 18.6446C71.5549 18.7737 71.3171 18.8573 71.0699 18.8901Z" fill="#D8B56E"></path><path d="M76.6301 37.5701C76.4077 37.5886 76.1841 37.5508 75.9801 37.4601C75.9112 37.4096 75.8646 37.3343 75.8501 37.2501C75.8461 37.2106 75.8502 37.1707 75.8623 37.1329C75.8743 37.095 75.894 37.06 75.9201 37.0301C75.9801 36.9601 76.1801 36.7501 78.2401 36.9701C78.2907 36.9789 78.3368 37.0044 78.3713 37.0424C78.4057 37.0805 78.4264 37.1289 78.4301 37.1801C78.4306 37.231 78.4127 37.2803 78.3796 37.3189C78.3465 37.3576 78.3005 37.3829 78.2501 37.3901C77.7159 37.4941 77.1741 37.5543 76.6301 37.5701V37.5701Z" fill="#D8B56E"></path><path d="M63.8203 37.5702C63.2763 37.5544 62.7345 37.4942 62.2003 37.3902C62.1518 37.3808 62.1081 37.3546 62.0771 37.3162C62.046 37.2778 62.0294 37.2296 62.0303 37.1802C62.0301 37.1278 62.0494 37.0772 62.0846 37.0384C62.1197 36.9995 62.1682 36.9752 62.2203 36.9702C64.2803 36.7502 64.4803 36.9702 64.5403 37.0302C64.5886 37.0931 64.6134 37.171 64.6103 37.2502C64.603 37.2931 64.5868 37.3339 64.5626 37.3701C64.5385 37.4063 64.5071 37.437 64.4703 37.4602C64.2663 37.5508 64.0428 37.5887 63.8203 37.5702V37.5702Z" fill="#D8B56E"></path><path d="M70.5201 19.3102C70.614 19.3102 70.6901 19.2341 70.6901 19.1402C70.6901 19.0463 70.614 18.9702 70.5201 18.9702C70.4262 18.9702 70.3501 19.0463 70.3501 19.1402C70.3501 19.2341 70.4262 19.3102 70.5201 19.3102Z" fill="#D8B56E"></path><path d="M70.5803 35.73C70.7129 35.73 70.8203 35.6226 70.8203 35.49C70.8203 35.3575 70.7129 35.25 70.5803 35.25C70.4478 35.25 70.3403 35.3575 70.3403 35.49C70.3403 35.6226 70.4478 35.73 70.5803 35.73Z" fill="#D8B56E"></path><path d="M70.5803 33.2901C70.7129 33.2901 70.8203 33.1826 70.8203 33.0501C70.8203 32.9175 70.7129 32.8101 70.5803 32.8101C70.4478 32.8101 70.3403 32.9175 70.3403 33.0501C70.3403 33.1826 70.4478 33.2901 70.5803 33.2901Z" fill="#D8B56E"></path><path d="M70.5803 30.9502C70.7129 30.9502 70.8203 30.8428 70.8203 30.7102C70.8203 30.5777 70.7129 30.4702 70.5803 30.4702C70.4478 30.4702 70.3403 30.5777 70.3403 30.7102C70.3403 30.8428 70.4478 30.9502 70.5803 30.9502Z" fill="#D8B56E"></path><path d="M70.5803 28.8301C70.7129 28.8301 70.8203 28.7226 70.8203 28.5901C70.8203 28.4575 70.7129 28.3501 70.5803 28.3501C70.4478 28.3501 70.3403 28.4575 70.3403 28.5901C70.3403 28.7226 70.4478 28.8301 70.5803 28.8301Z" fill="#D8B56E"></path><path d="M70.5803 26.3902C70.7129 26.3902 70.8203 26.2827 70.8203 26.1502C70.8203 26.0176 70.7129 25.9102 70.5803 25.9102C70.4478 25.9102 70.3403 26.0176 70.3403 26.1502C70.3403 26.2827 70.4478 26.3902 70.5803 26.3902Z" fill="#D8B56E"></path><path d="M70.5803 24.0501C70.7129 24.0501 70.8203 23.9426 70.8203 23.8101C70.8203 23.6775 70.7129 23.5701 70.5803 23.5701C70.4478 23.5701 70.3403 23.6775 70.3403 23.8101C70.3403 23.9426 70.4478 24.0501 70.5803 24.0501Z" fill="#D8B56E"></path><path d="M70.5803 21.8701C70.7129 21.8701 70.8203 21.7627 70.8203 21.6301C70.8203 21.4976 70.7129 21.3901 70.5803 21.3901C70.4478 21.3901 70.3403 21.4976 70.3403 21.6301C70.3403 21.7627 70.4478 21.8701 70.5803 21.8701Z" fill="#D8B56E"></path><path d="M70.1903 19.7901H69.8503C69.7997 19.7879 69.7515 19.7675 69.7147 19.7325C69.678 19.6976 69.6551 19.6506 69.6503 19.6001C69.6222 19.4513 69.6246 19.2984 69.6572 19.1506C69.6899 19.0028 69.7522 18.8632 69.8403 18.7401C69.8856 18.6895 69.9411 18.649 70.0031 18.6214C70.0652 18.5939 70.1324 18.5798 70.2003 18.5801H70.4803V19.0001H70.2003C70.1406 19.1034 70.1095 19.2208 70.1103 19.3401C70.4946 19.3503 70.8792 19.3303 71.2603 19.2801L71.3103 19.7001C70.9397 19.7577 70.5654 19.7878 70.1903 19.7901V19.7901Z" fill="#D8B56E"></path><path d="M70.0701 19.5801H69.6401V39.1301H70.0701V19.5801Z" fill="#D8B56E"></path><path d="M69.8102 19.7901C69.6183 19.7865 69.4273 19.763 69.2402 19.72L69.3502 19.3C69.5128 19.3458 69.6815 19.3661 69.8502 19.3601V19.7901H69.8102Z" fill="#D8B56E"></path><path d="M62.2202 35.8701V35.4501L62.5502 35.4001C63.4002 35.2901 64.2102 35.1801 64.5502 35.5001L64.2802 35.8201C64.0502 35.6301 63.2802 35.7401 62.5902 35.8201L62.2202 35.8701Z" fill="#D8B56E"></path><path d="M78.2099 35.8702C77.5332 35.6786 76.8166 35.6786 76.1399 35.8702L75.9399 35.5002C76.7014 35.2594 77.5185 35.2594 78.2799 35.5002L78.2099 35.8702Z" fill="#D8B56E"></path></svg>