<svg xmlns="http://www.w3.org/2000/svg" width="50" height="41" viewBox="0 0 50 41" fill="none"><path d="M3.65071 0.983721C3.54326 1.00599 3.24044 1.10622 2.97669 1.20645L2.50781 1.3735L7.7632 7.38724C16.6329 17.5104 22.3572 23.8805 22.8846 24.2146C24.1936 25.0387 25.7956 25.0387 27.1046 24.2146C27.6321 23.8805 33.3563 17.5104 42.226 7.38724L47.4814 1.38464L47.0125 1.17304C46.5534 0.972584 45.8403 0.961448 25.19 0.950311C13.4484 0.939175 3.75816 0.950311 3.65071 0.983721Z" fill="#D8B56E"></path><path d="M0.22101 4.32545C0.0451797 4.83778 0.0354114 5.584 0.00610637 20.6198C-0.0134303 36.3683 -0.00366195 36.9586 0.308925 37.8162L0.426145 38.1281L7.9966 29.5521L15.5671 20.965L11.269 16.0533C8.90506 13.3469 5.49591 9.48216 3.68877 7.46625L0.39684 3.80199L0.22101 4.32545Z" fill="#D8B56E"></path><path d="M41.9807 12.3667L34.4199 20.9534L41.9807 29.5402C47.6073 35.9106 49.5708 38.0824 49.6294 37.9599C49.6685 37.8708 49.7661 37.5032 49.8541 37.1468C49.9811 36.5788 50.0006 34.4962 50.0006 20.9534C50.0006 7.41068 49.9811 5.32804 49.8541 4.76005C49.7661 4.40366 49.6685 4.03613 49.6294 3.94703C49.5708 3.82453 47.6073 5.99627 41.9807 12.3667Z" fill="#D8B56E"></path><path d="M10.0383 31.9577L2.47754 40.5229L3.0148 40.7345C3.53252 40.935 4.14793 40.9462 24.9937 40.9462C45.6928 40.9462 46.4548 40.935 46.9627 40.7345L47.4805 40.5341L43.2019 35.6333C40.838 32.9378 37.4288 29.084 35.6119 27.0569L32.3199 23.3701L30.9719 24.8626C30.2393 25.6869 29.3699 26.5556 29.0573 26.7895C27.0255 28.3266 24.3978 28.6051 22.1511 27.5358C21.1547 27.0569 20.4611 26.4665 19.0252 24.8738C18.2925 24.0718 17.6674 23.4035 17.6381 23.4035C17.6185 23.4035 14.1898 27.2573 10.0383 31.9577Z" fill="#D8B56E"></path></svg>