<svg xmlns="http://www.w3.org/2000/svg" width="83" height="83" viewBox="0 0 83 83" fill="none"><path d="M34.0123 0.864936C5.60735 6.42244 -8.64265 37.4874 5.79735 62.4249C10.1673 69.9774 17.5773 76.4374 25.6998 79.7149C31.2098 81.9474 34.5823 82.5649 41.3748 82.5649C46.0773 82.5649 48.6423 82.3274 51.0173 81.7099C66.5498 77.5774 77.4273 66.6999 81.5598 51.1674C82.7473 46.6549 82.7473 36.3949 81.5598 31.8824C77.4748 16.3974 66.5023 5.42494 51.1123 1.38744C47.1223 0.342436 38.1448 0.057436 34.0123 0.864936ZM47.5498 2.14744C51.9673 2.85994 57.2398 4.71244 61.3248 6.99244C66.1698 9.69994 73.1998 16.7299 75.9073 21.5749C82.9848 34.2574 82.9848 48.7924 75.9073 61.4749C73.1998 66.3199 66.1698 73.3499 61.3248 76.0574C48.6423 83.1349 34.1073 83.1349 21.4248 76.0574C16.5798 73.3499 9.54985 66.3199 6.84235 61.4749C-0.235154 48.7924 -0.235154 34.2574 6.84235 21.5749C9.54985 16.7299 16.5798 9.69994 21.4248 6.99244C29.5473 2.43244 38.8573 0.722436 47.5498 2.14744Z" fill="#D8B56E"></path><path d="M36.6724 7.46755C34.7724 8.41755 34.4399 9.36755 35.1049 11.9325C35.8174 14.545 36.2449 14.925 38.5724 14.925C41.0424 14.925 42.0399 13.6425 41.6599 10.9825C41.1849 7.84755 38.9524 6.28005 36.6724 7.46755ZM38.9049 9.17755C39.2849 9.36755 39.6649 10.46 39.8074 11.5525C40.0449 13.405 39.9974 13.5 38.8099 13.5C37.8599 13.5 37.4324 13.1675 37.0524 12.2175C36.1499 9.84255 37.1949 8.08505 38.9049 9.17755Z" fill="#D8B56E"></path><path d="M26.7448 7.94252C23.6098 9.60502 23.5623 13.5 26.6973 16.445C29.0723 18.6775 31.1148 18.8675 33.0148 17.015C35.1048 14.8775 34.6773 11.5525 31.9698 8.60752C30.6398 7.18252 28.6448 6.94502 26.7448 7.94252ZM30.2123 9.55752C31.3048 9.93752 32.7298 13.2625 32.4448 14.735C32.1598 16.35 30.2123 17.11 28.8348 16.16C28.3123 15.8275 27.4573 14.735 26.9348 13.8325C26.1748 12.36 26.1273 11.9325 26.6498 10.65C27.2673 9.22502 28.4073 8.84502 30.2123 9.55752Z" fill="#D8B56E"></path><path d="M43.9873 10.4124C42.5148 11.8374 42.3723 14.8299 43.6548 16.0174C44.7473 17.0149 45.3173 17.0149 47.0748 16.1124C49.4498 14.8774 49.7348 12.1224 47.7398 10.2699C46.2198 8.93989 45.4123 8.93989 43.9873 10.4124ZM47.1698 12.3124C47.6448 13.3099 47.5973 13.6899 46.9323 14.3549C45.4598 15.8274 43.3698 13.4524 44.6998 11.8374C45.6023 10.7924 46.5523 10.9824 47.1698 12.3124Z" fill="#D8B56E"></path><path d="M50.21 14.4025C49.7825 14.8775 49.3075 16.0175 49.1175 16.9675C48.9275 18.3925 49.0225 18.725 50.115 19.4375C50.8275 19.9125 51.7775 20.15 52.4425 20.0075C53.63 19.675 55.15 17.4425 55.15 16.0175C55.15 13.785 51.7775 12.6925 50.21 14.4025ZM53.155 16.6825C53.25 17.68 53.06 18.2025 52.5375 18.44C50.97 19.01 50.4 17.68 51.3975 15.8275C52.0625 14.4975 52.965 14.925 53.155 16.6825Z" fill="#D8B56E"></path><path d="M34.4398 18.2975C32.7773 18.915 31.1623 20.1025 29.4998 21.86L27.0298 24.4725L27.2198 28.3675C27.3623 31.17 27.7423 32.8325 28.5498 34.4C30.0698 37.3925 34.0123 41.0025 37.8598 42.9025C41.6123 44.8025 41.3273 44.6125 44.5098 47.5575C47.1223 49.98 49.4498 53.0675 51.3498 56.63C52.6323 59.0525 54.2948 59.67 54.5798 57.9125C54.6748 57.39 55.0548 56.63 55.3873 56.25C55.7198 55.87 56.5748 53.9225 57.3348 51.975C58.6173 48.65 58.7123 47.985 58.6648 42C58.6173 34.7325 58.0473 32.5475 54.7223 26.9425C52.7748 23.6175 49.2123 19.865 47.0748 18.8675C43.3223 17.0625 38.1448 16.8725 34.4398 18.2975ZM44.5573 19.4375C49.9248 21.67 53.6298 26.325 56.3848 34.4C57.7623 38.5325 57.5723 45.8475 55.9098 51.025C54.7223 54.635 53.5823 56.7725 53.1073 56.2025C53.0123 56.1075 52.1573 54.825 51.1598 53.305C48.4998 49.2675 43.1798 44.4225 38.7623 42.1425C32.0648 38.675 28.5498 34.02 28.5498 28.7C28.5498 26.895 28.8823 25.5175 29.6423 24.235C30.7823 22.1925 34.3923 19.39 36.1973 19.105C39.4273 18.5825 42.8473 18.725 44.5573 19.4375Z" fill="#D8B56E"></path><path d="M35.6748 22.7149C35.6748 23.0949 36.0548 23.7124 36.5298 24.0449C38.2398 25.2799 38.1448 25.8024 35.7223 28.1774C34.3448 29.5074 33.2998 30.9799 33.2998 31.5024C33.2998 33.0224 33.8698 32.7374 36.3398 29.8874C37.5748 28.4624 38.8573 27.2749 39.1423 27.2749C39.4748 27.2749 40.0923 27.7024 40.5673 28.2249C41.3748 29.1749 41.3273 29.2699 38.5248 31.8349C35.8173 34.3999 34.8673 36.2999 36.3873 36.2999C36.7673 36.2999 37.0998 36.1099 37.0998 35.8724C37.0998 35.1124 41.5173 31.0274 42.2298 31.1699C42.6098 31.2649 43.1798 31.6924 43.4648 32.1674C43.8923 32.9274 43.7973 33.2124 42.7998 33.8299C41.0898 35.0174 38.9998 37.2974 38.9998 38.0099C38.9998 39.1024 40.2348 38.7699 41.4223 37.2974C42.5148 36.0149 44.2248 34.8749 45.0798 34.8749C45.3173 34.8749 45.6973 35.3499 45.9823 35.9674C46.4098 36.9174 46.2673 37.2024 44.4148 38.4374C42.3248 39.8624 41.7073 41.0499 43.0848 41.0499C43.4648 41.0499 44.5573 40.4799 45.5073 39.7674C47.1223 38.5324 47.2173 38.5324 47.8348 39.3874C48.7373 40.6224 48.6898 40.7174 47.0748 41.9049C46.3148 42.5224 45.6498 43.1874 45.6498 43.4249C45.6498 44.1849 47.1698 43.9949 48.0723 43.1399C49.2598 42.0949 49.6398 42.4749 50.5898 45.8949C51.7298 49.9799 52.2048 51.0249 52.7748 51.0249C53.5348 51.0249 53.3448 49.0299 52.2998 45.6099C51.3023 42.3799 51.3498 41.5249 52.5848 41.5249C53.0123 41.5249 53.2498 41.2399 53.1073 40.9074C53.0123 40.6224 52.3473 40.3374 51.6348 40.3374C50.3523 40.2899 49.4498 39.4824 49.4498 38.2949C49.4498 38.0099 49.8773 37.7249 50.3523 37.7249C51.8248 37.7249 52.7748 37.2024 52.7748 36.4424C52.7748 35.8249 52.3473 35.7774 50.4473 36.0149C48.4048 36.2999 48.0248 36.2049 47.5973 35.3974C46.7423 33.8299 46.9798 33.5924 49.6873 33.2124C52.2048 32.9274 53.0123 32.2624 51.6348 31.7399C51.2548 31.5974 49.8298 31.6924 48.4523 31.9774C46.3148 32.3574 45.7448 32.3099 45.0798 31.6924C43.6073 30.3624 44.0823 29.7924 47.2173 29.3649C48.8798 29.1274 50.0673 28.7474 49.9248 28.4624C49.6398 27.8449 46.3148 27.7974 44.5573 28.3674C43.4648 28.7474 42.9898 28.6524 42.2773 27.8924C41.0423 26.7049 41.5173 25.2799 43.0373 25.5649C43.6548 25.6599 44.2723 25.6124 44.4623 25.4699C44.6523 25.2799 45.4598 25.1374 46.2673 25.1374C47.3123 25.1374 47.7873 24.8999 47.7873 24.4249C47.7873 23.9499 47.3598 23.7124 46.5998 23.7599C45.2223 23.8549 41.4698 24.6624 40.3773 25.0899C39.9023 25.3274 39.0948 24.8524 38.0023 23.7124C36.2448 21.9074 35.6748 21.6699 35.6748 22.7149Z" fill="#D8B56E"></path><path d="M55.0549 19.4849C52.1099 21.0524 54.3424 25.3274 57.3824 23.8549C59.2349 22.9999 59.8524 20.9574 58.7124 19.6749C57.7149 18.5349 56.8124 18.4874 55.0549 19.4849ZM57.6199 20.7199C57.9999 21.7174 57.5249 22.5249 56.5274 22.5249C55.6249 22.5249 55.2449 21.1474 55.9574 20.4824C56.4799 19.9599 57.4299 20.1024 57.6199 20.7199Z" fill="#D8B56E"></path><path d="M35.105 50.5499C35.2475 55.3949 35.1525 56.5824 34.345 58.2924C31.875 63.7549 31.7325 64.2299 31.97 67.3649C32.2075 69.7874 32.4925 70.7849 33.5375 72.0199C35.8175 74.8224 37.955 76.1049 40.7575 76.4849C44.035 76.8649 46.5525 76.1524 48.785 74.2049C51.4925 71.7824 52.0625 70.3574 52.015 65.5124C51.9675 61.8549 51.7775 60.8099 50.6375 58.3874C48.215 53.2574 38.81 44.8499 35.485 44.8499C35.105 44.8499 35.01 46.5599 35.105 50.5499ZM37.67 47.1299C37.765 47.3199 39.095 48.4599 40.6625 49.6949C47.9775 55.2999 50.4 59.5749 50.4 66.7949C50.4 70.5949 50.4 70.6424 48.69 72.2099C46.3625 74.4424 42.42 75.5824 39.8075 74.7749C36.91 73.9199 35.8175 73.0174 34.4875 70.3574C32.9675 67.3174 32.8725 64.0399 34.25 62.2824C36.1025 59.9549 36.7675 57.2474 36.815 51.8324C36.8625 47.3674 37.1 45.8474 37.67 47.1299Z" fill="#D8B56E"></path><path d="M38.9997 51.025C38.4297 51.405 38.4772 51.7375 39.3797 53.305C40.7097 55.68 40.7097 55.68 39.1422 55.87C37.1472 56.1075 37.1472 57.5325 39.0947 58.055C39.9497 58.245 40.7097 58.7675 40.8047 59.195C40.8997 59.8125 40.5672 59.9075 38.8572 59.7175C37.4797 59.5275 36.6247 59.67 36.3872 60.05C35.9122 60.81 36.8147 61.3325 39.0947 61.7125C40.1872 61.9025 40.8997 62.2825 40.8997 62.71C40.8997 63.2325 40.2347 63.3275 37.9547 63.2325C33.2997 63.09 34.4872 64.8 39.8547 66.0825C40.5197 66.225 40.8997 66.7 40.8997 67.27C40.8997 67.9825 40.7097 68.125 40.0922 67.8875C35.7697 66.13 35.2947 66.035 34.4872 66.7C33.7747 67.27 33.8697 67.46 35.5322 68.315C36.5297 68.8375 38.0972 69.36 38.9997 69.5025C40.4722 69.7875 40.6622 69.9775 40.6622 71.2125C40.7097 73.255 42.4672 73.255 42.7997 71.2125C42.9897 70.025 43.3222 69.74 44.6997 69.5025C47.3597 69.0275 48.9747 68.22 48.9747 67.365C48.9747 66.7475 48.6897 66.6525 47.2172 66.9375C44.4147 67.5075 43.5122 67.46 43.5122 66.795C43.5122 66.415 44.3672 65.845 45.3647 65.5125C47.3122 64.8475 48.8797 63.6125 48.4047 63.09C48.2147 62.9475 47.3597 63.09 46.4572 63.4225C44.6522 64.04 43.0847 63.7075 43.3697 62.7575C43.5122 62.4725 43.9872 62.0925 44.5097 62.045C44.9847 61.95 45.8872 61.4275 46.5047 60.8575C47.4072 60.0025 47.4547 59.8125 46.8372 59.48C46.4572 59.2425 45.7447 59.29 45.1272 59.575C44.6047 59.9075 43.8447 60.0025 43.4647 59.86C42.3722 59.4325 42.7047 58.245 44.0822 57.58C45.7447 56.7725 45.6022 56.06 43.7022 55.775C42.5147 55.585 42.1347 55.205 41.6122 53.685C40.8047 51.31 39.9497 50.455 38.9997 51.025Z" fill="#D8B56E"></path></svg>