<svg xmlns="http://www.w3.org/2000/svg" width="127" height="129" viewBox="0 0 127 129" fill="none"><path d="M56.1453 0.171387C54.815 0.266059 53.7237 0.350766 53.7188 0.350766C53.6988 0.375679 54.2868 9.16023 54.3117 9.18515C54.3516 9.22003 59.5436 8.85629 59.5884 8.81144C59.6083 8.79649 59.5934 8.44272 59.5635 8.03414L59.5087 7.28673L59.3592 7.29669C58.3079 7.36645 55.9859 7.47109 55.961 7.44617C55.9261 7.41129 55.7766 5.42319 55.8065 5.39329C55.8165 5.38831 56.5191 5.32851 57.3661 5.26872C58.2182 5.20893 58.9257 5.14914 58.9407 5.1292C58.9556 5.10927 58.9506 4.76546 58.9207 4.35688L58.8709 3.62442H58.7164C58.6317 3.62442 57.9242 3.66926 57.1469 3.72407C56.1453 3.79882 55.7218 3.81376 55.6969 3.7739C55.657 3.71411 55.5275 1.78081 55.5624 1.75091C55.5773 1.73596 58.8061 1.53167 59.0802 1.53167C59.135 1.53167 59.14 1.42205 59.1151 0.918797C59.0951 0.584954 59.0652 0.236163 59.0503 0.146474C59.0154 -0.0528357 59.2795 -0.0528357 56.1453 0.171387Z" fill="#D8B56E"></path><path d="M64.367 0.161387C63.4601 0.400558 62.8124 0.789211 62.1447 1.49178C61.492 2.18438 61.1232 2.98161 60.9538 4.05788C60.8542 4.67574 60.909 5.28363 61.1083 5.92641C61.3674 6.73859 61.7212 7.30662 62.359 7.91452C63.7143 9.20504 65.7223 9.51397 67.4314 8.68684C67.8848 8.47258 68.3582 8.14372 68.6173 7.87465L68.7518 7.73015L68.1489 7.17209L67.546 6.61901L67.2719 6.83825C66.968 7.08738 66.4946 7.33154 66.1608 7.40628C65.8319 7.48102 65.0297 7.47105 64.7158 7.38635C63.7591 7.13223 62.9519 6.32502 62.6978 5.36834C62.6031 5.0046 62.6031 4.17249 62.6978 3.80376C62.8921 3.06134 63.4402 2.36375 64.1029 2.01496C64.5613 1.77579 64.945 1.68112 65.4632 1.68112C66.2505 1.68112 66.9431 1.96514 67.4962 2.51822L67.8101 2.83213L68.4528 2.37372C68.8116 2.12458 69.1155 1.90036 69.1305 1.87545C69.1753 1.80071 68.3482 1.00845 67.9645 0.759315C67.1972 0.266024 66.5744 0.0816635 65.5878 0.0567498C64.9101 0.0368189 64.7955 0.0467844 64.367 0.161387Z" fill="#D8B56E"></path><path d="M48.3623 1.12783C46.3194 1.53642 45.7314 1.67095 45.7314 1.72576C45.7314 1.83538 47.4306 10.321 47.4555 10.3509C47.4854 10.3758 49.0699 10.0669 49.1097 10.027C49.1247 10.012 48.9902 9.20982 48.8108 8.24317C48.6314 7.28151 48.5018 6.4743 48.5168 6.45935C48.5317 6.43942 49.2194 6.29492 50.0415 6.13548C50.8637 5.97603 51.5413 5.8415 51.5513 5.83651C51.5762 5.82157 51.2822 4.37657 51.2473 4.34169C51.2324 4.32675 50.5248 4.4563 49.6728 4.62571C48.8207 4.79512 48.1082 4.92467 48.0933 4.90973C48.0683 4.87983 47.6697 2.86681 47.6897 2.84688C47.6946 2.84189 48.4819 2.67746 49.4386 2.48314C50.4003 2.28383 51.1925 2.1194 51.2025 2.10445C51.2324 2.07455 51.058 0.66444 51.0181 0.62956C51.0032 0.614612 49.8073 0.838835 48.3623 1.12783Z" fill="#D8B56E"></path><path d="M71.1686 0.794096C71.1387 0.878803 70.8497 2.25404 70.8596 2.25902C70.8646 2.264 71.3629 2.37362 71.9608 2.49819C72.5637 2.62774 73.062 2.73736 73.067 2.74234C73.0769 2.74733 72.7481 4.34678 72.3345 6.29005C71.8512 8.59207 71.612 9.83277 71.6469 9.8527C71.7216 9.90253 73.2464 10.2115 73.2713 10.1816C73.2862 10.1716 73.625 8.57712 74.0286 6.64382C74.4322 4.70554 74.7761 3.11107 74.796 3.09612C74.8109 3.08117 75.3092 3.17086 75.9021 3.30041C76.4951 3.42996 76.9884 3.52463 76.9984 3.51467C77.0382 3.47481 77.3222 2.01487 77.2973 1.98995C77.2824 1.97002 71.3031 0.739286 71.2034 0.734303C71.1985 0.734303 71.1785 0.7642 71.1686 0.794096Z" fill="#D8B56E"></path><path d="M40.669 3.12576C40.5295 3.15067 39.513 3.48452 38.4019 3.8632C36.7177 4.4412 36.3888 4.56577 36.4038 4.63553C36.4187 4.73518 39.2091 12.9069 39.234 12.9368C39.2589 12.9667 40.8484 12.4435 40.8484 12.4086C40.8484 12.3936 40.5893 11.6213 40.2654 10.6895C39.9316 9.70795 39.7073 8.98545 39.7323 8.96054C39.7572 8.93562 40.0661 8.82102 40.4199 8.70642L41.0577 8.49714L42.4877 9.91722L43.9128 11.3373L44.7997 11.0334L45.6916 10.7294L45.2232 10.276C44.9691 10.0268 44.2815 9.36414 43.6935 8.80109L42.6272 7.77963L42.8813 7.52551C43.559 6.84786 43.7882 5.96093 43.5341 4.99428C43.4195 4.5558 43.28 4.28674 42.991 3.96286C42.4429 3.34002 41.4663 2.98624 40.669 3.12576ZM41.531 4.84978C41.7702 4.9893 41.9147 5.17366 42.0193 5.47263C42.1638 5.87124 42.0841 6.22003 41.7802 6.53395C41.5858 6.73326 41.4961 6.77312 40.4448 7.12689C39.8269 7.33617 39.2988 7.51056 39.2739 7.51056C39.2489 7.51056 39.0745 7.04717 38.8852 6.48412C38.6111 5.65699 38.5563 5.44771 38.6111 5.41283C38.6759 5.37297 40.4847 4.76508 40.7238 4.70528C40.9132 4.65546 41.3218 4.72522 41.531 4.84978Z" fill="#D8B56E"></path><path d="M81.7814 7.99909C80.8845 10.2413 80.1421 12.0949 80.1272 12.1248C80.1072 12.1746 81.5472 12.7925 81.6868 12.7925C81.7166 12.7925 82.0355 12.0401 82.4043 11.1233C82.773 10.2064 83.0869 9.45405 83.1068 9.45405C83.1268 9.45405 83.7695 9.71315 84.5419 10.032C85.3142 10.3509 85.957 10.6001 85.9669 10.5901C86.0317 10.5303 86.5748 9.17502 86.5449 9.1501C86.53 9.13516 85.8822 8.86609 85.1099 8.55716C84.3326 8.25321 83.6998 7.97418 83.6998 7.94927C83.6998 7.91937 83.8692 7.47591 84.0785 6.96269L84.4522 6.03092L86.1015 6.71853C87.0083 7.1022 87.7657 7.41113 87.7856 7.41113C87.8205 7.41113 88.4035 5.97112 88.3786 5.94621C88.3686 5.93624 87.686 5.66219 86.8638 5.32835C86.0417 4.99949 84.9255 4.54606 84.3874 4.3318L83.4058 3.93319L81.7814 7.99909Z" fill="#D8B56E"></path><path d="M31.0825 6.94275C29.8069 7.5905 28.7456 8.13362 28.7207 8.15854C28.6709 8.20836 32.6222 16.0312 32.6969 16.0312C32.7517 16.0312 37.3657 13.6993 37.4305 13.6395C37.4604 13.6047 36.8774 12.3939 36.7877 12.2992C36.7778 12.2892 36.0453 12.643 35.1634 13.0914C34.2864 13.5349 33.5489 13.8787 33.524 13.8588C33.5041 13.8339 33.2799 13.4153 33.0307 12.932L32.5723 12.05L32.7866 11.9305C32.9062 11.8607 33.534 11.5418 34.1867 11.2129C34.8345 10.8891 35.3676 10.615 35.3676 10.6001C35.3676 10.5652 34.7299 9.34443 34.69 9.30955C34.675 9.2946 34.0373 9.59356 33.2749 9.97723C32.5125 10.3609 31.8748 10.6599 31.8648 10.6499C31.8498 10.635 31.6406 10.2214 31.3914 9.7281C30.9878 8.93584 30.948 8.82622 31.0177 8.77141C31.0626 8.73653 31.7601 8.36781 32.5723 7.95424C33.3845 7.53569 34.0721 7.17694 34.107 7.15202C34.1519 7.11216 34.0821 6.93777 33.823 6.44946C33.6337 6.08572 33.4593 5.78676 33.4393 5.78177C33.4194 5.77181 32.3581 6.29499 31.0825 6.94275Z" fill="#D8B56E"></path><path d="M90.6861 7.24646C90.6612 7.29629 89.7394 9.04523 88.6382 11.133C87.542 13.2208 86.6401 14.9448 86.6401 14.9697C86.6401 15.0195 88.135 15.8018 88.1649 15.7669C88.1898 15.742 91.8072 8.8808 92.1012 8.29782L92.2706 7.96398L91.5182 7.56536C91.1047 7.34114 90.7559 7.16176 90.7459 7.16176C90.7359 7.16176 90.711 7.20162 90.6861 7.24646Z" fill="#D8B56E"></path><path d="M94.0587 9.71306C93.8344 10.0469 93.6501 10.3459 93.6451 10.3807C93.6401 10.4156 94.0587 10.7196 94.5719 11.0584L95.5037 11.6713L93.5156 14.7107C92.4194 16.38 91.5225 17.7602 91.5225 17.7801C91.5225 17.8 91.8414 18.0193 92.23 18.2734C92.8927 18.7069 92.9376 18.7268 93.0023 18.6421C93.0422 18.5873 93.9391 17.217 95.0004 15.5977C96.0617 13.9733 96.9437 12.6429 96.9586 12.6429C96.9736 12.6429 97.3871 12.902 97.8804 13.2209C98.3687 13.5398 98.7923 13.8089 98.8222 13.8188C98.862 13.8388 99.729 12.6877 99.7639 12.5731C99.7639 12.5582 98.9866 12.04 98.0249 11.4172C97.0682 10.7943 95.8724 10.022 95.3691 9.69811L94.4623 9.11015L94.0587 9.71306Z" fill="#D8B56E"></path><path d="M25.1528 10.6002C24.7193 10.6799 24.3307 10.8693 23.658 11.3227C21.5802 12.7428 20.7431 13.3357 20.7481 13.3955C20.7531 13.4603 25.5315 20.4012 25.681 20.5607C25.7358 20.6205 25.8554 20.5557 26.4682 20.1421L27.1907 19.6538L27.1011 19.5243C27.0512 19.4545 26.5828 18.7819 26.0547 18.0345C25.5265 17.287 25.103 16.6542 25.1129 16.6293C25.1329 16.5695 26.9167 15.3537 27.1309 15.2541C27.4947 15.0797 27.9631 14.3921 28.1175 13.8141C28.3816 12.7876 27.9182 11.6217 26.9914 11.0038C26.4882 10.665 25.7059 10.4956 25.1528 10.6002ZM25.8902 12.3392C26.1693 12.4787 26.533 12.8973 26.5779 13.1115C26.6277 13.3856 26.5779 13.7094 26.4483 13.9137C26.3786 14.0234 26.1743 14.1977 25.9301 14.3622C25.7109 14.5067 25.2325 14.8256 24.8788 15.0697L24.226 15.5182L23.6131 14.6263C23.0999 13.8739 23.0102 13.7194 23.065 13.6646C23.1896 13.55 24.9585 12.3392 25.0681 12.2943C25.2674 12.2146 25.6959 12.2395 25.8902 12.3392Z" fill="#D8B56E"></path><path d="M104.02 18.124C103.318 18.2386 102.58 18.5176 102.052 18.8764C101.708 19.1106 101.165 19.6437 100.911 19.9975C100.622 20.4011 100.318 21.0488 100.188 21.5372C100.029 22.1251 100.029 23.1665 100.188 23.7545C100.557 25.1446 101.469 26.2259 102.76 26.8238C102.964 26.9185 103.198 27.0082 103.283 27.0281C103.367 27.0431 103.447 27.073 103.462 27.0979C103.477 27.1228 103.427 27.2474 103.352 27.3769L103.213 27.6111L103.651 28.0247C103.896 28.2539 104.105 28.4382 104.125 28.4382C104.14 28.4382 104.937 27.6559 105.894 26.6993L107.638 24.9553L106.84 24.1232C106.407 23.6648 105.829 23.0619 105.565 22.7878L105.081 22.2846L104.543 22.8177L104.005 23.3558L104.728 24.0783L105.45 24.8008L105.076 25.1795L104.703 25.5582L104.364 25.5233C102.864 25.3838 101.793 24.2129 101.788 22.723C101.788 22.2447 101.863 21.9059 102.067 21.4873C102.306 20.9841 102.62 20.6153 103.049 20.3313C103.547 19.9975 103.94 19.863 104.528 19.8331C105.704 19.7683 106.711 20.3463 107.209 21.3628C107.423 21.8012 107.548 22.3493 107.508 22.6882C107.498 22.7828 107.498 22.8576 107.518 22.8576C107.533 22.8576 107.837 22.8925 108.191 22.9323C108.549 22.9722 108.913 23.0071 109.003 23.0071H109.162V22.5437C109.157 20.4908 107.672 18.6771 105.605 18.1987C105.201 18.104 104.384 18.0692 104.02 18.124Z" fill="#D8B56E"></path><path d="M19.1438 22.0803C18.7352 22.2596 15.9848 25.1546 14.2607 27.2175C12.447 29.3899 10.6184 31.9311 9.1335 34.3428C7.4045 37.153 5.66054 40.5961 4.47465 43.5608C1.80391 50.2128 0.38383 56.77 0.0350385 64.0398C-0.029737 65.3902 0.00015936 69.2119 0.0848658 70.4426C0.677811 78.9482 2.68585 86.4821 6.31826 93.8366C10.6184 102.551 16.8717 110.075 24.6746 115.93C33.1752 122.308 43.2403 126.374 53.8037 127.689C56.7435 128.058 58.4875 128.163 61.502 128.163C63.8688 128.163 64.9351 128.123 66.8086 127.963C75.1995 127.256 83.4509 124.794 90.8503 120.793C94.1389 119.014 97.1833 116.991 100.118 114.634C105.719 110.14 110.612 104.534 114.254 98.4506C114.698 97.7081 114.742 97.6085 114.742 97.3843C114.742 96.6767 113.995 96.2731 113.407 96.6618C113.268 96.7564 113.093 97.0006 112.7 97.6533C112.107 98.6449 110.697 100.763 110.029 101.684C104.822 108.825 98.2895 114.615 90.5762 118.92C89.4751 119.537 87.0435 120.748 85.8277 121.281C71.7515 127.5 55.7818 128.063 41.297 122.851C30.4297 118.94 20.8529 111.869 13.8372 102.576C7.15536 93.722 3.06454 83.1337 2.06301 72.087C1.87865 70.0739 1.85872 69.5408 1.85872 66.6059C1.85872 63.1629 1.92349 61.987 2.28723 59.087C3.63257 48.2446 7.96755 37.9453 14.7839 29.3949C16.2339 27.5762 17.2603 26.4252 18.9844 24.6713C19.6919 23.9588 20.2898 23.311 20.3197 23.2363C20.5938 22.5038 19.8514 21.7713 19.1438 22.0803Z" fill="#D8B56E"></path><path d="M109.989 26.3705C108.678 27.3123 107.517 28.1693 107.407 28.2739C106.705 28.9615 106.321 30.0876 106.466 31.0443C106.536 31.4778 106.705 31.9811 106.879 32.2701C106.939 32.3697 107.153 32.6637 107.353 32.9278C107.891 33.6453 108.359 33.9991 109.087 34.2432C109.859 34.5023 110.736 34.4575 111.488 34.1187C111.767 33.9891 116.685 30.5162 116.685 30.4464C116.685 30.3916 115.729 29.0861 115.684 29.0861C115.659 29.0861 114.573 29.8534 113.262 30.7902C111.952 31.727 110.781 32.5292 110.656 32.579C109.724 32.9278 108.703 32.5043 108.274 31.5874C108.16 31.3433 108.14 31.2386 108.14 30.8301C108.14 30.4165 108.16 30.3168 108.279 30.0528C108.359 29.8784 108.524 29.6492 108.653 29.5196C108.783 29.395 109.919 28.5729 111.179 27.686C112.44 26.804 113.481 26.0716 113.486 26.0666C113.516 26.0466 112.45 24.6515 112.41 24.6515C112.39 24.6515 111.304 25.4238 109.989 26.3705Z" fill="#D8B56E"></path><path d="M47.1019 38.4233L31.2568 42.5689L31.2618 44.6866C31.2768 49.9583 31.7551 56.112 32.5773 61.5731C32.9061 63.7704 33.4492 66.6305 33.7731 67.9011C33.8279 68.1204 33.9525 68.7233 34.0472 69.2365C35.3227 76.0977 37.4952 82.072 40.156 86.0134C40.3952 86.3671 40.7489 86.8554 40.9383 87.0896C41.1276 87.3288 41.3568 87.6278 41.4465 87.7623C41.5412 87.8968 41.8451 88.3104 42.1242 88.6791C45.0191 92.4909 50.3108 97.0651 57.4909 101.968C59.1701 103.114 61.9804 104.923 63.0516 105.541L63.2011 105.63L64.2226 104.998C69.1754 101.908 73.6549 98.5698 77.5464 95.062C78.4881 94.2149 81.2984 91.4047 82.0608 90.5476C83.5855 88.8386 84.9507 87.0896 85.9722 85.54C86.9787 84.0103 87.3524 83.3127 88.06 81.6535C92.8484 70.4074 95.3995 58.2994 95.2451 47.5716C95.2251 46.4604 95.1902 45.2496 95.1604 44.8809C95.1055 44.1584 94.971 42.9127 94.9311 42.6885L94.9013 42.554L79.0213 38.4083C70.2866 36.1312 63.0965 34.2677 63.0417 34.2727C62.9918 34.2727 55.8167 36.1412 47.1019 38.4233ZM78.2091 39.9181C86.5502 42.0906 93.3815 43.8794 93.3865 43.8893C93.4313 43.9392 93.521 45.3792 93.5709 46.8092C93.6257 48.5233 93.5758 50.915 93.4413 52.9181C92.8035 62.1909 90.4616 71.7279 86.5402 80.9808C85.9074 82.4756 85.3195 83.5519 84.4076 84.8922C80.2171 91.0559 72.9623 97.5185 63.6346 103.398L63.1812 103.687L62.1647 103.049C60.8044 102.192 58.029 100.334 56.6189 99.3422C50.1663 94.783 45.3032 90.3882 42.9114 86.9501C42.7221 86.681 42.4132 86.2725 42.2288 86.0383C40.9532 84.4488 39.4883 81.6933 38.3572 78.7436C37.3208 76.0379 36.4339 72.8141 35.7662 69.3461C35.6516 68.7582 35.4523 67.7915 35.3178 67.2035C34.0671 61.6976 33.215 54.5125 32.9809 47.4719C32.8712 44.268 32.8663 43.8844 32.946 43.8545C32.9858 43.8395 39.7773 42.0557 48.0337 39.8982C56.2901 37.7357 63.0467 35.9668 63.0467 35.9668C63.0467 35.9618 69.868 37.7407 78.2091 39.9181Z" fill="#D8B56E"></path><path d="M49.2694 41.9563L35.4922 45.6036L35.5071 47.0735C35.5719 54.164 36.3791 61.6979 37.7045 67.6273C37.8141 68.1206 38.0184 69.1072 38.1579 69.8197C39.0897 74.6031 40.6593 79.1673 42.468 82.3513C42.7919 82.9243 43.6738 84.2497 43.9728 84.6184C44.1023 84.7828 44.3864 85.1665 44.6006 85.4705C47.1468 89.1079 52.563 93.8215 59.6833 98.595C60.5952 99.2029 62.6431 100.523 63.0517 100.757L63.2012 100.847L64.0482 100.314C69.1655 97.0553 73.4506 93.7169 76.9934 90.229C80.1873 87.0799 82.3897 84.3095 83.8895 81.5789C84.6518 80.1838 86.3509 75.784 87.3325 72.6599C88.3291 69.4908 89.0017 66.9098 89.5997 63.9052C90.6261 58.7979 91.1393 53.1674 90.9749 48.7926C90.9251 47.3526 90.7955 45.6834 90.7357 45.6186C90.7058 45.5937 63.0816 38.294 63.0567 38.3089C63.0517 38.3089 56.8482 39.9532 49.2694 41.9563ZM76.819 42.3599C84.2532 44.3181 90.3471 45.9325 90.357 45.9375C90.3869 45.9724 90.4766 47.0636 90.5264 47.9953C90.5912 49.2111 90.5912 51.5829 90.5264 52.9532C90.1777 60.4273 88.623 68.0608 85.9075 75.5748C85.1003 77.812 84.029 80.4279 83.5855 81.2551C81.428 85.2811 77.1428 90.0097 71.6917 94.3646C69.9129 95.7897 68.0842 97.1251 66.0363 98.5053C64.7906 99.3424 63.246 100.339 63.1912 100.339C63.1065 100.339 60.4955 98.6498 59.0107 97.6333C52.9467 93.4777 48.3177 89.5164 45.6968 86.2278C45.4228 85.884 45.0441 85.3808 44.8547 85.1117C44.6654 84.8426 44.4063 84.4839 44.2718 84.3195C43.6838 83.592 42.9264 82.3662 42.2936 81.1305C40.6095 77.827 39.3189 73.781 38.4121 68.9726C38.3074 68.3946 38.1729 67.7469 38.1131 67.5276C37.9487 66.8749 37.5301 64.7224 37.3109 63.4169C36.7279 59.8792 36.3243 56.1371 36.0901 52.0563C35.9954 50.3472 35.9058 47.4024 35.9257 46.5803L35.9406 45.9175L49.4687 42.335C57.7899 40.1326 63.0567 38.7623 63.1463 38.7723C63.2311 38.7873 69.3797 40.3967 76.819 42.3599Z" fill="#D8B56E"></path><path d="M63.3902 40.2173C63.2009 40.302 62.9717 40.7305 62.9717 40.9896C62.9717 41.1989 63.1511 41.6025 63.3454 41.8317C63.4201 41.9214 63.6543 42.1307 63.8636 42.3001C64.9399 43.1721 65.6773 43.9693 65.9912 44.6071C66.2005 45.0356 66.4197 45.8577 66.5393 46.6799C66.624 47.2479 66.634 47.2778 66.6689 47.0735C66.7287 46.6799 66.7087 45.7531 66.634 45.1552C66.4995 44.1287 66.2404 43.2169 65.8019 42.1905C65.2837 40.9797 65.0096 40.601 64.4416 40.312C64.1376 40.1525 63.6244 40.1077 63.3902 40.2173Z" fill="#D8B56E"></path><path d="M61.7814 41.8517C61.5023 41.9016 61.2432 42.1059 61.0639 42.4198C60.9443 42.6291 60.9293 42.7038 60.9493 42.9529C60.9991 43.6306 61.4874 44.0342 62.464 44.2086C62.7032 44.2534 63.0719 44.3182 63.2812 44.3581C63.5004 44.3929 63.8293 44.5026 64.0286 44.6022C65.07 45.1055 65.6679 46.0123 65.8224 47.3328C65.8971 47.9456 65.9519 47.846 65.9569 47.0836C65.9719 45.7482 65.3789 44.4328 64.1581 43.0725C63.3908 42.2155 62.4491 41.7322 61.7814 41.8517Z" fill="#D8B56E"></path><path d="M60.4406 44.1387C60.1915 44.2135 59.7978 44.6171 59.758 44.8463C59.7131 45.0705 59.7829 45.3445 59.9423 45.5787C60.2413 46.0172 60.5602 46.092 62.1098 46.1069C63.1911 46.1169 63.3455 46.1268 63.6345 46.2215C64.4766 46.5055 65.0297 47.0337 65.244 47.7662L65.3137 47.9954L65.2888 47.7064C65.2739 47.5519 65.224 47.3277 65.1792 47.2081C64.8304 46.3112 63.6595 45.2748 62.1547 44.5324C61.3325 44.1337 60.8492 44.0241 60.4406 44.1387Z" fill="#D8B56E"></path><path d="M60.2314 46.6154C59.7232 46.725 59.5588 46.8047 59.3196 47.0688C59.0954 47.313 59.0306 47.5422 59.0904 47.8312C59.1651 48.1451 59.3595 48.3992 59.6485 48.5437C60.1019 48.7679 60.6052 48.6832 61.228 48.2746C62.2793 47.597 63.5649 47.6119 64.5016 48.3244C64.6461 48.4341 64.7657 48.4988 64.7657 48.4739C64.7657 48.3743 64.3173 47.8262 63.9785 47.5172C63.5848 47.1535 63.0517 46.8496 62.4986 46.6752C62.0103 46.5157 60.8443 46.4908 60.2314 46.6154Z" fill="#D8B56E"></path><path d="M65.2393 49.5001C64.452 49.5998 63.8441 49.7991 63.017 50.2176C60.6701 51.4085 59.1952 53.2621 58.7119 55.6189C58.5325 56.5008 58.4578 59.1267 58.5823 60.2528C58.672 61.0849 58.8713 62.216 59.0657 63.0182C59.1653 63.4169 59.2849 63.9401 59.3397 64.1892C59.6686 65.7289 60.3811 67.6073 61.4623 69.7698C62.718 72.2712 63.6697 73.751 64.7559 74.8871C65.1047 75.2509 65.2193 75.3954 65.1944 75.4601C65.0499 75.8438 63.8391 78.664 63.8192 78.664C63.8042 78.664 61.4972 73.3773 58.687 66.9147L53.5797 55.1704L51.0883 55.1605L48.5969 55.1455L48.9457 55.4844C49.1401 55.6687 49.5038 56.0125 49.7579 56.2417L50.2163 56.6653L49.7181 68.7235C49.449 75.3555 49.1998 81.1753 49.17 81.6537C49.0952 82.9741 48.8511 83.9457 48.4176 84.6732C48.1535 85.1216 47.6751 85.6 47.2915 85.8043L46.9526 85.9837L50.2562 85.9886C52.0699 85.9886 53.5548 85.9787 53.5548 85.9687C53.5548 85.9587 53.4202 85.869 53.2608 85.7694C52.3539 85.2113 51.6962 84.16 51.5916 83.0987C51.5716 82.9143 51.6314 81.2301 51.7311 79.2619C51.8257 77.3286 52.0649 72.4954 52.2592 68.5242C52.4586 64.5479 52.6329 61.2643 52.6479 61.2145C52.6728 61.1647 54.5862 65.674 57.9346 73.6564C60.8196 80.5425 63.2013 86.2029 63.2213 86.2328C63.2412 86.2677 65.6379 80.8813 68.6574 74.0351C71.6271 67.2934 74.0637 61.7875 74.0736 61.7925C74.1185 61.8423 75.0851 82.5207 75.0652 83.0987C75.0503 83.6617 75.0253 83.8361 74.9107 84.1699C74.6516 84.9423 74.1683 85.585 73.5156 86.0434L73.1718 86.2876H73.3661C73.4707 86.2876 74.9058 86.2178 76.5501 86.1381C78.1944 86.0584 79.6543 85.9886 79.7888 85.9886L80.038 85.9837L79.7739 85.8641C79.3155 85.6548 78.887 85.1167 78.5431 84.3095L78.3787 83.9208L78.299 82.4758C78.1146 79.1125 77.5466 65.39 77.2925 58.0853L77.2626 57.2134L77.8157 56.167C78.284 55.2751 78.3538 55.1156 78.2791 55.0907C78.2143 55.0658 74.9406 54.9711 74.1384 54.9711H73.974L73.6053 56.1869L73.2365 57.3977L70.0426 64.4333C68.2837 68.2999 66.8387 71.4739 66.8238 71.4889C66.764 71.5537 65.8721 70.313 65.324 69.3961C65.0649 68.9726 64.5915 68.0857 64.2676 67.428C62.439 63.7258 61.7763 61.3789 61.7763 58.5687C61.7763 57.4775 61.8361 56.8596 62.0055 56.1969C62.3194 54.9562 63.0967 53.9945 64.0035 53.7354L64.2577 53.6607L64.3175 54.0892C64.5168 55.4694 65.9219 57.0689 67.5164 57.7166C67.7456 57.8113 68.0146 57.901 68.1193 57.9159C68.2638 57.9408 68.3385 57.9957 68.473 58.18C68.9115 58.7879 69.3201 59.64 69.4945 60.3375C69.5493 60.5518 69.5942 60.6564 69.6141 60.6066C69.7137 60.3475 70.1821 57.1486 70.2768 56.0773C70.3067 55.7484 70.3316 55.6637 70.4711 55.4794C70.7751 55.0808 70.8847 54.5028 70.795 53.6906C70.7252 53.0428 70.6405 52.7389 70.3765 52.2007C70.0625 51.5729 69.7835 51.1843 69.3251 50.7358C68.4531 49.8788 67.327 49.4553 65.9767 49.4702C65.6528 49.4752 65.324 49.4901 65.2393 49.5001Z" fill="#D8B56E"></path><path d="M114.628 36.2363C112.167 36.4904 110.139 36.7096 110.129 36.7246C110.109 36.7445 110.876 38.334 110.936 38.3988C110.941 38.4087 111.265 38.3739 111.649 38.324C112.037 38.2792 112.361 38.2443 112.371 38.2593C112.416 38.2991 113.995 41.4034 113.995 41.4432C113.995 41.4632 113.776 41.7223 113.512 42.0162L113.034 42.5494L113.452 43.3915C113.681 43.8549 113.886 44.2286 113.906 44.2236C113.936 44.2136 119.476 38.1247 120.189 37.3225C120.279 37.2228 120.269 37.2029 119.915 36.4904L119.551 35.7629L119.327 35.7679C119.202 35.7729 117.09 35.9821 114.628 36.2363ZM117.095 38.339C116.626 38.8273 115.988 39.48 115.675 39.789L115.107 40.357L114.683 39.5398C114.04 38.3141 113.891 38.0051 113.931 38.0002C113.956 38.0002 114.803 37.8806 115.814 37.7311C116.831 37.5866 117.722 37.467 117.802 37.462C117.927 37.457 117.857 37.5467 117.095 38.339Z" fill="#D8B56E"></path><path d="M118.48 44.0194C116.193 44.7768 114.309 45.3996 114.299 45.4096C114.284 45.4196 114.778 46.9493 114.822 47.034C114.832 47.0489 115.61 46.8097 116.546 46.4958C117.488 46.1819 118.27 45.9278 118.285 45.9278C118.305 45.9278 118.425 46.2367 118.549 46.6104L118.779 47.298L117.897 48.1949C117.408 48.6882 116.756 49.3509 116.447 49.6648L115.889 50.2379L116.163 51.06C116.312 51.5134 116.452 51.917 116.467 51.9569C116.487 52.0067 116.945 51.5682 117.976 50.5169L119.456 48.9972L119.76 49.2961C120.114 49.6449 120.562 49.8841 121.046 49.9887C121.479 50.0784 121.609 50.0784 122.037 49.9887C122.6 49.8691 122.979 49.6599 123.383 49.2513C123.776 48.8527 123.966 48.5188 124.09 47.9857C124.24 47.3529 124.195 47.1386 123.428 44.7867C123.049 43.6258 122.715 42.6641 122.69 42.6591C122.66 42.6541 120.767 43.267 118.48 44.0194ZM122.182 45.9278C122.451 46.72 122.526 47.014 122.531 47.2482C122.536 47.876 122.107 48.3195 121.494 48.3195C121.061 48.3195 120.672 48.1052 120.498 47.7714C120.418 47.612 119.71 45.4793 119.735 45.4544C119.775 45.4196 121.699 44.8914 121.763 44.8964C121.808 44.9014 121.963 45.28 122.182 45.9278Z" fill="#D8B56E"></path><path d="M116.685 52.8334C116.685 52.8882 116.989 54.667 116.999 54.677C117.004 54.677 117.328 54.7368 117.712 54.7966L118.419 54.9162L118.703 56.6651C118.858 57.6218 118.987 58.439 118.992 58.4788C118.997 58.5187 118.758 58.6831 118.379 58.8874C117.796 59.2063 117.756 59.2362 117.771 59.3657C117.786 59.5551 118.04 61.0948 118.055 61.1147C118.07 61.1346 126.107 56.4459 126.197 56.3661C126.252 56.3113 126.242 56.1768 126.132 55.5141C126.058 55.0806 125.988 54.7169 125.973 54.7019C125.953 54.677 116.854 52.8085 116.75 52.8035C116.715 52.8035 116.685 52.8184 116.685 52.8334ZM122.037 55.544C123.078 55.7084 123.95 55.8479 123.975 55.8579C123.995 55.8629 123.202 56.3014 122.211 56.8345C121.224 57.3627 120.407 57.7912 120.402 57.7812C120.387 57.7613 119.974 55.3397 119.974 55.2749C119.974 55.2251 120.108 55.24 122.037 55.544Z" fill="#D8B56E"></path><path d="M118.131 63.1928V64.0647L121.006 64.0747L123.881 64.0896L121.006 66.3319L118.131 68.5741V69.2318V69.8945H122.565H127V69.0226V68.1506H124.105C121.728 68.1506 121.215 68.1406 121.26 68.0858C121.29 68.0509 122.595 67.0245 124.155 65.8037L126.995 63.5914L127 62.9536V62.3208H122.565H118.131V63.1928Z" fill="#D8B56E"></path><path d="M125.241 72.4707C125.226 72.5205 125.141 73.0337 125.052 73.6117L124.887 74.6581L123.093 74.394C118.514 73.7263 117.687 73.6117 117.662 73.6366C117.612 73.6865 117.398 75.2809 117.438 75.3059C117.473 75.3258 124.504 76.3722 124.608 76.3722C124.628 76.3722 124.568 76.8704 124.479 77.4783C124.389 78.0912 124.329 78.6044 124.349 78.6194C124.379 78.6493 125.864 78.8685 125.884 78.8486C125.909 78.8237 126.791 72.66 126.771 72.6401C126.761 72.6301 126.467 72.5753 126.113 72.5255C125.764 72.4757 125.43 72.4258 125.371 72.4109C125.296 72.3959 125.256 72.4109 125.241 72.4707Z" fill="#D8B56E"></path><path d="M116.397 80.3683C115.56 83.4725 115.375 84.195 115.4 84.2249C115.435 84.2548 116.845 84.6484 116.865 84.6285C116.87 84.6235 117.079 83.8562 117.333 82.9244C117.588 81.9926 117.812 81.2103 117.832 81.1904C117.852 81.1705 118.3 81.2701 118.833 81.4196C119.67 81.6588 119.8 81.7036 119.785 81.7834C119.77 81.8631 119.082 84.3744 118.998 84.6484C118.983 84.7132 119.112 84.763 119.685 84.9225C120.079 85.0271 120.418 85.1168 120.443 85.1168C120.468 85.1168 120.677 84.4441 120.901 83.622C121.26 82.3016 121.32 82.1272 121.399 82.1421C121.604 82.182 123.243 82.6653 123.278 82.7002C123.303 82.7201 123.103 83.5074 122.839 84.4392C122.57 85.3759 122.366 86.1532 122.381 86.1682C122.421 86.208 123.816 86.6017 123.836 86.5767C123.891 86.5219 125.251 81.4296 125.221 81.4047C125.176 81.3698 116.89 79.0628 116.8 79.0628C116.775 79.0628 116.591 79.6508 116.397 80.3683Z" fill="#D8B56E"></path><path d="M113.606 88.5351C113.048 89.8805 112.609 91.0016 112.634 91.0265C112.714 91.1012 113.97 91.6095 114.005 91.5796C114.024 91.5596 114.343 90.8172 114.712 89.9303C115.081 89.0434 115.395 88.3059 115.41 88.2959C115.425 88.276 117.263 89.0085 117.328 89.0633C117.338 89.0683 117.089 89.7011 116.77 90.4584C116.456 91.2208 116.187 91.8735 116.177 91.9084C116.167 91.9483 116.421 92.0778 116.875 92.2672C117.577 92.5562 117.587 92.5562 117.632 92.4515C117.781 92.0579 118.773 89.711 118.793 89.6911C118.818 89.6662 120.617 90.4036 120.681 90.4634C120.701 90.4834 120.447 91.1411 120.118 91.9184C119.785 92.7007 119.476 93.4431 119.426 93.5677L119.336 93.7969L120.029 94.0859C120.412 94.2403 120.741 94.3549 120.761 94.34C120.836 94.2603 122.809 89.5018 122.774 89.4669C122.729 89.422 114.852 86.1334 114.717 86.1035C114.627 86.0836 114.508 86.3477 113.606 88.5351Z" fill="#D8B56E"></path></svg>