<svg xmlns="http://www.w3.org/2000/svg" width="85" height="84" viewBox="0 0 85 84" fill="none"><path d="M33.661 0.952934C14.2137 5.05648 0 22.3033 0 41.5721C0 54.7749 7.3745 68.3939 18.4362 75.7684C40.084 90.1606 69.463 82.6076 80.5842 59.711C86.4719 47.6383 86.4719 35.506 80.5842 23.4333C72.2582 6.30539 52.573 -3.15062 33.661 0.952934ZM54.5356 2.61814C62.0885 4.8186 70.474 10.4089 75.2318 16.4751C78.5027 20.5191 81.6547 26.8231 82.9036 31.8188C84.1525 36.636 84.1525 46.5083 82.9036 51.3255C78.2648 69.5239 61.7911 82.0724 42.5223 82.0724C23.2535 82.0724 6.77978 69.5239 2.14098 51.3255C0.892076 46.5083 0.892076 36.636 2.14098 31.8188C6.36348 15.2262 21.1125 2.73708 38.2998 1.19082C43.5333 0.715042 49.9563 1.30976 54.5356 2.61814Z" fill="#D8B56E"></path><path d="M36.0396 4.10497C27.6541 5.59177 21.0527 9.1006 14.8082 15.3451C3.27066 26.8827 0.534959 43.1779 7.73104 57.9864C12.4888 67.7397 21.8258 75.3521 32.7092 78.2068C37.8237 79.5746 47.2203 79.5746 52.3349 78.2068C65.0023 74.8764 75.2315 65.4204 79.5135 53.0502C80.8813 49.0656 81.1192 47.4599 81.1192 41.5722C81.1192 35.7439 80.8813 34.0787 79.5729 30.2725C77.1941 23.5522 75.172 20.3408 69.9385 15.0478C64.8239 9.9332 59.412 6.72173 52.9296 4.99705C48.826 3.86708 39.9053 3.39131 36.0396 4.10497ZM55.0111 9.1006C59.8878 10.9442 64.5266 13.9178 67.7975 17.1888L70.1764 19.5676L68.9275 21.6491C66.3107 26.1095 68.9275 30.8673 74.042 30.8673C76.4209 30.8673 76.6588 30.9862 77.0156 32.6514C77.2535 33.603 77.2535 34.6735 77.0156 35.0303C76.8372 35.3276 74.4584 35.625 71.8416 35.625H67.0244L63.575 38.8959C59.5904 42.7021 57.271 43.8321 52.2754 44.3673C47.9934 44.7836 45.7335 46.2704 46.7445 47.9357C47.2203 48.7683 48.2908 49.0656 51.0859 49.1846C55.8437 49.4224 59.6499 48.1735 64.586 44.7836C68.8085 41.8695 70.1169 41.8695 72.4958 44.9026C75.8857 49.1846 72.6147 54.0612 66.3107 54.0612H63.575L63.7534 58.0459L63.9318 62.0899L66.6081 62.2683C68.0949 62.3873 69.5222 62.6847 69.7601 62.9225C70.4737 63.5767 65.1213 68.6913 61.2556 71.0107C55.0706 74.7574 51.2049 75.709 42.522 75.709C35.6828 75.709 34.3149 75.5305 30.5682 74.1627C28.2488 73.3301 25.2157 71.9028 23.7289 71.0107C20.8743 69.1671 14.2729 63.101 14.2729 62.2683C14.2729 62.0305 15.9976 61.7926 18.0791 61.7926C22.599 61.7926 22.599 61.7926 22.599 55.1912C22.599 50.6119 22.599 50.4929 21.1122 50.4929C20.3391 50.4929 18.6144 50.0766 17.306 49.5414C11.2993 47.1625 14.2729 39.788 21.1717 39.788C24.1452 39.788 24.3831 39.3717 22.3611 37.4686C20.5175 35.7439 17.3655 34.9708 12.2509 35.1492C9.69361 35.2087 8.0284 34.9708 7.90946 34.614C7.79051 34.2571 8.08787 33.0082 8.56365 31.8783C9.39625 29.8562 9.51519 29.7968 11.1804 30.3915C16.3544 32.3541 20.6364 25.2769 16.9492 20.876L15.4029 19.0324L17.6628 16.8319C21.8258 12.7878 28.3677 9.21954 34.4339 7.67328C35.6233 7.37592 39.7863 7.1975 43.7114 7.31644C49.7776 7.43539 51.5023 7.73275 55.0111 9.1006Z" fill="#D8B56E"></path><path d="M39.3699 18.3783C34.0769 21.5897 35.0879 29.7374 40.9756 31.5215C44.425 32.5325 47.2796 31.1052 48.8259 27.5369C50.0153 24.8607 50.0153 24.6823 49.0638 22.125C47.3391 17.6051 43.2355 15.9994 39.3699 18.3783Z" fill="#D8B56E"></path><path d="M36.1593 35.6252C35.2672 35.8631 33.2451 37.1714 31.6989 38.4798C27.7737 41.7508 25.5138 42.7618 21.2913 43.2376C17.1283 43.7133 15.4631 45.1406 17.4257 46.6274C19.3882 48.0548 25.2759 47.1627 30.6284 44.4865C33.2451 43.2376 35.8024 42.1671 36.3377 42.1671C38.1218 42.1671 41.0359 45.438 41.0359 47.4006C41.0359 49.72 39.0734 52.1583 36.6945 52.753L34.7914 53.2288V57.9865V62.6848H44.0095H53.2277L53.4061 57.4513L53.5845 52.2773H51.2056C46.6263 52.2773 44.0095 50.4336 44.0095 47.2222C44.0095 45.9733 44.5448 44.6054 45.3774 43.5944C46.6263 42.1671 47.2805 41.9886 51.3246 41.6913C53.8224 41.5723 55.9039 41.275 55.9039 41.0371C55.9039 40.8587 54.8929 39.5503 53.644 38.1825L51.4435 35.7441L44.6043 35.4468C40.8575 35.2683 37.0513 35.3278 36.1593 35.6252Z" fill="#D8B56E"></path><path d="M34.1966 45.735C33.9587 46.1513 32.8287 46.8055 31.7583 47.2812C29.1415 48.3517 29.201 49.1249 31.9961 49.8385C35.3266 50.7901 36.6944 50.6117 37.7054 49.1843C38.4786 48.0544 38.538 47.6975 37.8244 46.6271C36.9323 45.2592 34.7913 44.724 34.1966 45.735Z" fill="#D8B56E"></path><path d="M64.7053 47.6978C63.159 48.7683 61.9101 49.7793 61.9101 50.0172C61.8506 50.6119 68.0357 51.7418 69.1656 51.3255C70.4146 50.8498 71.1282 48.233 70.3551 46.9841C69.4035 45.4973 67.7383 45.6757 64.7053 47.6978Z" fill="#D8B56E"></path></svg>