<svg xmlns="http://www.w3.org/2000/svg" width="25" height="17" viewBox="0 0 25 17" fill="none"><path d="M1.87483 0.0159082C1.82335 0.0252686 1.67827 0.0673885 1.55191 0.109508L1.32727 0.179708L3.8451 2.7069C8.09452 6.961 10.837 9.63795 11.0897 9.77835C11.7168 10.1247 12.4843 10.1247 13.1115 9.77835C13.3642 9.63795 16.1066 6.961 20.3561 2.7069L22.8739 0.184387L22.6493 0.0954676C22.4293 0.0112286 22.0877 0.00654793 12.1942 0.00186825C6.56885 -0.00281143 1.92631 0.00186825 1.87483 0.0159082Z" fill="#19305C"></path><path d="M0.232167 1.4198C0.147927 1.63508 0.143247 1.94863 0.129207 8.26661C0.119847 14.8841 0.124527 15.1321 0.274287 15.4925L0.330446 15.6235L3.95743 12.02L7.58442 8.41169L5.52522 6.34782C4.39267 5.21058 2.75936 3.58663 1.89356 2.73955L0.316406 1.19984L0.232167 1.4198Z" fill="#19305C"></path><path d="M20.2391 4.79902L16.6168 8.40729L20.2391 12.0156C22.9347 14.6925 23.8754 15.6051 23.9035 15.5536C23.9222 15.5162 23.969 15.3617 24.0111 15.212C24.072 14.9733 24.0813 14.0981 24.0813 8.40729C24.0813 2.71643 24.072 1.84128 24.0111 1.6026C23.969 1.45284 23.9222 1.2984 23.9035 1.26096C23.8754 1.20948 22.9347 2.12207 20.2391 4.79902Z" fill="#19305C"></path><path d="M4.93557 13.0309L1.31326 16.6298L1.57066 16.7187C1.8187 16.8029 2.11354 16.8076 12.1006 16.8076C22.0175 16.8076 22.3825 16.8029 22.6259 16.7187L22.8739 16.6345L20.8241 14.5753C19.6915 13.4427 18.0582 11.8234 17.1878 10.9717L15.6106 9.42261L14.9648 10.0497C14.6138 10.396 14.1972 10.7611 14.0475 10.8594C13.0741 11.5052 11.8151 11.6222 10.7387 11.1729C10.2614 10.9717 9.92911 10.7236 9.24115 10.0544C8.89015 9.71745 8.59063 9.43665 8.57659 9.43665C8.56723 9.43665 6.92456 11.0559 4.93557 13.0309Z" fill="#19305C"></path></svg>