<svg xmlns="http://www.w3.org/2000/svg" width="84" height="85" viewBox="0 0 84 85" fill="none"><path d="M33.7733 1.02649C16.7258 4.68279 4.38581 17.1142 0.820922 34.2074C-1.96701 47.5529 2.46626 62.0867 12.2926 71.913C18.2341 77.8088 25.3638 81.6022 34.0018 83.3846C47.3473 86.1726 61.8811 81.7393 71.7074 71.913C77.6032 65.9715 81.3966 58.8417 83.1791 50.2037C85.967 36.8582 81.5337 22.3244 71.7074 12.4981C61.8354 2.67183 47.1188 -1.80714 33.7733 1.02649ZM49.0841 2.21479C53.883 3.08316 58.6819 4.86561 63.1608 7.51643C67.4113 10.0301 74.084 16.7029 76.6891 21.0447C84.5959 34.3445 84.5959 49.9752 76.6891 63.3664C74.1754 67.7083 67.5027 74.381 63.1608 76.8947C49.7696 84.8015 34.2761 84.8015 20.8392 76.8947C16.5887 74.381 9.91597 67.7083 7.31085 63.3664C-0.595894 50.0209 -0.595894 34.3902 7.31085 21.0447C9.91597 16.7029 16.5887 10.0301 20.8392 7.51643C29.7057 2.3062 39.2578 0.523753 49.0841 2.21479Z" fill="#D8B56E"></path><path d="M38.755 14.0064C37.2467 15.0119 36.744 15.1033 34.0475 14.9205C30.6654 14.6463 29.2486 15.2404 28.1974 17.3885C27.6947 18.4854 27.2833 18.6682 25.3638 18.8053C22.3473 18.9881 21.0676 19.9479 20.3821 22.4616C19.925 24.244 19.5594 24.6097 17.9598 25.3409C15.4003 26.4378 14.5777 27.7175 14.5777 30.6883C14.5777 32.3793 14.3949 33.1563 13.8921 33.3391C12.978 33.7047 11.3784 36.4012 11.3784 37.5895C11.3784 38.138 11.8355 39.372 12.3839 40.3775C13.3437 42.0228 13.3894 42.1599 12.6124 42.9826C12.1097 43.5767 11.8355 44.6279 11.8355 45.999C11.8355 47.8729 12.0183 48.2385 13.4351 49.3811C14.9433 50.5694 15.0347 50.7522 14.7605 52.7632C14.532 54.5456 14.6234 55.0027 15.7203 56.2824C16.4058 57.105 17.6855 57.9277 18.7367 58.2019C20.3364 58.659 20.5192 58.8418 20.5192 60.0758C20.5192 61.0813 20.9762 61.9496 22.0731 63.0465C23.4442 64.4176 23.9012 64.6005 25.9579 64.6005C27.2376 64.6005 28.2888 64.7833 28.2888 65.0118C28.2888 65.2403 28.8373 66.063 29.4771 66.8399C30.8939 68.531 33.1791 69.0794 35.6014 68.2568C37.201 67.754 37.4753 67.754 38.8007 68.7138C41.0402 70.3134 43.2796 70.4048 45.4277 68.9423C47.1645 67.754 47.3473 67.7083 49.4039 68.2111C51.2321 68.7138 51.7805 68.6681 53.2431 67.9825C54.1571 67.5255 55.254 66.6114 55.6654 65.8802C56.1681 64.9661 56.7622 64.6005 57.6306 64.6005C60.0529 64.6005 62.5666 63.2293 63.4807 61.3555C63.9834 60.3957 64.3948 59.2988 64.3948 58.9332C64.3948 58.5676 64.8518 58.1105 65.446 57.9734C65.9944 57.7906 67.137 57.105 67.9597 56.5109C69.4222 55.414 69.4679 55.2312 69.3765 52.8546C69.2851 50.6151 69.3765 50.2038 70.4277 49.2897C71.0675 48.7413 71.9359 47.6444 72.3472 46.8674C72.9871 45.6334 72.9871 45.3135 72.3929 43.9424C71.9816 43.1197 71.4788 42.1142 71.1589 41.7029C70.7476 41.1087 70.839 40.6974 71.616 39.6919C72.1644 39.0064 72.6214 37.9095 72.6214 37.3153C72.6214 35.8071 71.3417 33.7504 70.062 33.0192C69.148 32.5621 69.0566 32.2422 69.2851 30.3226C69.605 27.5347 68.7366 26.1636 65.7659 24.8839C63.892 24.0612 63.4807 23.6956 63.4807 22.7358C63.4807 20.085 61.2869 18.4397 57.7677 18.4397C56.3966 18.4397 55.7111 18.2569 55.7111 17.8455C55.7111 16.9314 53.3802 14.8748 51.9176 14.5549C51.2321 14.372 49.7239 14.4634 48.5813 14.7834C46.6617 15.3318 46.4789 15.2861 45.4277 14.3263C43.7367 12.7267 40.8116 12.5896 38.755 14.0064ZM44.8793 15.8346L46.3875 17.3885L47.9414 16.5201C50.8665 14.9662 53.3345 15.7431 54.5228 18.6225C55.1626 20.1307 55.2083 20.1307 57.4478 19.9022C59.4588 19.7194 59.9158 19.8565 60.9213 20.862C61.7897 21.7303 62.1096 22.553 62.1096 23.8327C62.1096 25.6152 62.1553 25.6152 64.0291 25.8894C65.3545 26.0722 66.3143 26.5292 66.9999 27.3519C68.1882 28.723 68.2796 29.7285 67.5026 31.5109C66.9999 32.6078 67.0456 32.7906 67.8225 33.2477C69.4222 34.1618 71.2503 36.1727 71.2503 37.0868C71.2503 37.5895 70.6562 38.7321 69.9249 39.6462L68.5995 41.3372L69.6507 42.3884C71.9359 44.6736 71.4331 47.3244 68.4624 48.8327C67.4112 49.3811 67.137 49.7924 67.4112 50.3409C67.594 50.7522 67.8225 51.9862 67.9597 52.9917C68.0968 54.5913 67.9597 55.0027 67.0456 55.6425C66.4971 56.0539 65.2174 56.5109 64.3034 56.6937C62.6123 56.9222 62.5666 57.0136 62.5666 58.8875C62.5666 61.6754 61.1498 62.8637 57.9962 62.7266C55.7568 62.5895 55.5739 62.6809 55.0255 63.9606C53.7458 66.9313 50.8208 67.8911 48.2156 66.2001C47.073 65.4231 47.0273 65.4231 45.7476 66.7942C43.4625 69.2622 41.2687 69.2622 38.8921 66.8399L37.5667 65.4688L36.0127 66.3829C35.1444 66.9313 34.0932 67.3427 33.6361 67.3427C31.9908 67.3427 30.2084 66.0173 29.6599 64.3719L29.1115 62.7723L26.6892 63.0465C24.4954 63.3208 24.1298 63.2293 23.0786 62.1782C22.2102 61.2641 21.8903 60.5328 21.8903 59.116C21.8903 57.425 21.7989 57.2879 20.6563 57.2879C18.8738 57.2879 16.4972 55.7339 16.1316 54.3628C15.9945 53.6773 16.1773 52.6261 16.5886 51.7577C17.3199 50.2952 17.2285 49.5182 16.2687 49.5182C15.9488 49.5182 15.1261 49.0155 14.3949 48.467C12.5667 47.0045 12.5667 44.9478 14.3492 43.1197L15.6746 41.7486L14.4863 40.4689C12.7038 38.6407 12.4753 37.1782 13.7093 35.6243C14.2578 34.9387 15.2175 34.1618 15.8117 33.9332C16.6801 33.6133 16.8629 33.2934 16.6343 32.6992C15.0804 28.9972 16.1773 26.8949 20.0621 26.2093C21.5704 25.9808 21.6618 25.8894 21.5247 24.3355C21.4332 23.1015 21.6618 22.3245 22.4387 21.4104C23.3985 20.3135 23.8555 20.1307 26.0493 20.2221C28.563 20.2678 28.563 20.2678 29.34 18.5311C30.0713 16.8857 31.6252 15.6974 32.9963 15.6974C33.3162 15.6974 34.3674 16.1088 35.3272 16.5658L37.0639 17.4799L38.6179 15.8803C40.7659 13.7322 42.7769 13.7322 44.8793 15.8346Z" fill="#D8B56E"></path><path d="M39.7147 30.7795C37.4295 31.2823 35.5557 32.3792 34.3674 33.8417C28.5173 41.2457 27.2833 43.5766 28.8829 44.1707C29.5685 44.4449 32.3107 43.3481 33.4076 42.3426C34.3674 41.4742 34.4588 41.7027 34.8701 45.1305C35.3272 48.8782 38.1608 52.763 40.9487 53.4486C44.6507 54.4084 48.9926 49.5181 49.4953 43.9422C49.5867 42.8453 49.6781 41.9312 49.7239 41.8398C49.7696 41.7941 50.5465 42.2512 51.552 42.8453C53.2887 43.9422 53.9743 44.1707 55.2083 44.0793C57.5849 43.8965 50.8207 33.796 46.9359 31.6936C45.0621 30.7338 41.8628 30.3225 39.7147 30.7795ZM44.2851 32.4706C44.7421 32.3335 45.382 32.5163 45.7019 32.8819C45.9761 33.2475 46.5246 33.5218 46.8445 33.5218C47.2101 33.5218 47.4844 33.8417 47.4844 34.253C47.4844 34.6643 48.8098 36.264 50.4551 37.8636C53.4716 40.7429 54.477 42.7996 52.4204 41.7027C51.8262 41.3828 50.6379 40.5144 49.7696 39.7832L48.1699 38.3663L47.8957 42.5254C47.5301 47.3243 46.3875 49.8837 43.9652 51.3919C42.2741 52.4431 41.0401 52.2603 39.3491 50.7064C37.2467 48.8325 36.3784 46.4102 36.3327 42.3426C36.2869 40.2402 36.2412 38.5492 36.1498 38.5492C36.0584 38.5492 34.8701 39.4175 33.499 40.423C32.1279 41.4742 30.8939 42.2055 30.7111 42.0226C30.1626 41.5199 31.7166 39.3261 34.0932 37.2695C35.4643 36.0812 36.3327 34.9843 36.1955 34.6186C36.0584 34.253 36.4241 33.796 37.1096 33.5675C37.7495 33.3389 38.3893 32.8819 38.5721 32.6077C38.755 32.3335 39.2577 32.242 39.7604 32.3792C40.2175 32.562 40.9944 32.4706 41.4058 32.1963C41.9542 31.9221 42.4113 31.9221 42.7769 32.242C43.0968 32.5163 43.7824 32.6077 44.2851 32.4706Z" fill="#D8B56E"></path><path d="M36.8354 73.6041C36.3327 74.0612 36.4698 79.8198 36.9726 80.5968C37.2925 81.1452 37.5667 81.1452 38.2066 80.7796C39.0749 80.2312 39.5777 76.4377 39.0292 74.3354C38.8007 73.3299 37.521 72.9186 36.8354 73.6041Z" fill="#D8B56E"></path><path d="M45.0164 74.2897C44.605 75.9351 44.6964 79.18 45.1992 80.1855C46.3418 82.3336 47.9414 80.5968 47.9414 77.1691C47.9414 76.0265 47.7129 74.6553 47.4844 74.1526C46.7988 72.9643 45.382 73.0557 45.0164 74.2897Z" fill="#D8B56E"></path></svg>