<svg xmlns="http://www.w3.org/2000/svg" width="89" height="89" viewBox="0 0 89 89" fill="none"><path d="M37.2022 3.38195C19.0907 6.94195 6.36371 19.7579 2.93721 37.7804C2.00271 42.7644 2.04721 46.8139 3.11521 52.1539C5.87421 65.6374 13.9732 76.2729 26.0327 82.1469C32.2627 85.1729 36.7127 86.1074 44.5002 86.0629C52.0207 86.0184 55.7587 85.2174 61.8107 82.3249C88.6442 69.4644 94.1622 34.0869 72.4462 14.0174C63.0122 5.29545 48.9502 1.02345 37.2022 3.38195ZM54.0677 5.74045C69.1087 9.70095 80.3672 21.6269 83.4377 36.8904C84.5947 42.4974 84.1942 50.9969 82.5477 56.0699C80.2337 63.2789 77.0297 68.4854 71.8232 73.4694C66.8392 78.2309 62.4782 80.7674 55.6252 82.9924C50.5522 84.6389 41.5187 85.0394 36.2232 83.8824C20.9152 80.5449 9.38971 69.5979 5.25121 54.5124C3.82721 49.3059 3.82721 40.0054 5.25121 34.7544C9.47871 19.2239 21.3602 8.14345 37.1577 5.07295C41.4742 4.22745 49.5287 4.53895 54.0677 5.74045Z" fill="#D8B56E"></path><path d="M30.4826 13.5724C29.2811 14.3734 26.9671 15.6194 25.3651 16.2869C22.0276 17.6664 19.8026 19.1794 19.0906 20.6034C18.7791 21.1374 18.2896 23.8964 17.9336 26.6999C17.5776 29.5034 17.1326 33.4194 16.9101 35.3774C16.6431 37.3354 16.1536 41.2514 15.7976 44.0549C14.4181 54.7349 14.1956 56.9154 14.1066 63.4124L14.0176 70.0874L18.7346 70.1764C21.8496 70.2209 23.7186 70.0874 24.1636 69.7314C24.7421 69.2864 24.8756 67.4619 25.0981 59.1849C25.3651 49.3059 25.5876 47.1699 26.2551 47.1699C27.1451 47.1699 27.7236 52.4209 27.8126 60.7424L27.9016 69.6424L35.2886 69.7759C43.6101 69.9094 43.2096 70.0429 43.8326 66.3939C44.3221 63.4569 44.9451 63.9464 45.6571 67.7289C45.7906 68.6634 46.1911 69.5979 46.5026 69.8649C46.8586 70.1764 49.6176 70.3099 54.1121 70.2209L61.1876 70.0874L61.0541 62.7449C60.9651 57.4939 61.0986 54.3344 61.5881 51.6644C62.9231 44.3664 63.4571 46.1019 63.9021 59.6299C64.0801 64.3914 64.3916 68.7524 64.5696 69.3309C64.9256 70.3099 65.1036 70.3544 69.7316 70.2209L74.5376 70.0874L74.6711 66.3049C74.8936 60.4754 74.0036 49.9289 71.6896 31.7284C70.4881 22.2944 70.1321 20.6034 69.1531 19.4909C68.6636 18.9569 66.3051 17.6219 63.8576 16.4204C61.4101 15.2634 58.7401 13.7949 57.8946 13.1719C57.0491 12.5489 56.1146 12.0149 55.8476 12.0149C55.5361 12.0149 55.0466 14.0174 54.6016 16.7764C53.7561 22.6504 51.5311 30.3934 48.1936 39.3379C45.6571 46.2354 45.1231 47.3034 44.4111 47.0809C44.0106 46.9474 41.6076 40.9399 39.3381 34.4874C37.4246 29.0139 34.6656 18.3339 34.3541 15.2634C33.9981 11.6589 33.5976 11.4809 30.4826 13.5724ZM61.6326 32.0399C62.3446 33.1969 60.8316 33.8199 57.4051 33.8199C54.9131 33.8199 53.8006 33.6419 53.4001 33.1524C52.4211 31.9954 53.4001 31.5949 57.4051 31.5949C59.6746 31.5949 61.4991 31.7729 61.6326 32.0399ZM45.8351 56.5149C45.8351 57.8944 44.7226 58.4284 43.8771 57.4494C43.2096 56.6929 43.1651 56.5594 43.8326 55.9364C44.6781 55.0909 45.8351 55.4024 45.8351 56.5149Z" fill="#D8B56E"></path><path d="M41.5188 13.7949C40.2283 14.3289 40.2283 15.5304 41.4298 17.0879C41.9193 17.7109 42.5423 18.9124 42.7648 19.7579C43.0318 20.7814 43.5658 21.4044 44.5003 21.8049C46.1913 22.5169 46.9033 22.0274 46.5473 20.3364C46.3248 19.3574 46.5473 18.6454 47.3038 17.6219C48.9058 15.4859 49.0393 14.8184 47.9268 14.0174C46.8588 13.2609 43.1208 13.1719 41.5188 13.7949Z" fill="#D8B56E"></path><path d="M41.7855 23.8965C40.9845 26.0325 41.4295 26.8335 44.055 28.124C47.348 29.726 48.06 29.726 48.06 28.0795C48.06 25.8545 47.3035 24.564 45.4345 23.585C43.076 22.3835 42.364 22.4725 41.7855 23.8965Z" fill="#D8B56E"></path><path d="M41.1182 29.548C40.9847 29.904 40.9402 30.7495 41.0292 31.4615C41.1182 32.485 41.6077 32.93 43.6102 33.909C46.5472 35.3775 47.6152 35.333 48.1937 33.6865C48.7277 32.0845 48.1047 31.3725 45.0342 29.993C42.2307 28.747 41.4742 28.658 41.1182 29.548Z" fill="#D8B56E"></path><path d="M42.0084 35.7334C41.8749 36.0894 42.1864 37.4244 42.7204 38.7594C44.3224 43.0759 44.7674 43.1649 46.0579 39.7829C46.9479 37.4244 46.7254 36.9794 43.9219 35.8224C42.5424 35.2439 42.2309 35.2439 42.0084 35.7334Z" fill="#D8B56E"></path></svg>