<svg xmlns="http://www.w3.org/2000/svg" width="85" height="84" viewBox="0 0 85 84" fill="none"><path d="M35.3273 0.987488C20.2398 3.70749 7.95732 14.2475 3.02732 28.6125C-4.36768 50.2875 7.31982 73.96 29.0373 81.3975C50.7123 88.7925 74.3848 77.105 81.8223 55.3875C89.2173 33.7125 77.5298 10.04 55.8123 2.60249C49.4373 0.434982 41.7023 -0.160011 35.3273 0.987488ZM52.4123 2.89999C66.7773 6.76749 77.6573 17.69 81.6098 32.225C83.0123 37.41 83.0123 46.59 81.6098 51.775C77.6573 66.395 66.8198 77.2325 52.1998 81.185C47.0148 82.5875 37.8348 82.5875 32.6498 81.185C18.0298 77.2325 7.19232 66.395 3.23982 51.775C1.83732 46.59 1.83732 37.41 3.23982 32.225C7.48982 16.585 19.6023 5.27998 35.4123 2.21999C39.6623 1.41248 48.0348 1.70998 52.4123 2.89999Z" fill="#D8B56E"></path><path d="M36.05 13.695C30.355 15.395 25.51 19.3899 23.0025 24.49C21.8975 26.7425 21.8125 27.2524 21.8125 32.2249C21.8125 37.24 21.8975 37.7075 23.045 40.045C23.725 41.405 25.51 43.8275 27.04 45.4425C30.0575 48.6725 30.015 48.2475 28.145 52.4975C26.7 55.7275 24.5325 61.6775 24.7025 61.8475C24.83 61.9325 26.3175 61.55 28.06 60.955C32.8625 59.2975 32.99 59.34 35.115 63.0375C36.135 64.78 37.1125 66.225 37.24 66.225C37.41 66.225 38.09 64.7375 38.77 62.91C40.5975 57.98 41.66 55.6 42 55.6C42.425 55.6 43.105 57.13 46.08 64.8225C47.4825 68.3925 48.6725 71.325 48.8 71.325C48.9275 71.2825 49.8625 69.8375 50.8825 68.095C51.9025 66.31 52.965 64.78 53.2625 64.695C53.56 64.5675 55.2175 64.95 56.96 65.545C58.7025 66.14 60.36 66.65 60.6575 66.65C61.465 66.65 61.1675 65.715 57.7675 57.13C56.11 52.9225 54.75 49.2675 54.75 48.97C54.75 48.6725 55.8125 47.44 57.0875 46.2075C60.105 43.36 61.805 40.7675 62.825 37.41C64.9925 30.4825 62.655 23.0024 56.79 18.115C53.56 15.4375 51.9875 14.545 48.375 13.5675C44.21 12.42 40.1725 12.4625 36.05 13.695ZM49.905 16.7975C54.5375 18.625 58.575 22.79 60.02 27.2524C60.9975 30.185 60.9125 35.0725 59.8075 37.8349C58.5325 41.1075 56.3225 43.87 53.475 45.7825C49.735 48.2475 47.185 49.0125 42.425 49.0125C37.665 49.0125 35.115 48.2475 31.375 45.74C28.4425 43.785 25.8075 40.385 24.745 37.24C23.6825 34.01 24.065 28.485 25.5525 25.3825C27.805 20.7075 33.585 16.4575 38.77 15.6075C42.1275 15.0975 46.9725 15.6075 49.905 16.7975ZM38.09 51.5625C39.0675 51.7325 39.875 52.03 39.875 52.285C39.875 53.305 37.07 59.85 36.645 59.85C36.39 59.85 35.9225 59.2975 35.625 58.575C34.775 56.4925 34.2225 56.28 31.715 57.045C30.4825 57.385 29.42 57.5975 29.335 57.5125C29.165 57.3425 30.2275 54.3675 31.545 51.265L32.225 49.65L34.265 50.4575C35.37 50.8825 37.07 51.3925 38.09 51.5625ZM52.965 52.285C53.4325 53.5175 54.5375 56.3225 55.3875 58.49C56.2375 60.7 56.875 62.57 56.7475 62.655C56.6625 62.74 55.77 62.5275 54.75 62.1875C52.115 61.2525 51.6475 61.38 50.585 63.25C50.075 64.185 49.48 64.95 49.31 64.95C49.055 64.95 44.125 52.795 44.125 52.1575C44.125 51.9875 45.145 51.7325 46.3775 51.5625C47.5675 51.435 49.1825 51.0525 49.8625 50.7125C51.86 49.82 52.0725 49.9475 52.965 52.285Z" fill="#D8B56E"></path><path d="M47.015 29.1225C45.315 31.6725 43.36 34.52 42.7225 35.4975C42.0425 36.5175 41.32 37.4525 41.065 37.58C40.81 37.75 39.2375 36.475 37.495 34.7325C34.435 31.6725 34.3925 31.63 33.5 32.4375C33.0325 32.8625 32.6925 33.3725 32.735 33.585C32.82 33.7975 34.775 35.8375 37.07 38.175C41.2775 42.34 41.2775 42.34 42 41.4475C42.3825 40.9375 44.9325 37.1975 47.695 33.16C52.37 26.2325 52.625 25.765 51.9025 25.2125C51.4775 24.8725 50.8825 24.575 50.6275 24.575C50.33 24.575 48.715 26.615 47.015 29.1225Z" fill="#D8B56E"></path></svg>